G04 PROTEUS GERBER X2 FILE*
%TF.GenerationSoftware,Labcenter,Proteus,8.8-SP1-Build27031*%
%TF.CreationDate,2021-01-10T00:14:03+00:00*%
%TF.FileFunction,AssemblyDrawing,Top*%
%TF.FilePolarity,Positive*%
%TF.Part,Single*%
%TF.SameCoordinates,{98ac7ad0-3a1b-4910-adea-4d28a6190023}*%
%FSLAX45Y45*%
%MOMM*%
G01*
%TA.AperFunction,Profile*%
%ADD14C,0.203200*%
%TA.AperFunction,Material*%
%ADD17C,0.203200*%
%ADD20C,0.567580*%
%ADD21C,0.106680*%
%ADD22C,0.164590*%
%ADD23C,0.172720*%
%ADD24C,0.086920*%
%ADD25C,0.148040*%
%ADD26C,0.129540*%
%TD.AperFunction*%
D14*
X-9292760Y-3016620D02*
X-3718540Y-3016620D01*
X-3718540Y+3064140D01*
X-9292760Y+3064140D01*
X-9292760Y-3016620D01*
D17*
X-9258160Y-79160D02*
X-7597840Y-79160D01*
X-7597840Y+2191160D01*
X-9258160Y+2191160D01*
X-9258160Y-79160D01*
D20*
X-8257726Y+374904D02*
X-8598274Y+374904D01*
X-8598274Y+658694D01*
X-8541516Y+715452D01*
X-8484758Y+715452D01*
X-8428000Y+658694D01*
X-8428000Y+374904D01*
X-8428000Y+658694D02*
X-8371242Y+715452D01*
X-8257726Y+715452D01*
X-8598274Y+828968D02*
X-8257726Y+828968D01*
X-8257726Y+1169516D01*
X-8484758Y+1396548D02*
X-8598274Y+1510064D01*
X-8257726Y+1510064D01*
D17*
X-7353160Y-79160D02*
X-5692840Y-79160D01*
X-5692840Y+2191160D01*
X-7353160Y+2191160D01*
X-7353160Y-79160D01*
D20*
X-6352726Y+374904D02*
X-6693274Y+374904D01*
X-6693274Y+658694D01*
X-6636516Y+715452D01*
X-6579758Y+715452D01*
X-6523000Y+658694D01*
X-6523000Y+374904D01*
X-6523000Y+658694D02*
X-6466242Y+715452D01*
X-6352726Y+715452D01*
X-6693274Y+828968D02*
X-6352726Y+828968D01*
X-6352726Y+1169516D01*
X-6636516Y+1339790D02*
X-6693274Y+1396548D01*
X-6693274Y+1566822D01*
X-6636516Y+1623580D01*
X-6579758Y+1623580D01*
X-6523000Y+1566822D01*
X-6523000Y+1396548D01*
X-6466242Y+1339790D01*
X-6352726Y+1339790D01*
X-6352726Y+1623580D01*
D17*
X-8836660Y-454660D02*
X-7896860Y-454660D01*
X-7896860Y-276860D01*
X-8836660Y-276860D01*
X-8836660Y-454660D01*
D21*
X-8452104Y-397764D02*
X-8452104Y-333756D01*
X-8409432Y-333756D01*
X-8388096Y-355092D01*
X-8388096Y-376428D01*
X-8409432Y-397764D01*
X-8452104Y-397764D01*
X-8345424Y-355092D02*
X-8324088Y-333756D01*
X-8324088Y-397764D01*
D17*
X-6929120Y-457200D02*
X-5989320Y-457200D01*
X-5989320Y-279400D01*
X-6929120Y-279400D01*
X-6929120Y-457200D01*
D21*
X-6544564Y-400304D02*
X-6544564Y-336296D01*
X-6501892Y-336296D01*
X-6480556Y-357632D01*
X-6480556Y-378968D01*
X-6501892Y-400304D01*
X-6544564Y-400304D01*
X-6448552Y-346964D02*
X-6437884Y-336296D01*
X-6405880Y-336296D01*
X-6395212Y-346964D01*
X-6395212Y-357632D01*
X-6405880Y-368300D01*
X-6437884Y-368300D01*
X-6448552Y-378968D01*
X-6448552Y-400304D01*
X-6395212Y-400304D01*
D17*
X-5052060Y-457200D02*
X-4112260Y-457200D01*
X-4112260Y-279400D01*
X-5052060Y-279400D01*
X-5052060Y-457200D01*
D21*
X-4667504Y-400304D02*
X-4667504Y-336296D01*
X-4624832Y-336296D01*
X-4603496Y-357632D01*
X-4603496Y-378968D01*
X-4624832Y-400304D01*
X-4667504Y-400304D01*
X-4571492Y-346964D02*
X-4560824Y-336296D01*
X-4528820Y-336296D01*
X-4518152Y-346964D01*
X-4518152Y-357632D01*
X-4528820Y-368300D01*
X-4518152Y-378968D01*
X-4518152Y-389636D01*
X-4528820Y-400304D01*
X-4560824Y-400304D01*
X-4571492Y-389636D01*
X-4550156Y-368300D02*
X-4528820Y-368300D01*
D17*
X-5448160Y-79160D02*
X-3787840Y-79160D01*
X-3787840Y+2191160D01*
X-5448160Y+2191160D01*
X-5448160Y-79160D01*
D20*
X-4447726Y+374904D02*
X-4788274Y+374904D01*
X-4788274Y+658694D01*
X-4731516Y+715452D01*
X-4674758Y+715452D01*
X-4618000Y+658694D01*
X-4618000Y+374904D01*
X-4618000Y+658694D02*
X-4561242Y+715452D01*
X-4447726Y+715452D01*
X-4788274Y+828968D02*
X-4447726Y+828968D01*
X-4447726Y+1169516D01*
X-4731516Y+1339790D02*
X-4788274Y+1396548D01*
X-4788274Y+1566822D01*
X-4731516Y+1623580D01*
X-4674758Y+1623580D01*
X-4618000Y+1566822D01*
X-4561242Y+1623580D01*
X-4504484Y+1623580D01*
X-4447726Y+1566822D01*
X-4447726Y+1396548D01*
X-4504484Y+1339790D01*
X-4618000Y+1453306D02*
X-4618000Y+1566822D01*
D17*
X-8211820Y-998220D02*
X-7429500Y-998220D01*
X-7429500Y-723900D01*
X-8211820Y-723900D01*
X-8211820Y-998220D01*
D22*
X-7952333Y-844601D02*
X-7919415Y-811683D01*
X-7886497Y-811683D01*
X-7853579Y-844601D01*
X-7853579Y-877520D01*
X-7886497Y-910438D01*
X-7919415Y-910438D01*
X-7952333Y-877520D01*
X-7952333Y-844601D01*
X-7886497Y-877520D02*
X-7853579Y-910438D01*
X-7787742Y-844601D02*
X-7754824Y-811683D01*
X-7754824Y-910438D01*
D17*
X-6817360Y-975360D02*
X-6035040Y-975360D01*
X-6035040Y-701040D01*
X-6817360Y-701040D01*
X-6817360Y-975360D01*
D22*
X-6557873Y-821741D02*
X-6524955Y-788823D01*
X-6492037Y-788823D01*
X-6459119Y-821741D01*
X-6459119Y-854660D01*
X-6492037Y-887578D01*
X-6524955Y-887578D01*
X-6557873Y-854660D01*
X-6557873Y-821741D01*
X-6492037Y-854660D02*
X-6459119Y-887578D01*
X-6409741Y-805282D02*
X-6393282Y-788823D01*
X-6343905Y-788823D01*
X-6327446Y-805282D01*
X-6327446Y-821741D01*
X-6343905Y-838200D01*
X-6393282Y-838200D01*
X-6409741Y-854660D01*
X-6409741Y-887578D01*
X-6327446Y-887578D01*
D17*
X-4848860Y-988060D02*
X-4066540Y-988060D01*
X-4066540Y-713740D01*
X-4848860Y-713740D01*
X-4848860Y-988060D01*
D22*
X-4589373Y-834441D02*
X-4556455Y-801523D01*
X-4523537Y-801523D01*
X-4490619Y-834441D01*
X-4490619Y-867360D01*
X-4523537Y-900278D01*
X-4556455Y-900278D01*
X-4589373Y-867360D01*
X-4589373Y-834441D01*
X-4523537Y-867360D02*
X-4490619Y-900278D01*
X-4441241Y-817982D02*
X-4424782Y-801523D01*
X-4375405Y-801523D01*
X-4358946Y-817982D01*
X-4358946Y-834441D01*
X-4375405Y-850900D01*
X-4358946Y-867360D01*
X-4358946Y-883819D01*
X-4375405Y-900278D01*
X-4424782Y-900278D01*
X-4441241Y-883819D01*
X-4408323Y-850900D02*
X-4375405Y-850900D01*
D17*
X-6515100Y-2311400D02*
X-6337300Y-2311400D01*
X-6337300Y-1117600D01*
X-6515100Y-1117600D01*
X-6515100Y-2311400D01*
D21*
X-6394196Y-1799844D02*
X-6458204Y-1799844D01*
X-6458204Y-1746504D01*
X-6447536Y-1735836D01*
X-6436868Y-1735836D01*
X-6426200Y-1746504D01*
X-6426200Y-1799844D01*
X-6426200Y-1746504D02*
X-6415532Y-1735836D01*
X-6394196Y-1735836D01*
X-6436868Y-1693164D02*
X-6458204Y-1671828D01*
X-6394196Y-1671828D01*
D17*
X-5422900Y-2298700D02*
X-5245100Y-2298700D01*
X-5245100Y-1104900D01*
X-5422900Y-1104900D01*
X-5422900Y-2298700D01*
D21*
X-5301996Y-1787144D02*
X-5366004Y-1787144D01*
X-5366004Y-1733804D01*
X-5355336Y-1723136D01*
X-5344668Y-1723136D01*
X-5334000Y-1733804D01*
X-5334000Y-1787144D01*
X-5334000Y-1733804D02*
X-5323332Y-1723136D01*
X-5301996Y-1723136D01*
X-5355336Y-1691132D02*
X-5366004Y-1680464D01*
X-5366004Y-1648460D01*
X-5355336Y-1637792D01*
X-5344668Y-1637792D01*
X-5334000Y-1648460D01*
X-5334000Y-1680464D01*
X-5323332Y-1691132D01*
X-5301996Y-1691132D01*
X-5301996Y-1637792D01*
D17*
X-7696200Y-2311400D02*
X-7518400Y-2311400D01*
X-7518400Y-1117600D01*
X-7696200Y-1117600D01*
X-7696200Y-2311400D01*
D21*
X-7575296Y-1799844D02*
X-7639304Y-1799844D01*
X-7639304Y-1746504D01*
X-7628636Y-1735836D01*
X-7617968Y-1735836D01*
X-7607300Y-1746504D01*
X-7607300Y-1799844D01*
X-7607300Y-1746504D02*
X-7596632Y-1735836D01*
X-7575296Y-1735836D01*
X-7628636Y-1650492D02*
X-7639304Y-1661160D01*
X-7639304Y-1693164D01*
X-7628636Y-1703832D01*
X-7585964Y-1703832D01*
X-7575296Y-1693164D01*
X-7575296Y-1661160D01*
X-7585964Y-1650492D01*
X-7596632Y-1650492D01*
X-7607300Y-1661160D01*
X-7607300Y-1703832D01*
D17*
X-8950960Y+2288540D02*
X-7914640Y+2288540D01*
X-7914640Y+3070860D01*
X-8950960Y+3070860D01*
X-8950960Y+2288540D01*
D23*
X-8778240Y+2645156D02*
X-8760968Y+2627884D01*
X-8691880Y+2627884D01*
X-8674608Y+2645156D01*
X-8674608Y+2662428D01*
X-8691880Y+2679700D01*
X-8760968Y+2679700D01*
X-8778240Y+2696972D01*
X-8778240Y+2714244D01*
X-8760968Y+2731516D01*
X-8691880Y+2731516D01*
X-8674608Y+2714244D01*
X-8640064Y+2731516D02*
X-8536432Y+2731516D01*
X-8588248Y+2731516D02*
X-8588248Y+2627884D01*
X-8501888Y+2627884D02*
X-8501888Y+2696972D01*
X-8467344Y+2731516D01*
X-8432800Y+2731516D01*
X-8398256Y+2696972D01*
X-8398256Y+2627884D01*
X-8501888Y+2662428D02*
X-8398256Y+2662428D01*
X-8363712Y+2627884D02*
X-8363712Y+2731516D01*
X-8277352Y+2731516D01*
X-8260080Y+2714244D01*
X-8260080Y+2696972D01*
X-8277352Y+2679700D01*
X-8363712Y+2679700D01*
X-8277352Y+2679700D02*
X-8260080Y+2662428D01*
X-8260080Y+2627884D01*
X-8225536Y+2731516D02*
X-8121904Y+2731516D01*
X-8173720Y+2731516D02*
X-8173720Y+2627884D01*
D17*
X-6898640Y-2880360D02*
X-6116320Y-2880360D01*
X-6116320Y-2606040D01*
X-6898640Y-2606040D01*
X-6898640Y-2880360D01*
D24*
X-6785636Y-2717123D02*
X-6733482Y-2717123D01*
X-6759559Y-2717123D02*
X-6759559Y-2769278D01*
X-6716097Y-2769278D02*
X-6716097Y-2734508D01*
X-6698713Y-2717123D01*
X-6681328Y-2717123D01*
X-6663943Y-2734508D01*
X-6663943Y-2769278D01*
X-6716097Y-2751893D02*
X-6663943Y-2751893D01*
X-6646558Y-2769278D02*
X-6646558Y-2717123D01*
X-6603097Y-2717123D01*
X-6594404Y-2725816D01*
X-6594404Y-2734508D01*
X-6603097Y-2743200D01*
X-6646558Y-2743200D01*
X-6603097Y-2743200D02*
X-6594404Y-2751893D01*
X-6594404Y-2769278D01*
X-6577019Y-2751893D02*
X-6577019Y-2760585D01*
X-6568327Y-2769278D01*
X-6533558Y-2769278D01*
X-6524865Y-2760585D01*
X-6524865Y-2717123D01*
X-6455326Y-2769278D02*
X-6507480Y-2769278D01*
X-6507480Y-2717123D01*
X-6455326Y-2717123D01*
X-6507480Y-2743200D02*
X-6472711Y-2743200D01*
X-6437941Y-2717123D02*
X-6385787Y-2717123D01*
X-6411864Y-2717123D02*
X-6411864Y-2769278D01*
X-6359710Y-2743200D02*
X-6316248Y-2743200D01*
X-6290171Y-2725816D02*
X-6281479Y-2717123D01*
X-6255402Y-2717123D01*
X-6246709Y-2725816D01*
X-6246709Y-2734508D01*
X-6255402Y-2743200D01*
X-6281479Y-2743200D01*
X-6290171Y-2751893D01*
X-6290171Y-2769278D01*
X-6246709Y-2769278D01*
D17*
X-7058660Y+2275840D02*
X-6022340Y+2275840D01*
X-6022340Y+3058160D01*
X-7058660Y+3058160D01*
X-7058660Y+2275840D01*
D25*
X-6895808Y+2681805D02*
X-6866199Y+2711414D01*
X-6836590Y+2711414D01*
X-6806981Y+2681805D01*
X-6806981Y+2652196D01*
X-6836590Y+2622587D01*
X-6866199Y+2622587D01*
X-6895808Y+2652196D01*
X-6895808Y+2681805D01*
X-6777372Y+2622587D02*
X-6777372Y+2711414D01*
X-6688545Y+2622587D01*
X-6688545Y+2711414D01*
X-6570109Y+2711414D02*
X-6658936Y+2622587D01*
X-6540500Y+2681805D02*
X-6510891Y+2711414D01*
X-6481282Y+2711414D01*
X-6451673Y+2681805D01*
X-6451673Y+2652196D01*
X-6481282Y+2622587D01*
X-6510891Y+2622587D01*
X-6540500Y+2652196D01*
X-6540500Y+2681805D01*
X-6422064Y+2622587D02*
X-6422064Y+2711414D01*
X-6333237Y+2711414D01*
X-6422064Y+2667000D02*
X-6362846Y+2667000D01*
X-6303628Y+2622587D02*
X-6303628Y+2711414D01*
X-6214801Y+2711414D01*
X-6303628Y+2667000D02*
X-6244410Y+2667000D01*
D17*
X-5153660Y+2263140D02*
X-4117340Y+2263140D01*
X-4117340Y+3045460D01*
X-5153660Y+3045460D01*
X-5153660Y+2263140D01*
D25*
X-4990808Y+2609887D02*
X-4990808Y+2669105D01*
X-4961199Y+2698714D01*
X-4931590Y+2698714D01*
X-4901981Y+2669105D01*
X-4901981Y+2609887D01*
X-4990808Y+2639496D02*
X-4901981Y+2639496D01*
X-4872372Y+2698714D02*
X-4872372Y+2609887D01*
X-4783545Y+2609887D01*
X-4753936Y+2609887D02*
X-4753936Y+2669105D01*
X-4724327Y+2698714D01*
X-4694718Y+2698714D01*
X-4665109Y+2669105D01*
X-4665109Y+2609887D01*
X-4753936Y+2639496D02*
X-4665109Y+2639496D01*
X-4635500Y+2609887D02*
X-4635500Y+2698714D01*
X-4561478Y+2698714D01*
X-4546673Y+2683909D01*
X-4546673Y+2669105D01*
X-4561478Y+2654300D01*
X-4635500Y+2654300D01*
X-4561478Y+2654300D02*
X-4546673Y+2639496D01*
X-4546673Y+2609887D01*
X-4517064Y+2609887D02*
X-4517064Y+2698714D01*
X-4472651Y+2654300D01*
X-4428237Y+2698714D01*
X-4428237Y+2609887D01*
X-4398628Y+2609887D02*
X-4398628Y+2669105D01*
X-4369019Y+2698714D01*
X-4339410Y+2698714D01*
X-4309801Y+2669105D01*
X-4309801Y+2609887D01*
X-4398628Y+2639496D02*
X-4309801Y+2639496D01*
D17*
X-9138920Y-3195320D02*
X-8102600Y-3195320D01*
X-8102600Y-2413000D01*
X-9138920Y-2413000D01*
X-9138920Y-3195320D01*
D23*
X-8966200Y-2838704D02*
X-8948928Y-2855976D01*
X-8879840Y-2855976D01*
X-8862568Y-2838704D01*
X-8862568Y-2821432D01*
X-8879840Y-2804160D01*
X-8948928Y-2804160D01*
X-8966200Y-2786888D01*
X-8966200Y-2769616D01*
X-8948928Y-2752344D01*
X-8879840Y-2752344D01*
X-8862568Y-2769616D01*
X-8828024Y-2855976D02*
X-8828024Y-2786888D01*
X-8793480Y-2752344D01*
X-8758936Y-2752344D01*
X-8724392Y-2786888D01*
X-8724392Y-2855976D01*
X-8828024Y-2821432D02*
X-8724392Y-2821432D01*
X-8689848Y-2752344D02*
X-8689848Y-2855976D01*
X-8586216Y-2855976D01*
X-8551672Y-2752344D02*
X-8448040Y-2752344D01*
X-8499856Y-2752344D02*
X-8499856Y-2855976D01*
X-8413496Y-2786888D02*
X-8378952Y-2752344D01*
X-8344408Y-2752344D01*
X-8309864Y-2786888D01*
X-8309864Y-2821432D01*
X-8344408Y-2855976D01*
X-8378952Y-2855976D01*
X-8413496Y-2821432D01*
X-8413496Y-2786888D01*
D17*
X-9138920Y-2057400D02*
X-8356600Y-2057400D01*
X-8356600Y-1021080D01*
X-9138920Y-1021080D01*
X-9138920Y-2057400D01*
D26*
X-8708898Y-1824228D02*
X-8708898Y-1901952D01*
X-8786622Y-1901952D01*
X-8786622Y-1824228D01*
X-8747760Y-1901952D02*
X-8747760Y-1850136D01*
X-8708898Y-1798320D02*
X-8786622Y-1798320D01*
X-8708898Y-1720596D01*
X-8786622Y-1720596D01*
X-8786622Y-1694688D02*
X-8786622Y-1616964D01*
X-8786622Y-1655826D02*
X-8708898Y-1655826D01*
X-8708898Y-1591056D02*
X-8786622Y-1591056D01*
X-8786622Y-1526286D01*
X-8773668Y-1513332D01*
X-8760714Y-1513332D01*
X-8747760Y-1526286D01*
X-8747760Y-1591056D01*
X-8747760Y-1526286D02*
X-8734806Y-1513332D01*
X-8708898Y-1513332D01*
X-8708898Y-1487424D02*
X-8760714Y-1487424D01*
X-8786622Y-1461516D01*
X-8786622Y-1435608D01*
X-8760714Y-1409700D01*
X-8708898Y-1409700D01*
X-8734806Y-1487424D02*
X-8734806Y-1409700D01*
X-8708898Y-1383792D02*
X-8786622Y-1383792D01*
X-8786622Y-1331976D01*
X-8760714Y-1306068D01*
X-8734806Y-1306068D01*
X-8708898Y-1331976D01*
X-8708898Y-1383792D01*
X-8708898Y-1280160D02*
X-8760714Y-1280160D01*
X-8786622Y-1254252D01*
X-8786622Y-1228344D01*
X-8760714Y-1202436D01*
X-8708898Y-1202436D01*
X-8734806Y-1280160D02*
X-8734806Y-1202436D01*
M02*
