G04 PROTEUS GERBER X2 FILE*
%TF.GenerationSoftware,Labcenter,Proteus,8.8-SP1-Build27031*%
%TF.CreationDate,2021-01-10T00:14:03+00:00*%
%TF.FileFunction,Soldermask,Top*%
%TF.FilePolarity,Negative*%
%TF.Part,Single*%
%TF.SameCoordinates,{98ac7ad0-3a1b-4910-adea-4d28a6190023}*%
%FSLAX45Y45*%
%MOMM*%
G01*
%TA.AperFunction,Material*%
%ADD18C,2.794000*%
%TA.AperFunction,Material*%
%ADD19C,2.540000*%
%AMPPAD010*
4,1,8,
-0.636800,1.397000,
0.636800,1.397000,
1.016000,1.017800,
1.016000,-1.017800,
0.636800,-1.397000,
-0.636800,-1.397000,
-1.016000,-1.017800,
-1.016000,1.017800,
-0.636800,1.397000,
0*%
%TA.AperFunction,Material*%
%ADD70PPAD010*%
%TA.AperFunction,Material*%
%ADD71C,3.810000*%
%TA.AperFunction,Profile*%
%ADD14C,0.203200*%
%TD.AperFunction*%
D18*
X-9017000Y+381000D03*
X-7817000Y+381000D03*
X-8417000Y+181000D03*
X-9017000Y+1601000D03*
X-7817000Y+1601000D03*
X-7112000Y+381000D03*
X-5912000Y+381000D03*
X-6512000Y+181000D03*
X-7112000Y+1601000D03*
X-5912000Y+1601000D03*
D19*
X-7985760Y-365760D03*
X-8747760Y-365760D03*
X-6078220Y-368300D03*
X-6840220Y-368300D03*
X-4201160Y-368300D03*
X-4963160Y-368300D03*
D18*
X-5207000Y+381000D03*
X-4007000Y+381000D03*
X-4607000Y+181000D03*
X-5207000Y+1601000D03*
X-4007000Y+1601000D03*
D70*
X-8074660Y-861060D03*
X-7820660Y-861060D03*
X-7566660Y-861060D03*
X-6680200Y-838200D03*
X-6426200Y-838200D03*
X-6172200Y-838200D03*
X-4711700Y-850900D03*
X-4457700Y-850900D03*
X-4203700Y-850900D03*
D19*
X-6426200Y-2222500D03*
X-6426200Y-1206500D03*
X-5334000Y-2209800D03*
X-5334000Y-1193800D03*
X-7607300Y-2222500D03*
X-7607300Y-1206500D03*
D71*
X-8686800Y+2679700D03*
X-8186420Y+2679700D03*
D70*
X-6761480Y-2743200D03*
X-6507480Y-2743200D03*
X-6253480Y-2743200D03*
D71*
X-6794500Y+2667000D03*
X-6294120Y+2667000D03*
X-4889500Y+2654300D03*
X-4389120Y+2654300D03*
D70*
X-8366760Y-2804160D03*
X-8867140Y-2804160D03*
D71*
X-8747760Y-1793240D03*
X-8747760Y-1292860D03*
D14*
X-9292760Y-3016620D02*
X-3718540Y-3016620D01*
X-3718540Y+3064140D01*
X-9292760Y+3064140D01*
X-9292760Y-3016620D01*
M02*
