G04 PROTEUS GERBER X2 FILE*
%TF.GenerationSoftware,Labcenter,Proteus,8.8-SP1-Build27031*%
%TF.CreationDate,2021-01-10T00:14:03+00:00*%
%TF.FileFunction,Copper,L2,Bot*%
%TF.FilePolarity,Positive*%
%TF.Part,Single*%
%TF.SameCoordinates,{98ac7ad0-3a1b-4910-adea-4d28a6190023}*%
%FSLAX45Y45*%
%MOMM*%
G01*
%TA.AperFunction,Conductor*%
%ADD15C,1.600200*%
%TA.AperFunction,ComponentPad*%
%ADD10C,2.540000*%
%TA.AperFunction,ComponentPad*%
%ADD11C,2.286000*%
%AMDIL002*
4,1,8,
-0.889000,0.965200,-0.584200,1.270000,0.584200,1.270000,0.889000,0.965200,0.889000,-0.965200,
0.584200,-1.270000,-0.584200,-1.270000,-0.889000,-0.965200,-0.889000,0.965200,
0*%
%TA.AperFunction,ComponentPad*%
%ADD12DIL002*%
%TA.AperFunction,ComponentPad*%
%ADD13C,3.048000*%
%TA.AperFunction,Profile*%
%ADD14C,0.203200*%
%TA.AperFunction,NonConductor*%
%ADD16C,0.063500*%
%TD.AperFunction*%
D15*
X-6426200Y-1206500D02*
X-6426200Y-838200D01*
X-6078220Y-368300D02*
X-6163310Y-453390D01*
X-6163310Y-838200D01*
X-6172200Y-838200D01*
X-5334000Y-1193800D02*
X-4457700Y-1193800D01*
X-4457700Y-850900D01*
X-4201160Y-368300D02*
X-4201160Y-127000D01*
X-4007000Y+67160D01*
X-4007000Y+381000D01*
X-4201160Y-368300D02*
X-4203700Y-370840D01*
X-4203700Y-850900D01*
X-5207000Y+381000D02*
X-4963160Y+137160D01*
X-4963160Y-368300D01*
X-7112000Y+381000D02*
X-6840220Y+109220D01*
X-6840220Y-368300D01*
X-6794500Y+2667000D02*
X-6794500Y+1587500D01*
X-6512000Y+1305000D01*
X-6512000Y+181000D01*
X-8686800Y+2679700D02*
X-8686800Y+1016000D01*
X-8417000Y+746200D01*
X-8417000Y+181000D01*
X-4607000Y+181000D02*
X-4607000Y+889000D01*
X-4889500Y+1171500D01*
X-4889500Y+2654300D01*
X-5912000Y+1601000D02*
X-6294120Y+1983120D01*
X-6294120Y+2667000D01*
X-8186420Y+2679700D02*
X-7817000Y+2310280D01*
X-7817000Y+1601000D01*
X-4007000Y+1601000D02*
X-4389120Y+1983120D01*
X-4389120Y+2654300D01*
X-6718300Y-1701800D02*
X-6718300Y-876300D01*
X-6680200Y-838200D01*
X-6718300Y-1701800D02*
X-6527800Y-1701800D01*
X-5676900Y-850900D01*
X-4711700Y-850900D01*
X-7985760Y-365760D02*
X-7861300Y-365760D01*
X-8747760Y-342900D02*
X-8400110Y-342900D01*
X-8109421Y-52211D01*
X-8109421Y+547510D01*
X-7894814Y+762117D01*
X-7891874Y+765057D01*
X-7177500Y+765057D01*
X-7177500Y+446500D01*
X-7112000Y+381000D01*
X-8747760Y-365760D02*
X-8747760Y-342900D01*
X-8747760Y+111760D01*
X-9017000Y+381000D01*
X-6078220Y-368300D02*
X-6037580Y-327660D01*
X-5953760Y-327660D01*
X-5912000Y-285900D01*
X-5912000Y+381000D01*
X-6840220Y-368300D02*
X-6598920Y-127000D01*
X-6299200Y-127000D01*
X-6223000Y-50800D01*
X-6223000Y+635000D01*
X-6032500Y+825500D01*
X-5651500Y+825500D01*
X-5207000Y+381000D01*
X-6426200Y-2222500D02*
X-6494780Y-2222500D01*
X-6507480Y-2235200D01*
X-6507480Y-2743200D01*
X-6761480Y-2743200D02*
X-7282180Y-2222500D01*
X-7607300Y-2222500D01*
X-5334000Y-2209800D02*
X-5339080Y-2204720D01*
X-5715000Y-2204720D01*
X-6253480Y-2743200D01*
X-7607300Y-1206500D02*
X-7820660Y-1206500D01*
X-7820660Y-861060D01*
X-7861300Y-365760D02*
X-7833360Y-365760D01*
X-7604760Y-365760D01*
X-7510780Y-459740D01*
X-7510780Y-861060D01*
X-7566660Y-861060D01*
X-7833360Y-365760D02*
X-7817000Y-349400D01*
X-7817000Y+381000D01*
X-8366760Y-2804160D02*
X-8366760Y-2174240D01*
X-8747760Y-1793240D01*
X-8077373Y-1122853D01*
X-8074660Y-1120140D01*
X-8074660Y-861060D01*
X-6718300Y-1701800D02*
X-6858000Y-1841500D01*
X-8084820Y-1841500D01*
X-8077373Y-1122853D01*
X-8074660Y-861060D01*
X-8867140Y-2804160D02*
X-9112673Y-2558627D01*
X-9112673Y-1304431D01*
X-9101102Y-1292860D01*
X-8747760Y-1292860D01*
X-8747760Y-480060D01*
X-8747760Y-365760D01*
D10*
X-9017000Y+381000D03*
X-7817000Y+381000D03*
X-8417000Y+181000D03*
X-9017000Y+1601000D03*
X-7817000Y+1601000D03*
X-7112000Y+381000D03*
X-5912000Y+381000D03*
X-6512000Y+181000D03*
X-7112000Y+1601000D03*
X-5912000Y+1601000D03*
D11*
X-7985760Y-365760D03*
X-8747760Y-365760D03*
X-6078220Y-368300D03*
X-6840220Y-368300D03*
X-4201160Y-368300D03*
X-4963160Y-368300D03*
D10*
X-5207000Y+381000D03*
X-4007000Y+381000D03*
X-4607000Y+181000D03*
X-5207000Y+1601000D03*
X-4007000Y+1601000D03*
D12*
X-8074660Y-861060D03*
X-7820660Y-861060D03*
X-7566660Y-861060D03*
X-6680200Y-838200D03*
X-6426200Y-838200D03*
X-6172200Y-838200D03*
X-4711700Y-850900D03*
X-4457700Y-850900D03*
X-4203700Y-850900D03*
D11*
X-6426200Y-2222500D03*
X-6426200Y-1206500D03*
X-5334000Y-2209800D03*
X-5334000Y-1193800D03*
X-7607300Y-2222500D03*
X-7607300Y-1206500D03*
D13*
X-8686800Y+2679700D03*
X-8186420Y+2679700D03*
D12*
X-6761480Y-2743200D03*
X-6507480Y-2743200D03*
X-6253480Y-2743200D03*
D13*
X-6794500Y+2667000D03*
X-6294120Y+2667000D03*
X-4889500Y+2654300D03*
X-4389120Y+2654300D03*
D12*
X-8366760Y-2804160D03*
X-8867140Y-2804160D03*
D13*
X-8747760Y-1793240D03*
X-8747760Y-1292860D03*
D14*
X-9292760Y-3016620D02*
X-3718540Y-3016620D01*
X-3718540Y+3064140D01*
X-9292760Y+3064140D01*
X-9292760Y-3016620D01*
D16*
X-4660281Y-1785620D02*
X-4639961Y-1785620D01*
X-4670441Y-1780540D02*
X-4660281Y-1780540D01*
X-4645041Y-1780540D02*
X-4634881Y-1780540D01*
X-4675521Y-1775460D02*
X-4665361Y-1775460D01*
X-4639961Y-1775460D02*
X-4634881Y-1775460D01*
X-4680601Y-1770380D02*
X-4670441Y-1770380D01*
X-4650121Y-1770380D02*
X-4634881Y-1770380D01*
X-4690761Y-1765300D02*
X-4680601Y-1765300D01*
X-4650121Y-1765300D02*
X-4634881Y-1765300D01*
X-4690761Y-1760220D02*
X-4680601Y-1760220D01*
X-4695841Y-1755140D02*
X-4685681Y-1755140D01*
X-4695841Y-1750060D02*
X-4685681Y-1750060D01*
X-4700921Y-1744980D02*
X-4685681Y-1744980D01*
X-4700921Y-1739900D02*
X-4690761Y-1739900D01*
X-4706001Y-1734820D02*
X-4690761Y-1734820D01*
X-4706001Y-1729740D02*
X-4690761Y-1729740D01*
X-4822841Y-1724660D02*
X-4792361Y-1724660D01*
X-4766961Y-1724660D02*
X-4746641Y-1724660D01*
X-4706001Y-1724660D02*
X-4695841Y-1724660D01*
X-4599321Y-1724660D02*
X-4589161Y-1724660D01*
X-4873641Y-1719580D02*
X-4848241Y-1719580D01*
X-4827921Y-1719580D02*
X-4817761Y-1719580D01*
X-4797441Y-1719580D02*
X-4787281Y-1719580D01*
X-4772041Y-1719580D02*
X-4766961Y-1719580D01*
X-4751721Y-1719580D02*
X-4741561Y-1719580D01*
X-4711081Y-1719580D02*
X-4685681Y-1719580D01*
X-4634881Y-1719580D02*
X-4609481Y-1719580D01*
X-4604401Y-1719580D02*
X-4589161Y-1719580D01*
X-4568841Y-1719580D02*
X-4553601Y-1719580D01*
X-4883801Y-1714500D02*
X-4873641Y-1714500D01*
X-4853321Y-1714500D02*
X-4843161Y-1714500D01*
X-4833001Y-1714500D02*
X-4827921Y-1714500D01*
X-4797441Y-1714500D02*
X-4787281Y-1714500D01*
X-4777121Y-1714500D02*
X-4772041Y-1714500D01*
X-4751721Y-1714500D02*
X-4741561Y-1714500D01*
X-4711081Y-1714500D02*
X-4706001Y-1714500D01*
X-4695841Y-1714500D02*
X-4680601Y-1714500D01*
X-4639961Y-1714500D02*
X-4629801Y-1714500D01*
X-4614561Y-1714500D02*
X-4594241Y-1714500D01*
X-4573921Y-1714500D02*
X-4548521Y-1714500D01*
X-4883801Y-1709420D02*
X-4878721Y-1709420D01*
X-4848241Y-1709420D02*
X-4843161Y-1709420D01*
X-4797441Y-1709420D02*
X-4787281Y-1709420D01*
X-4777121Y-1709420D02*
X-4772041Y-1709420D01*
X-4756801Y-1709420D02*
X-4741561Y-1709420D01*
X-4716161Y-1709420D02*
X-4711081Y-1709420D01*
X-4690761Y-1709420D02*
X-4675521Y-1709420D01*
X-4645041Y-1709420D02*
X-4634881Y-1709420D01*
X-4614561Y-1709420D02*
X-4599321Y-1709420D01*
X-4579001Y-1709420D02*
X-4568841Y-1709420D01*
X-4558681Y-1709420D02*
X-4538361Y-1709420D01*
X-4888881Y-1704340D02*
X-4878721Y-1704340D01*
X-4863481Y-1704340D02*
X-4853321Y-1704340D01*
X-4848241Y-1704340D02*
X-4843161Y-1704340D01*
X-4797441Y-1704340D02*
X-4787281Y-1704340D01*
X-4782201Y-1704340D02*
X-4772041Y-1704340D01*
X-4756801Y-1704340D02*
X-4746641Y-1704340D01*
X-4716161Y-1704340D02*
X-4711081Y-1704340D01*
X-4690761Y-1704340D02*
X-4675521Y-1704340D01*
X-4645041Y-1704340D02*
X-4639961Y-1704340D01*
X-4614561Y-1704340D02*
X-4599321Y-1704340D01*
X-4584081Y-1704340D02*
X-4573921Y-1704340D01*
X-4553601Y-1704340D02*
X-4538361Y-1704340D01*
X-4893961Y-1699260D02*
X-4878721Y-1699260D01*
X-4863481Y-1699260D02*
X-4848241Y-1699260D01*
X-4833001Y-1699260D02*
X-4807601Y-1699260D01*
X-4802521Y-1699260D02*
X-4787281Y-1699260D01*
X-4782201Y-1699260D02*
X-4777121Y-1699260D01*
X-4761881Y-1699260D02*
X-4746641Y-1699260D01*
X-4721241Y-1699260D02*
X-4716161Y-1699260D01*
X-4695841Y-1699260D02*
X-4675521Y-1699260D01*
X-4650121Y-1699260D02*
X-4639961Y-1699260D01*
X-4614561Y-1699260D02*
X-4604401Y-1699260D01*
X-4584081Y-1699260D02*
X-4579001Y-1699260D01*
X-4548521Y-1699260D02*
X-4533281Y-1699260D01*
X-4893961Y-1694180D02*
X-4868561Y-1694180D01*
X-4858401Y-1694180D02*
X-4848241Y-1694180D01*
X-4838081Y-1694180D02*
X-4827921Y-1694180D01*
X-4807601Y-1694180D02*
X-4792361Y-1694180D01*
X-4761881Y-1694180D02*
X-4746641Y-1694180D01*
X-4721241Y-1694180D02*
X-4716161Y-1694180D01*
X-4695841Y-1694180D02*
X-4680601Y-1694180D01*
X-4650121Y-1694180D02*
X-4645041Y-1694180D01*
X-4619641Y-1694180D02*
X-4604401Y-1694180D01*
X-4589161Y-1694180D02*
X-4579001Y-1694180D01*
X-4548521Y-1694180D02*
X-4533281Y-1694180D01*
X-4888881Y-1689100D02*
X-4863481Y-1689100D01*
X-4838081Y-1689100D02*
X-4827921Y-1689100D01*
X-4802521Y-1689100D02*
X-4792361Y-1689100D01*
X-4761881Y-1689100D02*
X-4751721Y-1689100D01*
X-4726321Y-1689100D02*
X-4721241Y-1689100D01*
X-4695841Y-1689100D02*
X-4685681Y-1689100D01*
X-4650121Y-1689100D02*
X-4645041Y-1689100D01*
X-4619641Y-1689100D02*
X-4604401Y-1689100D01*
X-4589161Y-1689100D02*
X-4579001Y-1689100D01*
X-4543441Y-1689100D02*
X-4533281Y-1689100D01*
X-4883801Y-1684020D02*
X-4863481Y-1684020D01*
X-4838081Y-1684020D02*
X-4827921Y-1684020D01*
X-4807601Y-1684020D02*
X-4792361Y-1684020D01*
X-4766961Y-1684020D02*
X-4751721Y-1684020D01*
X-4726321Y-1684020D02*
X-4721241Y-1684020D01*
X-4700921Y-1684020D02*
X-4685681Y-1684020D01*
X-4675521Y-1684020D02*
X-4665361Y-1684020D01*
X-4655201Y-1684020D02*
X-4645041Y-1684020D01*
X-4624721Y-1684020D02*
X-4609481Y-1684020D01*
X-4589161Y-1684020D02*
X-4568841Y-1684020D01*
X-4543441Y-1684020D02*
X-4533281Y-1684020D01*
X-4904121Y-1678940D02*
X-4893961Y-1678940D01*
X-4878721Y-1678940D02*
X-4868561Y-1678940D01*
X-4838081Y-1678940D02*
X-4822841Y-1678940D01*
X-4807601Y-1678940D02*
X-4797441Y-1678940D01*
X-4766961Y-1678940D02*
X-4751721Y-1678940D01*
X-4731401Y-1678940D02*
X-4726321Y-1678940D01*
X-4700921Y-1678940D02*
X-4685681Y-1678940D01*
X-4680601Y-1678940D02*
X-4675521Y-1678940D01*
X-4655201Y-1678940D02*
X-4645041Y-1678940D01*
X-4634881Y-1678940D02*
X-4614561Y-1678940D01*
X-4584081Y-1678940D02*
X-4568841Y-1678940D01*
X-4543441Y-1678940D02*
X-4538361Y-1678940D01*
X-4904121Y-1673860D02*
X-4893961Y-1673860D01*
X-4878721Y-1673860D02*
X-4868561Y-1673860D01*
X-4827921Y-1673860D02*
X-4802521Y-1673860D01*
X-4766961Y-1673860D02*
X-4756801Y-1673860D01*
X-4751721Y-1673860D02*
X-4726321Y-1673860D01*
X-4700921Y-1673860D02*
X-4680601Y-1673860D01*
X-4660281Y-1673860D02*
X-4634881Y-1673860D01*
X-4624721Y-1673860D02*
X-4614561Y-1673860D01*
X-4573921Y-1673860D02*
X-4568841Y-1673860D01*
X-4553601Y-1673860D02*
X-4543441Y-1673860D01*
X-4899041Y-1668780D02*
X-4873641Y-1668780D01*
X-4787281Y-1668780D02*
X-4746641Y-1668780D01*
X-4660281Y-1668780D02*
X-4645041Y-1668780D01*
X-4624721Y-1668780D02*
X-4614561Y-1668780D01*
X-4573921Y-1668780D02*
X-4553601Y-1668780D01*
X-4766961Y-1663700D02*
X-4756801Y-1663700D01*
X-4629801Y-1663700D02*
X-4619641Y-1663700D01*
X-4563761Y-1663700D02*
X-4558681Y-1663700D01*
X-4772041Y-1658620D02*
X-4761881Y-1658620D01*
X-4629801Y-1658620D02*
X-4619641Y-1658620D01*
X-4777121Y-1653540D02*
X-4772041Y-1653540D01*
X-4634881Y-1653540D02*
X-4624721Y-1653540D01*
X-4634881Y-1648460D02*
X-4624721Y-1648460D01*
X-4634881Y-1643380D02*
X-4624721Y-1643380D01*
X-4675521Y-1638300D02*
X-4660281Y-1638300D01*
X-4639961Y-1638300D02*
X-4624721Y-1638300D01*
X-4680601Y-1633220D02*
X-4634881Y-1633220D01*
X-4680601Y-1628140D02*
X-4675521Y-1628140D01*
X-4913586Y-1925320D02*
X-4893266Y-1925320D01*
X-4923746Y-1920240D02*
X-4913586Y-1920240D01*
X-4898346Y-1920240D02*
X-4888186Y-1920240D01*
X-4928826Y-1915160D02*
X-4918666Y-1915160D01*
X-4893266Y-1915160D02*
X-4888186Y-1915160D01*
X-4933906Y-1910080D02*
X-4923746Y-1910080D01*
X-4903426Y-1910080D02*
X-4888186Y-1910080D01*
X-4944066Y-1905000D02*
X-4933906Y-1905000D01*
X-4903426Y-1905000D02*
X-4888186Y-1905000D01*
X-4944066Y-1899920D02*
X-4933906Y-1899920D01*
X-4949146Y-1894840D02*
X-4938986Y-1894840D01*
X-4949146Y-1889760D02*
X-4938986Y-1889760D01*
X-4954226Y-1884680D02*
X-4938986Y-1884680D01*
X-4954226Y-1879600D02*
X-4944066Y-1879600D01*
X-4959306Y-1874520D02*
X-4944066Y-1874520D01*
X-4959306Y-1869440D02*
X-4944066Y-1869440D01*
X-4959306Y-1864360D02*
X-4949146Y-1864360D01*
X-4893266Y-1864360D02*
X-4872946Y-1864360D01*
X-4603706Y-1864360D02*
X-4573226Y-1864360D01*
X-4522426Y-1864360D02*
X-4497026Y-1864360D01*
X-4964386Y-1859280D02*
X-4938986Y-1859280D01*
X-4898346Y-1859280D02*
X-4893266Y-1859280D01*
X-4878026Y-1859280D02*
X-4867866Y-1859280D01*
X-4847546Y-1859280D02*
X-4827226Y-1859280D01*
X-4776426Y-1859280D02*
X-4761186Y-1859280D01*
X-4745946Y-1859280D02*
X-4725626Y-1859280D01*
X-4710386Y-1859280D02*
X-4700226Y-1859280D01*
X-4659586Y-1859280D02*
X-4639266Y-1859280D01*
X-4608786Y-1859280D02*
X-4598626Y-1859280D01*
X-4578306Y-1859280D02*
X-4568146Y-1859280D01*
X-4532586Y-1859280D02*
X-4486866Y-1859280D01*
X-4964386Y-1854200D02*
X-4959306Y-1854200D01*
X-4949146Y-1854200D02*
X-4933906Y-1854200D01*
X-4903426Y-1854200D02*
X-4898346Y-1854200D01*
X-4878026Y-1854200D02*
X-4867866Y-1854200D01*
X-4857706Y-1854200D02*
X-4847546Y-1854200D01*
X-4837386Y-1854200D02*
X-4822146Y-1854200D01*
X-4776426Y-1854200D02*
X-4766266Y-1854200D01*
X-4751026Y-1854200D02*
X-4725626Y-1854200D01*
X-4715466Y-1854200D02*
X-4710386Y-1854200D01*
X-4705306Y-1854200D02*
X-4690066Y-1854200D01*
X-4669746Y-1854200D02*
X-4659586Y-1854200D01*
X-4644346Y-1854200D02*
X-4639266Y-1854200D01*
X-4613866Y-1854200D02*
X-4608786Y-1854200D01*
X-4578306Y-1854200D02*
X-4568146Y-1854200D01*
X-4542746Y-1854200D02*
X-4527506Y-1854200D01*
X-4491946Y-1854200D02*
X-4476706Y-1854200D01*
X-4969466Y-1849120D02*
X-4964386Y-1849120D01*
X-4944066Y-1849120D02*
X-4928826Y-1849120D01*
X-4903426Y-1849120D02*
X-4898346Y-1849120D01*
X-4883106Y-1849120D02*
X-4867866Y-1849120D01*
X-4837386Y-1849120D02*
X-4822146Y-1849120D01*
X-4776426Y-1849120D02*
X-4766266Y-1849120D01*
X-4756106Y-1849120D02*
X-4745946Y-1849120D01*
X-4740866Y-1849120D02*
X-4715466Y-1849120D01*
X-4700226Y-1849120D02*
X-4690066Y-1849120D01*
X-4674826Y-1849120D02*
X-4664666Y-1849120D01*
X-4639266Y-1849120D02*
X-4634186Y-1849120D01*
X-4578306Y-1849120D02*
X-4568146Y-1849120D01*
X-4547826Y-1849120D02*
X-4532586Y-1849120D01*
X-4481786Y-1849120D02*
X-4471626Y-1849120D01*
X-4969466Y-1844040D02*
X-4964386Y-1844040D01*
X-4944066Y-1844040D02*
X-4928826Y-1844040D01*
X-4908506Y-1844040D02*
X-4898346Y-1844040D01*
X-4883106Y-1844040D02*
X-4872946Y-1844040D01*
X-4837386Y-1844040D02*
X-4827226Y-1844040D01*
X-4781506Y-1844040D02*
X-4771346Y-1844040D01*
X-4761186Y-1844040D02*
X-4756106Y-1844040D01*
X-4740866Y-1844040D02*
X-4720546Y-1844040D01*
X-4700226Y-1844040D02*
X-4690066Y-1844040D01*
X-4639266Y-1844040D02*
X-4629106Y-1844040D01*
X-4578306Y-1844040D02*
X-4568146Y-1844040D01*
X-4552906Y-1844040D02*
X-4537666Y-1844040D01*
X-4476706Y-1844040D02*
X-4471626Y-1844040D01*
X-4974546Y-1838960D02*
X-4969466Y-1838960D01*
X-4949146Y-1838960D02*
X-4928826Y-1838960D01*
X-4908506Y-1838960D02*
X-4903426Y-1838960D01*
X-4888186Y-1838960D02*
X-4872946Y-1838960D01*
X-4842466Y-1838960D02*
X-4827226Y-1838960D01*
X-4781506Y-1838960D02*
X-4776426Y-1838960D01*
X-4745946Y-1838960D02*
X-4725626Y-1838960D01*
X-4700226Y-1838960D02*
X-4690066Y-1838960D01*
X-4644346Y-1838960D02*
X-4629106Y-1838960D01*
X-4613866Y-1838960D02*
X-4588466Y-1838960D01*
X-4583386Y-1838960D02*
X-4568146Y-1838960D01*
X-4552906Y-1838960D02*
X-4537666Y-1838960D01*
X-4512266Y-1838960D02*
X-4491946Y-1838960D01*
X-4476706Y-1838960D02*
X-4471626Y-1838960D01*
X-4974546Y-1833880D02*
X-4969466Y-1833880D01*
X-4949146Y-1833880D02*
X-4933906Y-1833880D01*
X-4888186Y-1833880D02*
X-4872946Y-1833880D01*
X-4842466Y-1833880D02*
X-4832306Y-1833880D01*
X-4786586Y-1833880D02*
X-4776426Y-1833880D01*
X-4745946Y-1833880D02*
X-4730706Y-1833880D01*
X-4705306Y-1833880D02*
X-4690066Y-1833880D01*
X-4644346Y-1833880D02*
X-4629106Y-1833880D01*
X-4618946Y-1833880D02*
X-4608786Y-1833880D01*
X-4588466Y-1833880D02*
X-4573226Y-1833880D01*
X-4557986Y-1833880D02*
X-4542746Y-1833880D01*
X-4517346Y-1833880D02*
X-4512266Y-1833880D01*
X-4497026Y-1833880D02*
X-4486866Y-1833880D01*
X-4481786Y-1833880D02*
X-4471626Y-1833880D01*
X-4979626Y-1828800D02*
X-4974546Y-1828800D01*
X-4949146Y-1828800D02*
X-4938986Y-1828800D01*
X-4888186Y-1828800D02*
X-4878026Y-1828800D01*
X-4842466Y-1828800D02*
X-4832306Y-1828800D01*
X-4786586Y-1828800D02*
X-4776426Y-1828800D01*
X-4745946Y-1828800D02*
X-4735786Y-1828800D01*
X-4705306Y-1828800D02*
X-4695146Y-1828800D01*
X-4649426Y-1828800D02*
X-4634186Y-1828800D01*
X-4618946Y-1828800D02*
X-4608786Y-1828800D01*
X-4583386Y-1828800D02*
X-4573226Y-1828800D01*
X-4557986Y-1828800D02*
X-4542746Y-1828800D01*
X-4522426Y-1828800D02*
X-4512266Y-1828800D01*
X-4497026Y-1828800D02*
X-4486866Y-1828800D01*
X-4481786Y-1828800D02*
X-4476706Y-1828800D01*
X-4979626Y-1823720D02*
X-4974546Y-1823720D01*
X-4954226Y-1823720D02*
X-4938986Y-1823720D01*
X-4928826Y-1823720D02*
X-4918666Y-1823720D01*
X-4893266Y-1823720D02*
X-4878026Y-1823720D01*
X-4852626Y-1823720D02*
X-4832306Y-1823720D01*
X-4817066Y-1823720D02*
X-4801826Y-1823720D01*
X-4791666Y-1823720D02*
X-4781506Y-1823720D01*
X-4751026Y-1823720D02*
X-4735786Y-1823720D01*
X-4710386Y-1823720D02*
X-4695146Y-1823720D01*
X-4684986Y-1823720D02*
X-4669746Y-1823720D01*
X-4649426Y-1823720D02*
X-4639266Y-1823720D01*
X-4618946Y-1823720D02*
X-4608786Y-1823720D01*
X-4588466Y-1823720D02*
X-4573226Y-1823720D01*
X-4557986Y-1823720D02*
X-4542746Y-1823720D01*
X-4527506Y-1823720D02*
X-4512266Y-1823720D01*
X-4486866Y-1823720D02*
X-4481786Y-1823720D01*
X-4984706Y-1818640D02*
X-4979626Y-1818640D01*
X-4954226Y-1818640D02*
X-4938986Y-1818640D01*
X-4933906Y-1818640D02*
X-4928826Y-1818640D01*
X-4893266Y-1818640D02*
X-4878026Y-1818640D01*
X-4852626Y-1818640D02*
X-4837386Y-1818640D01*
X-4827226Y-1818640D02*
X-4817066Y-1818640D01*
X-4811986Y-1818640D02*
X-4791666Y-1818640D01*
X-4786586Y-1818640D02*
X-4766266Y-1818640D01*
X-4751026Y-1818640D02*
X-4740866Y-1818640D01*
X-4710386Y-1818640D02*
X-4690066Y-1818640D01*
X-4684986Y-1818640D02*
X-4644346Y-1818640D01*
X-4618946Y-1818640D02*
X-4603706Y-1818640D01*
X-4588466Y-1818640D02*
X-4578306Y-1818640D01*
X-4557986Y-1818640D02*
X-4542746Y-1818640D01*
X-4527506Y-1818640D02*
X-4512266Y-1818640D01*
X-4497026Y-1818640D02*
X-4486866Y-1818640D01*
X-4994866Y-1813560D02*
X-4979626Y-1813560D01*
X-4954226Y-1813560D02*
X-4933906Y-1813560D01*
X-4893266Y-1813560D02*
X-4883106Y-1813560D01*
X-4878026Y-1813560D02*
X-4862786Y-1813560D01*
X-4852626Y-1813560D02*
X-4827226Y-1813560D01*
X-4806906Y-1813560D02*
X-4796746Y-1813560D01*
X-4786586Y-1813560D02*
X-4776426Y-1813560D01*
X-4751026Y-1813560D02*
X-4740866Y-1813560D01*
X-4715466Y-1813560D02*
X-4705306Y-1813560D01*
X-4669746Y-1813560D02*
X-4649426Y-1813560D01*
X-4608786Y-1813560D02*
X-4583386Y-1813560D01*
X-4557986Y-1813560D02*
X-4542746Y-1813560D01*
X-4527506Y-1813560D02*
X-4517346Y-1813560D01*
X-4502106Y-1813560D02*
X-4491946Y-1813560D01*
X-4913586Y-1808480D02*
X-4872946Y-1808480D01*
X-4557986Y-1808480D02*
X-4542746Y-1808480D01*
X-4522426Y-1808480D02*
X-4497026Y-1808480D01*
X-4893266Y-1803400D02*
X-4883106Y-1803400D01*
X-4552906Y-1803400D02*
X-4537666Y-1803400D01*
X-4898346Y-1798320D02*
X-4888186Y-1798320D01*
X-4852626Y-1798320D02*
X-4847546Y-1798320D01*
X-4547826Y-1798320D02*
X-4537666Y-1798320D01*
X-4903426Y-1793240D02*
X-4898346Y-1793240D01*
X-4857706Y-1793240D02*
X-4847546Y-1793240D01*
X-4547826Y-1793240D02*
X-4532586Y-1793240D01*
X-4857706Y-1788160D02*
X-4847546Y-1788160D01*
X-4547826Y-1788160D02*
X-4532586Y-1788160D01*
X-4862786Y-1783080D02*
X-4847546Y-1783080D01*
X-4542746Y-1783080D02*
X-4527506Y-1783080D01*
X-4862786Y-1778000D02*
X-4852626Y-1778000D01*
X-4542746Y-1778000D02*
X-4527506Y-1778000D01*
X-4542746Y-1772920D02*
X-4522426Y-1772920D01*
X-4537666Y-1767840D02*
X-4517346Y-1767840D01*
X-4491946Y-1767840D02*
X-4466546Y-1767840D01*
X-4563066Y-1762760D02*
X-4537666Y-1762760D01*
X-4532586Y-1762760D02*
X-4517346Y-1762760D01*
X-4507186Y-1762760D02*
X-4491946Y-1762760D01*
X-4466546Y-1762760D02*
X-4446226Y-1762760D01*
X-4568146Y-1757680D02*
X-4557986Y-1757680D01*
X-4542746Y-1757680D02*
X-4507186Y-1757680D01*
X-4451306Y-1757680D02*
X-4446226Y-1757680D01*
X-4568146Y-1752600D02*
X-4563066Y-1752600D01*
X-4527506Y-1752600D02*
X-4512266Y-1752600D01*
X-4476706Y-1752600D02*
X-4466546Y-1752600D01*
X-4451306Y-1752600D02*
X-4446226Y-1752600D01*
X-4563066Y-1747520D02*
X-4557986Y-1747520D01*
X-4537666Y-1747520D02*
X-4517346Y-1747520D01*
X-4481786Y-1747520D02*
X-4451306Y-1747520D01*
X-4557986Y-1742440D02*
X-4532586Y-1742440D01*
M02*
