  0
SECTION
  2
HEADER
  9
$ACADVER
  1
AC1009
  9
$INSUNITS
 70
     1
  0
ENDSEC
  0
SECTION
  2
TABLES
  0
TABLE
  2
LAYER
 70
     8
  0
LAYER
  2
0
 62
     7
 70
0
  6
CONTINUOUS
  0
LAYER
  2
1
 62
     1
 70
0
  6
CONTINUOUS
  0
LAYER
  2
2
 62
     2
 70
0
  6
CONTINUOUS
  0
LAYER
  2
3
 62
     3
 70
0
  6
CONTINUOUS
  0
LAYER
  2
4
 62
     4
 70
0
  6
CONTINUOUS
  0
LAYER
  2
5
 62
     5
 70
0
  6
CONTINUOUS
  0
LAYER
  2
6
 62
     6
 70
0
  6
CONTINUOUS
  0
LAYER
  2
7
 62
     7
 70
0
  6
CONTINUOUS
  0
ENDTAB
  0
TABLE
  2
STYLE
 70
     1
  0
STYLE
 70
     0
  2
STANDARD
  3
TXT
 40
0.00
 41
1.00
 42
1.00
 50
0.00
 71
     0
  0
ENDTAB
  0
ENDSEC
  0
SECTION
  2
BLOCKS
  0
BLOCK
  8
0
  2
EPAD
 70
0
 10
0.0
 20
0.0
  0
POLYLINE
  8
0
 66
1
 70
1
 40
0.5
 41
0.5
  0
VERTEX
  8
0
 10
-0.25
 20
0.0
 42
1.0
  0
VERTEX
  8
0
 10
0.25
 20
0.0
 42
1.0
  0
SEQEND
  8
0
  0
ENDBLK
  8
0
  0
BLOCK
  8
0
  2
RPAD
 70
0
 10
0.0
 20
0.0
  0
TRACE
  8
0
 10
-0.5
 20
-0.5
 11
-0.5
 21
0.5
 12
0.5
 22
-0.5
 13
0.5
 23
0.5
  0
ENDBLK
  8
0
  0
ENDSEC
0
SECTION
2
ENTITIES
0
POLYLINE
8
0
66
1
70
1
40
0
41
0
0
VERTEX
8
0
10
0.057468
20
0.792378
0
VERTEX
8
0
10
0.057468
20
0.742236
0
VERTEX
8
0
10
0.042539
20
0.727307
0
VERTEX
8
0
10
-0.037603
20
0.727307
0
VERTEX
8
0
10
-0.052532
20
0.742236
0
VERTEX
8
0
10
-0.052532
20
0.792378
0
VERTEX
8
0
10
-0.037603
20
0.807307
0
VERTEX
8
0
10
0.042539
20
0.807307
0
VERTEX
8
0
10
0.057468
20
0.792378
0
SEQEND
8
0
0
POLYLINE
8
0
66
1
70
1
40
0
41
0
0
VERTEX
8
0
10
0.057468
20
0.892378
0
VERTEX
8
0
10
0.057468
20
0.842236
0
VERTEX
8
0
10
0.042539
20
0.827307
0
VERTEX
8
0
10
-0.037603
20
0.827307
0
VERTEX
8
0
10
-0.052532
20
0.842236
0
VERTEX
8
0
10
-0.052532
20
0.892378
0
VERTEX
8
0
10
-0.037603
20
0.907307
0
VERTEX
8
0
10
0.042539
20
0.907307
0
VERTEX
8
0
10
0.057468
20
0.892378
0
SEQEND
8
0
0
POLYLINE
8
0
66
1
70
1
40
0
41
0
0
VERTEX
8
0
10
0.057468
20
0.992378
0
VERTEX
8
0
10
0.057468
20
0.942236
0
VERTEX
8
0
10
0.042539
20
0.927307
0
VERTEX
8
0
10
-0.037603
20
0.927307
0
VERTEX
8
0
10
-0.052532
20
0.942236
0
VERTEX
8
0
10
-0.052532
20
0.992378
0
VERTEX
8
0
10
-0.037603
20
1.007307
0
VERTEX
8
0
10
0.042539
20
1.007307
0
VERTEX
8
0
10
0.057468
20
0.992378
0
SEQEND
8
0
0
INSERT
8
0
2
EPAD
10
0.201775
20
0.879992
41
0.080000
42
0.080000
0
INSERT
8
0
2
EPAD
10
0.201775
20
0.479992
41
0.080000
42
0.080000
0
INSERT
8
0
2
EPAD
10
0.201854
20
0.328291
41
0.080000
42
0.080000
0
INSERT
8
0
2
EPAD
10
0.601854
20
0.328291
41
0.080000
42
0.080000
0
INSERT
8
0
2
EPAD
10
0.777444
20
0.536126
41
0.090000
42
0.090000
0
INSERT
8
0
2
EPAD
10
0.777444
20
0.436126
41
0.090000
42
0.090000
0
INSERT
8
0
2
EPAD
10
-0.040272
20
0.338212
41
0.090000
42
0.090000
0
INSERT
8
0
2
EPAD
10
-0.040272
20
0.238212
41
0.090000
42
0.090000
0
INSERT
8
0
2
EPAD
10
-0.770230
20
0.391480
41
0.150000
42
0.150000
0
INSERT
8
0
2
EPAD
10
-0.770230
20
0.194480
41
0.150000
42
0.150000
0
POLYLINE
8
0
66
1
70
1
40
0
41
0
0
VERTEX
8
0
10
-0.861209
20
-0.644150
0
VERTEX
8
0
10
-0.811068
20
-0.644150
0
VERTEX
8
0
10
-0.796139
20
-0.659079
0
VERTEX
8
0
10
-0.796139
20
-0.739221
0
VERTEX
8
0
10
-0.811068
20
-0.754150
0
VERTEX
8
0
10
-0.861209
20
-0.754150
0
VERTEX
8
0
10
-0.876139
20
-0.739221
0
VERTEX
8
0
10
-0.876139
20
-0.659079
0
VERTEX
8
0
10
-0.861209
20
-0.644150
0
SEQEND
8
0
0
POLYLINE
8
0
66
1
70
1
40
0
41
0
0
VERTEX
8
0
10
-0.761209
20
-0.644150
0
VERTEX
8
0
10
-0.711068
20
-0.644150
0
VERTEX
8
0
10
-0.696139
20
-0.659079
0
VERTEX
8
0
10
-0.696139
20
-0.739221
0
VERTEX
8
0
10
-0.711068
20
-0.754150
0
VERTEX
8
0
10
-0.761209
20
-0.754150
0
VERTEX
8
0
10
-0.776139
20
-0.739221
0
VERTEX
8
0
10
-0.776139
20
-0.659079
0
VERTEX
8
0
10
-0.761209
20
-0.644150
0
SEQEND
8
0
0
POLYLINE
8
0
66
1
70
1
40
0
41
0
0
VERTEX
8
0
10
-0.656209
20
-0.644150
0
VERTEX
8
0
10
-0.606068
20
-0.644150
0
VERTEX
8
0
10
-0.591139
20
-0.659079
0
VERTEX
8
0
10
-0.591139
20
-0.739221
0
VERTEX
8
0
10
-0.606068
20
-0.754150
0
VERTEX
8
0
10
-0.656209
20
-0.754150
0
VERTEX
8
0
10
-0.671139
20
-0.739221
0
VERTEX
8
0
10
-0.671139
20
-0.659079
0
VERTEX
8
0
10
-0.656209
20
-0.644150
0
SEQEND
8
0
0
INSERT
8
0
2
EPAD
10
-0.536926
20
-0.919622
41
0.090000
42
0.090000
0
INSERT
8
0
2
EPAD
10
-0.536926
20
-1.019622
41
0.090000
42
0.090000
0
INSERT
8
0
2
EPAD
10
-0.733776
20
-0.903874
41
0.090000
42
0.090000
0
INSERT
8
0
2
EPAD
10
-0.833776
20
-0.903874
41
0.090000
42
0.090000
0
POLYLINE
8
0
66
1
70
1
40
0
41
0
0
VERTEX
8
0
10
0.044058
20
-0.793016
0
VERTEX
8
0
10
0.044058
20
-0.747016
0
VERTEX
8
0
10
0.044297
20
-0.744563
0
VERTEX
8
0
10
0.044984
20
-0.742293
0
VERTEX
8
0
10
0.046075
20
-0.740253
0
VERTEX
8
0
10
0.047527
20
-0.738485
0
VERTEX
8
0
10
0.049295
20
-0.737033
0
VERTEX
8
0
10
0.051335
20
-0.735942
0
VERTEX
8
0
10
0.053605
20
-0.735255
0
VERTEX
8
0
10
0.056058
20
-0.735016
0
VERTEX
8
0
10
0.122058
20
-0.735016
0
VERTEX
8
0
10
0.124512
20
-0.735255
0
VERTEX
8
0
10
0.126781
20
-0.735942
0
VERTEX
8
0
10
0.128821
20
-0.737033
0
VERTEX
8
0
10
0.130589
20
-0.738485
0
VERTEX
8
0
10
0.132041
20
-0.740253
0
VERTEX
8
0
10
0.133133
20
-0.742293
0
VERTEX
8
0
10
0.133820
20
-0.744563
0
VERTEX
8
0
10
0.134058
20
-0.747016
0
VERTEX
8
0
10
0.134058
20
-0.793016
0
VERTEX
8
0
10
0.133820
20
-0.795470
0
VERTEX
8
0
10
0.133133
20
-0.797739
0
VERTEX
8
0
10
0.132041
20
-0.799779
0
VERTEX
8
0
10
0.130589
20
-0.801547
0
VERTEX
8
0
10
0.128821
20
-0.802999
0
VERTEX
8
0
10
0.126781
20
-0.804090
0
VERTEX
8
0
10
0.124512
20
-0.804777
0
VERTEX
8
0
10
0.122058
20
-0.805016
0
VERTEX
8
0
10
0.056058
20
-0.805016
0
VERTEX
8
0
10
0.053605
20
-0.804777
0
VERTEX
8
0
10
0.051335
20
-0.804090
0
VERTEX
8
0
10
0.049295
20
-0.802999
0
VERTEX
8
0
10
0.047527
20
-0.801547
0
VERTEX
8
0
10
0.046075
20
-0.799779
0
VERTEX
8
0
10
0.044984
20
-0.797739
0
VERTEX
8
0
10
0.044297
20
-0.795470
0
VERTEX
8
0
10
0.044058
20
-0.793016
0
SEQEND
8
0
0
POLYLINE
8
0
66
1
70
1
40
0
41
0
0
VERTEX
8
0
10
0.044058
20
-0.693016
0
VERTEX
8
0
10
0.044058
20
-0.647016
0
VERTEX
8
0
10
0.044297
20
-0.644563
0
VERTEX
8
0
10
0.044984
20
-0.642293
0
VERTEX
8
0
10
0.046075
20
-0.640253
0
VERTEX
8
0
10
0.047527
20
-0.638485
0
VERTEX
8
0
10
0.049295
20
-0.637033
0
VERTEX
8
0
10
0.051335
20
-0.635942
0
VERTEX
8
0
10
0.053605
20
-0.635255
0
VERTEX
8
0
10
0.056058
20
-0.635016
0
VERTEX
8
0
10
0.122058
20
-0.635016
0
VERTEX
8
0
10
0.124512
20
-0.635255
0
VERTEX
8
0
10
0.126781
20
-0.635942
0
VERTEX
8
0
10
0.128821
20
-0.637033
0
VERTEX
8
0
10
0.130589
20
-0.638485
0
VERTEX
8
0
10
0.132041
20
-0.640253
0
VERTEX
8
0
10
0.133133
20
-0.642293
0
VERTEX
8
0
10
0.133820
20
-0.644563
0
VERTEX
8
0
10
0.134058
20
-0.647016
0
VERTEX
8
0
10
0.134058
20
-0.693016
0
VERTEX
8
0
10
0.133820
20
-0.695470
0
VERTEX
8
0
10
0.133133
20
-0.697739
0
VERTEX
8
0
10
0.132041
20
-0.699779
0
VERTEX
8
0
10
0.130589
20
-0.701547
0
VERTEX
8
0
10
0.128821
20
-0.702999
0
VERTEX
8
0
10
0.126781
20
-0.704090
0
VERTEX
8
0
10
0.124512
20
-0.704777
0
VERTEX
8
0
10
0.122058
20
-0.705016
0
VERTEX
8
0
10
0.056058
20
-0.705016
0
VERTEX
8
0
10
0.053605
20
-0.704777
0
VERTEX
8
0
10
0.051335
20
-0.704090
0
VERTEX
8
0
10
0.049295
20
-0.702999
0
VERTEX
8
0
10
0.047527
20
-0.701547
0
VERTEX
8
0
10
0.046075
20
-0.699779
0
VERTEX
8
0
10
0.044984
20
-0.697739
0
VERTEX
8
0
10
0.044297
20
-0.695470
0
VERTEX
8
0
10
0.044058
20
-0.693016
0
SEQEND
8
0
0
POLYLINE
8
0
66
1
70
1
40
0
41
0
0
VERTEX
8
0
10
0.044058
20
-0.593016
0
VERTEX
8
0
10
0.044058
20
-0.547016
0
VERTEX
8
0
10
0.044297
20
-0.544563
0
VERTEX
8
0
10
0.044984
20
-0.542293
0
VERTEX
8
0
10
0.046075
20
-0.540253
0
VERTEX
8
0
10
0.047527
20
-0.538485
0
VERTEX
8
0
10
0.049295
20
-0.537033
0
VERTEX
8
0
10
0.051335
20
-0.535942
0
VERTEX
8
0
10
0.053605
20
-0.535255
0
VERTEX
8
0
10
0.056058
20
-0.535016
0
VERTEX
8
0
10
0.122058
20
-0.535016
0
VERTEX
8
0
10
0.124512
20
-0.535255
0
VERTEX
8
0
10
0.126781
20
-0.535942
0
VERTEX
8
0
10
0.128821
20
-0.537033
0
VERTEX
8
0
10
0.130589
20
-0.538485
0
VERTEX
8
0
10
0.132041
20
-0.540253
0
VERTEX
8
0
10
0.133133
20
-0.542293
0
VERTEX
8
0
10
0.133820
20
-0.544563
0
VERTEX
8
0
10
0.134058
20
-0.547016
0
VERTEX
8
0
10
0.134058
20
-0.593016
0
VERTEX
8
0
10
0.133820
20
-0.595470
0
VERTEX
8
0
10
0.133133
20
-0.597739
0
VERTEX
8
0
10
0.132041
20
-0.599779
0
VERTEX
8
0
10
0.130589
20
-0.601547
0
VERTEX
8
0
10
0.128821
20
-0.602999
0
VERTEX
8
0
10
0.126781
20
-0.604090
0
VERTEX
8
0
10
0.124512
20
-0.604777
0
VERTEX
8
0
10
0.122058
20
-0.605016
0
VERTEX
8
0
10
0.056058
20
-0.605016
0
VERTEX
8
0
10
0.053605
20
-0.604777
0
VERTEX
8
0
10
0.051335
20
-0.604090
0
VERTEX
8
0
10
0.049295
20
-0.602999
0
VERTEX
8
0
10
0.047527
20
-0.601547
0
VERTEX
8
0
10
0.046075
20
-0.599779
0
VERTEX
8
0
10
0.044984
20
-0.597739
0
VERTEX
8
0
10
0.044297
20
-0.595470
0
VERTEX
8
0
10
0.044058
20
-0.593016
0
SEQEND
8
0
0
POLYLINE
8
0
66
1
70
1
40
0
41
0
0
VERTEX
8
0
10
0.044058
20
-0.493016
0
VERTEX
8
0
10
0.044058
20
-0.447016
0
VERTEX
8
0
10
0.044297
20
-0.444563
0
VERTEX
8
0
10
0.044984
20
-0.442293
0
VERTEX
8
0
10
0.046075
20
-0.440253
0
VERTEX
8
0
10
0.047527
20
-0.438485
0
VERTEX
8
0
10
0.049295
20
-0.437033
0
VERTEX
8
0
10
0.051335
20
-0.435942
0
VERTEX
8
0
10
0.053605
20
-0.435255
0
VERTEX
8
0
10
0.056058
20
-0.435016
0
VERTEX
8
0
10
0.122058
20
-0.435016
0
VERTEX
8
0
10
0.124512
20
-0.435255
0
VERTEX
8
0
10
0.126781
20
-0.435942
0
VERTEX
8
0
10
0.128821
20
-0.437033
0
VERTEX
8
0
10
0.130589
20
-0.438485
0
VERTEX
8
0
10
0.132041
20
-0.440253
0
VERTEX
8
0
10
0.133133
20
-0.442293
0
VERTEX
8
0
10
0.133820
20
-0.444563
0
VERTEX
8
0
10
0.134058
20
-0.447016
0
VERTEX
8
0
10
0.134058
20
-0.493016
0
VERTEX
8
0
10
0.133820
20
-0.495470
0
VERTEX
8
0
10
0.133133
20
-0.497739
0
VERTEX
8
0
10
0.132041
20
-0.499779
0
VERTEX
8
0
10
0.130589
20
-0.501547
0
VERTEX
8
0
10
0.128821
20
-0.502999
0
VERTEX
8
0
10
0.126781
20
-0.504090
0
VERTEX
8
0
10
0.124512
20
-0.504777
0
VERTEX
8
0
10
0.122058
20
-0.505016
0
VERTEX
8
0
10
0.056058
20
-0.505016
0
VERTEX
8
0
10
0.053605
20
-0.504777
0
VERTEX
8
0
10
0.051335
20
-0.504090
0
VERTEX
8
0
10
0.049295
20
-0.502999
0
VERTEX
8
0
10
0.047527
20
-0.501547
0
VERTEX
8
0
10
0.046075
20
-0.499779
0
VERTEX
8
0
10
0.044984
20
-0.497739
0
VERTEX
8
0
10
0.044297
20
-0.495470
0
VERTEX
8
0
10
0.044058
20
-0.493016
0
SEQEND
8
0
0
POLYLINE
8
0
66
1
70
1
40
0
41
0
0
VERTEX
8
0
10
0.044058
20
-0.393016
0
VERTEX
8
0
10
0.044058
20
-0.347016
0
VERTEX
8
0
10
0.044297
20
-0.344563
0
VERTEX
8
0
10
0.044984
20
-0.342293
0
VERTEX
8
0
10
0.046075
20
-0.340253
0
VERTEX
8
0
10
0.047527
20
-0.338485
0
VERTEX
8
0
10
0.049295
20
-0.337033
0
VERTEX
8
0
10
0.051335
20
-0.335942
0
VERTEX
8
0
10
0.053605
20
-0.335255
0
VERTEX
8
0
10
0.056058
20
-0.335016
0
VERTEX
8
0
10
0.122058
20
-0.335016
0
VERTEX
8
0
10
0.124512
20
-0.335255
0
VERTEX
8
0
10
0.126781
20
-0.335942
0
VERTEX
8
0
10
0.128821
20
-0.337033
0
VERTEX
8
0
10
0.130589
20
-0.338485
0
VERTEX
8
0
10
0.132041
20
-0.340253
0
VERTEX
8
0
10
0.133133
20
-0.342293
0
VERTEX
8
0
10
0.133820
20
-0.344563
0
VERTEX
8
0
10
0.134058
20
-0.347016
0
VERTEX
8
0
10
0.134058
20
-0.393016
0
VERTEX
8
0
10
0.133820
20
-0.395470
0
VERTEX
8
0
10
0.133133
20
-0.397739
0
VERTEX
8
0
10
0.132041
20
-0.399779
0
VERTEX
8
0
10
0.130589
20
-0.401547
0
VERTEX
8
0
10
0.128821
20
-0.402999
0
VERTEX
8
0
10
0.126781
20
-0.404090
0
VERTEX
8
0
10
0.124512
20
-0.404777
0
VERTEX
8
0
10
0.122058
20
-0.405016
0
VERTEX
8
0
10
0.056058
20
-0.405016
0
VERTEX
8
0
10
0.053605
20
-0.404777
0
VERTEX
8
0
10
0.051335
20
-0.404090
0
VERTEX
8
0
10
0.049295
20
-0.402999
0
VERTEX
8
0
10
0.047527
20
-0.401547
0
VERTEX
8
0
10
0.046075
20
-0.399779
0
VERTEX
8
0
10
0.044984
20
-0.397739
0
VERTEX
8
0
10
0.044297
20
-0.395470
0
VERTEX
8
0
10
0.044058
20
-0.393016
0
SEQEND
8
0
0
POLYLINE
8
0
66
1
70
1
40
0
41
0
0
VERTEX
8
0
10
0.044058
20
-0.293016
0
VERTEX
8
0
10
0.044058
20
-0.247016
0
VERTEX
8
0
10
0.044297
20
-0.244563
0
VERTEX
8
0
10
0.044984
20
-0.242293
0
VERTEX
8
0
10
0.046075
20
-0.240253
0
VERTEX
8
0
10
0.047527
20
-0.238485
0
VERTEX
8
0
10
0.049295
20
-0.237033
0
VERTEX
8
0
10
0.051335
20
-0.235942
0
VERTEX
8
0
10
0.053605
20
-0.235255
0
VERTEX
8
0
10
0.056058
20
-0.235016
0
VERTEX
8
0
10
0.122058
20
-0.235016
0
VERTEX
8
0
10
0.124512
20
-0.235255
0
VERTEX
8
0
10
0.126781
20
-0.235942
0
VERTEX
8
0
10
0.128821
20
-0.237033
0
VERTEX
8
0
10
0.130589
20
-0.238485
0
VERTEX
8
0
10
0.132041
20
-0.240253
0
VERTEX
8
0
10
0.133133
20
-0.242293
0
VERTEX
8
0
10
0.133820
20
-0.244563
0
VERTEX
8
0
10
0.134058
20
-0.247016
0
VERTEX
8
0
10
0.134058
20
-0.293016
0
VERTEX
8
0
10
0.133820
20
-0.295470
0
VERTEX
8
0
10
0.133133
20
-0.297739
0
VERTEX
8
0
10
0.132041
20
-0.299779
0
VERTEX
8
0
10
0.130589
20
-0.301547
0
VERTEX
8
0
10
0.128821
20
-0.302999
0
VERTEX
8
0
10
0.126781
20
-0.304090
0
VERTEX
8
0
10
0.124512
20
-0.304777
0
VERTEX
8
0
10
0.122058
20
-0.305016
0
VERTEX
8
0
10
0.056058
20
-0.305016
0
VERTEX
8
0
10
0.053605
20
-0.304777
0
VERTEX
8
0
10
0.051335
20
-0.304090
0
VERTEX
8
0
10
0.049295
20
-0.302999
0
VERTEX
8
0
10
0.047527
20
-0.301547
0
VERTEX
8
0
10
0.046075
20
-0.299779
0
VERTEX
8
0
10
0.044984
20
-0.297739
0
VERTEX
8
0
10
0.044297
20
-0.295470
0
VERTEX
8
0
10
0.044058
20
-0.293016
0
SEQEND
8
0
0
POLYLINE
8
0
66
1
70
1
40
0
41
0
0
VERTEX
8
0
10
0.044058
20
-0.193016
0
VERTEX
8
0
10
0.044058
20
-0.147016
0
VERTEX
8
0
10
0.044297
20
-0.144563
0
VERTEX
8
0
10
0.044984
20
-0.142293
0
VERTEX
8
0
10
0.046075
20
-0.140253
0
VERTEX
8
0
10
0.047527
20
-0.138485
0
VERTEX
8
0
10
0.049295
20
-0.137033
0
VERTEX
8
0
10
0.051335
20
-0.135942
0
VERTEX
8
0
10
0.053605
20
-0.135255
0
VERTEX
8
0
10
0.056058
20
-0.135016
0
VERTEX
8
0
10
0.122058
20
-0.135016
0
VERTEX
8
0
10
0.124512
20
-0.135255
0
VERTEX
8
0
10
0.126781
20
-0.135942
0
VERTEX
8
0
10
0.128821
20
-0.137033
0
VERTEX
8
0
10
0.130589
20
-0.138485
0
VERTEX
8
0
10
0.132041
20
-0.140253
0
VERTEX
8
0
10
0.133133
20
-0.142293
0
VERTEX
8
0
10
0.133820
20
-0.144563
0
VERTEX
8
0
10
0.134058
20
-0.147016
0
VERTEX
8
0
10
0.134058
20
-0.193016
0
VERTEX
8
0
10
0.133820
20
-0.195470
0
VERTEX
8
0
10
0.133133
20
-0.197739
0
VERTEX
8
0
10
0.132041
20
-0.199779
0
VERTEX
8
0
10
0.130589
20
-0.201547
0
VERTEX
8
0
10
0.128821
20
-0.202999
0
VERTEX
8
0
10
0.126781
20
-0.204090
0
VERTEX
8
0
10
0.124512
20
-0.204777
0
VERTEX
8
0
10
0.122058
20
-0.205016
0
VERTEX
8
0
10
0.056058
20
-0.205016
0
VERTEX
8
0
10
0.053605
20
-0.204777
0
VERTEX
8
0
10
0.051335
20
-0.204090
0
VERTEX
8
0
10
0.049295
20
-0.202999
0
VERTEX
8
0
10
0.047527
20
-0.201547
0
VERTEX
8
0
10
0.046075
20
-0.199779
0
VERTEX
8
0
10
0.044984
20
-0.197739
0
VERTEX
8
0
10
0.044297
20
-0.195470
0
VERTEX
8
0
10
0.044058
20
-0.193016
0
SEQEND
8
0
0
POLYLINE
8
0
66
1
70
1
40
0
41
0
0
VERTEX
8
0
10
0.044058
20
-0.093016
0
VERTEX
8
0
10
0.044058
20
-0.047016
0
VERTEX
8
0
10
0.044297
20
-0.044563
0
VERTEX
8
0
10
0.044984
20
-0.042293
0
VERTEX
8
0
10
0.046075
20
-0.040253
0
VERTEX
8
0
10
0.047527
20
-0.038485
0
VERTEX
8
0
10
0.049295
20
-0.037033
0
VERTEX
8
0
10
0.051335
20
-0.035942
0
VERTEX
8
0
10
0.053605
20
-0.035255
0
VERTEX
8
0
10
0.056058
20
-0.035016
0
VERTEX
8
0
10
0.122058
20
-0.035016
0
VERTEX
8
0
10
0.124512
20
-0.035255
0
VERTEX
8
0
10
0.126781
20
-0.035942
0
VERTEX
8
0
10
0.128821
20
-0.037033
0
VERTEX
8
0
10
0.130589
20
-0.038485
0
VERTEX
8
0
10
0.132041
20
-0.040253
0
VERTEX
8
0
10
0.133133
20
-0.042293
0
VERTEX
8
0
10
0.133820
20
-0.044563
0
VERTEX
8
0
10
0.134058
20
-0.047016
0
VERTEX
8
0
10
0.134058
20
-0.093016
0
VERTEX
8
0
10
0.133820
20
-0.095470
0
VERTEX
8
0
10
0.133133
20
-0.097739
0
VERTEX
8
0
10
0.132041
20
-0.099779
0
VERTEX
8
0
10
0.130589
20
-0.101547
0
VERTEX
8
0
10
0.128821
20
-0.102999
0
VERTEX
8
0
10
0.126781
20
-0.104090
0
VERTEX
8
0
10
0.124512
20
-0.104777
0
VERTEX
8
0
10
0.122058
20
-0.105016
0
VERTEX
8
0
10
0.056058
20
-0.105016
0
VERTEX
8
0
10
0.053605
20
-0.104777
0
VERTEX
8
0
10
0.051335
20
-0.104090
0
VERTEX
8
0
10
0.049295
20
-0.102999
0
VERTEX
8
0
10
0.047527
20
-0.101547
0
VERTEX
8
0
10
0.046075
20
-0.099779
0
VERTEX
8
0
10
0.044984
20
-0.097739
0
VERTEX
8
0
10
0.044297
20
-0.095470
0
VERTEX
8
0
10
0.044058
20
-0.093016
0
SEQEND
8
0
0
POLYLINE
8
0
66
1
70
1
40
0
41
0
0
VERTEX
8
0
10
0.044058
20
0.006984
0
VERTEX
8
0
10
0.044058
20
0.052984
0
VERTEX
8
0
10
0.044297
20
0.055437
0
VERTEX
8
0
10
0.044984
20
0.057707
0
VERTEX
8
0
10
0.046075
20
0.059747
0
VERTEX
8
0
10
0.047527
20
0.061515
0
VERTEX
8
0
10
0.049295
20
0.062967
0
VERTEX
8
0
10
0.051335
20
0.064058
0
VERTEX
8
0
10
0.053605
20
0.064745
0
VERTEX
8
0
10
0.056058
20
0.064984
0
VERTEX
8
0
10
0.122058
20
0.064984
0
VERTEX
8
0
10
0.124512
20
0.064745
0
VERTEX
8
0
10
0.126781
20
0.064058
0
VERTEX
8
0
10
0.128821
20
0.062967
0
VERTEX
8
0
10
0.130589
20
0.061515
0
VERTEX
8
0
10
0.132041
20
0.059747
0
VERTEX
8
0
10
0.133133
20
0.057707
0
VERTEX
8
0
10
0.133820
20
0.055437
0
VERTEX
8
0
10
0.134058
20
0.052984
0
VERTEX
8
0
10
0.134058
20
0.006984
0
VERTEX
8
0
10
0.133820
20
0.004530
0
VERTEX
8
0
10
0.133133
20
0.002261
0
VERTEX
8
0
10
0.132041
20
0.000221
0
VERTEX
8
0
10
0.130589
20
-0.001547
0
VERTEX
8
0
10
0.128821
20
-0.002999
0
VERTEX
8
0
10
0.126781
20
-0.004090
0
VERTEX
8
0
10
0.124512
20
-0.004777
0
VERTEX
8
0
10
0.122058
20
-0.005016
0
VERTEX
8
0
10
0.056058
20
-0.005016
0
VERTEX
8
0
10
0.053605
20
-0.004777
0
VERTEX
8
0
10
0.051335
20
-0.004090
0
VERTEX
8
0
10
0.049295
20
-0.002999
0
VERTEX
8
0
10
0.047527
20
-0.001547
0
VERTEX
8
0
10
0.046075
20
0.000221
0
VERTEX
8
0
10
0.044984
20
0.002261
0
VERTEX
8
0
10
0.044297
20
0.004530
0
VERTEX
8
0
10
0.044058
20
0.006984
0
SEQEND
8
0
0
POLYLINE
8
0
66
1
70
1
40
0
41
0
0
VERTEX
8
0
10
-0.255942
20
0.006984
0
VERTEX
8
0
10
-0.255942
20
0.052984
0
VERTEX
8
0
10
-0.255703
20
0.055437
0
VERTEX
8
0
10
-0.255016
20
0.057707
0
VERTEX
8
0
10
-0.253925
20
0.059747
0
VERTEX
8
0
10
-0.252473
20
0.061515
0
VERTEX
8
0
10
-0.250705
20
0.062967
0
VERTEX
8
0
10
-0.248665
20
0.064058
0
VERTEX
8
0
10
-0.246395
20
0.064745
0
VERTEX
8
0
10
-0.243942
20
0.064984
0
VERTEX
8
0
10
-0.177942
20
0.064984
0
VERTEX
8
0
10
-0.175488
20
0.064745
0
VERTEX
8
0
10
-0.173219
20
0.064058
0
VERTEX
8
0
10
-0.171179
20
0.062967
0
VERTEX
8
0
10
-0.169411
20
0.061515
0
VERTEX
8
0
10
-0.167959
20
0.059747
0
VERTEX
8
0
10
-0.166867
20
0.057707
0
VERTEX
8
0
10
-0.166180
20
0.055437
0
VERTEX
8
0
10
-0.165942
20
0.052984
0
VERTEX
8
0
10
-0.165942
20
0.006984
0
VERTEX
8
0
10
-0.166180
20
0.004530
0
VERTEX
8
0
10
-0.166867
20
0.002261
0
VERTEX
8
0
10
-0.167959
20
0.000221
0
VERTEX
8
0
10
-0.169411
20
-0.001547
0
VERTEX
8
0
10
-0.171179
20
-0.002999
0
VERTEX
8
0
10
-0.173219
20
-0.004090
0
VERTEX
8
0
10
-0.175488
20
-0.004777
0
VERTEX
8
0
10
-0.177942
20
-0.005016
0
VERTEX
8
0
10
-0.243942
20
-0.005016
0
VERTEX
8
0
10
-0.246395
20
-0.004777
0
VERTEX
8
0
10
-0.248665
20
-0.004090
0
VERTEX
8
0
10
-0.250705
20
-0.002999
0
VERTEX
8
0
10
-0.252473
20
-0.001547
0
VERTEX
8
0
10
-0.253925
20
0.000221
0
VERTEX
8
0
10
-0.255016
20
0.002261
0
VERTEX
8
0
10
-0.255703
20
0.004530
0
VERTEX
8
0
10
-0.255942
20
0.006984
0
SEQEND
8
0
0
POLYLINE
8
0
66
1
70
1
40
0
41
0
0
VERTEX
8
0
10
-0.255942
20
-0.093016
0
VERTEX
8
0
10
-0.255942
20
-0.047016
0
VERTEX
8
0
10
-0.255703
20
-0.044563
0
VERTEX
8
0
10
-0.255016
20
-0.042293
0
VERTEX
8
0
10
-0.253925
20
-0.040253
0
VERTEX
8
0
10
-0.252473
20
-0.038485
0
VERTEX
8
0
10
-0.250705
20
-0.037033
0
VERTEX
8
0
10
-0.248665
20
-0.035942
0
VERTEX
8
0
10
-0.246395
20
-0.035255
0
VERTEX
8
0
10
-0.243942
20
-0.035016
0
VERTEX
8
0
10
-0.177942
20
-0.035016
0
VERTEX
8
0
10
-0.175488
20
-0.035255
0
VERTEX
8
0
10
-0.173219
20
-0.035942
0
VERTEX
8
0
10
-0.171179
20
-0.037033
0
VERTEX
8
0
10
-0.169411
20
-0.038485
0
VERTEX
8
0
10
-0.167959
20
-0.040253
0
VERTEX
8
0
10
-0.166867
20
-0.042293
0
VERTEX
8
0
10
-0.166180
20
-0.044563
0
VERTEX
8
0
10
-0.165942
20
-0.047016
0
VERTEX
8
0
10
-0.165942
20
-0.093016
0
VERTEX
8
0
10
-0.166180
20
-0.095470
0
VERTEX
8
0
10
-0.166867
20
-0.097739
0
VERTEX
8
0
10
-0.167959
20
-0.099779
0
VERTEX
8
0
10
-0.169411
20
-0.101547
0
VERTEX
8
0
10
-0.171179
20
-0.102999
0
VERTEX
8
0
10
-0.173219
20
-0.104090
0
VERTEX
8
0
10
-0.175488
20
-0.104777
0
VERTEX
8
0
10
-0.177942
20
-0.105016
0
VERTEX
8
0
10
-0.243942
20
-0.105016
0
VERTEX
8
0
10
-0.246395
20
-0.104777
0
VERTEX
8
0
10
-0.248665
20
-0.104090
0
VERTEX
8
0
10
-0.250705
20
-0.102999
0
VERTEX
8
0
10
-0.252473
20
-0.101547
0
VERTEX
8
0
10
-0.253925
20
-0.099779
0
VERTEX
8
0
10
-0.255016
20
-0.097739
0
VERTEX
8
0
10
-0.255703
20
-0.095470
0
VERTEX
8
0
10
-0.255942
20
-0.093016
0
SEQEND
8
0
0
POLYLINE
8
0
66
1
70
1
40
0
41
0
0
VERTEX
8
0
10
-0.255942
20
-0.193016
0
VERTEX
8
0
10
-0.255942
20
-0.147016
0
VERTEX
8
0
10
-0.255703
20
-0.144563
0
VERTEX
8
0
10
-0.255016
20
-0.142293
0
VERTEX
8
0
10
-0.253925
20
-0.140253
0
VERTEX
8
0
10
-0.252473
20
-0.138485
0
VERTEX
8
0
10
-0.250705
20
-0.137033
0
VERTEX
8
0
10
-0.248665
20
-0.135942
0
VERTEX
8
0
10
-0.246395
20
-0.135255
0
VERTEX
8
0
10
-0.243942
20
-0.135016
0
VERTEX
8
0
10
-0.177942
20
-0.135016
0
VERTEX
8
0
10
-0.175488
20
-0.135255
0
VERTEX
8
0
10
-0.173219
20
-0.135942
0
VERTEX
8
0
10
-0.171179
20
-0.137033
0
VERTEX
8
0
10
-0.169411
20
-0.138485
0
VERTEX
8
0
10
-0.167959
20
-0.140253
0
VERTEX
8
0
10
-0.166867
20
-0.142293
0
VERTEX
8
0
10
-0.166180
20
-0.144563
0
VERTEX
8
0
10
-0.165942
20
-0.147016
0
VERTEX
8
0
10
-0.165942
20
-0.193016
0
VERTEX
8
0
10
-0.166180
20
-0.195470
0
VERTEX
8
0
10
-0.166867
20
-0.197739
0
VERTEX
8
0
10
-0.167959
20
-0.199779
0
VERTEX
8
0
10
-0.169411
20
-0.201547
0
VERTEX
8
0
10
-0.171179
20
-0.202999
0
VERTEX
8
0
10
-0.173219
20
-0.204090
0
VERTEX
8
0
10
-0.175488
20
-0.204777
0
VERTEX
8
0
10
-0.177942
20
-0.205016
0
VERTEX
8
0
10
-0.243942
20
-0.205016
0
VERTEX
8
0
10
-0.246395
20
-0.204777
0
VERTEX
8
0
10
-0.248665
20
-0.204090
0
VERTEX
8
0
10
-0.250705
20
-0.202999
0
VERTEX
8
0
10
-0.252473
20
-0.201547
0
VERTEX
8
0
10
-0.253925
20
-0.199779
0
VERTEX
8
0
10
-0.255016
20
-0.197739
0
VERTEX
8
0
10
-0.255703
20
-0.195470
0
VERTEX
8
0
10
-0.255942
20
-0.193016
0
SEQEND
8
0
0
POLYLINE
8
0
66
1
70
1
40
0
41
0
0
VERTEX
8
0
10
-0.255942
20
-0.293016
0
VERTEX
8
0
10
-0.255942
20
-0.247016
0
VERTEX
8
0
10
-0.255703
20
-0.244563
0
VERTEX
8
0
10
-0.255016
20
-0.242293
0
VERTEX
8
0
10
-0.253925
20
-0.240253
0
VERTEX
8
0
10
-0.252473
20
-0.238485
0
VERTEX
8
0
10
-0.250705
20
-0.237033
0
VERTEX
8
0
10
-0.248665
20
-0.235942
0
VERTEX
8
0
10
-0.246395
20
-0.235255
0
VERTEX
8
0
10
-0.243942
20
-0.235016
0
VERTEX
8
0
10
-0.177942
20
-0.235016
0
VERTEX
8
0
10
-0.175488
20
-0.235255
0
VERTEX
8
0
10
-0.173219
20
-0.235942
0
VERTEX
8
0
10
-0.171179
20
-0.237033
0
VERTEX
8
0
10
-0.169411
20
-0.238485
0
VERTEX
8
0
10
-0.167959
20
-0.240253
0
VERTEX
8
0
10
-0.166867
20
-0.242293
0
VERTEX
8
0
10
-0.166180
20
-0.244563
0
VERTEX
8
0
10
-0.165942
20
-0.247016
0
VERTEX
8
0
10
-0.165942
20
-0.293016
0
VERTEX
8
0
10
-0.166180
20
-0.295470
0
VERTEX
8
0
10
-0.166867
20
-0.297739
0
VERTEX
8
0
10
-0.167959
20
-0.299779
0
VERTEX
8
0
10
-0.169411
20
-0.301547
0
VERTEX
8
0
10
-0.171179
20
-0.302999
0
VERTEX
8
0
10
-0.173219
20
-0.304090
0
VERTEX
8
0
10
-0.175488
20
-0.304777
0
VERTEX
8
0
10
-0.177942
20
-0.305016
0
VERTEX
8
0
10
-0.243942
20
-0.305016
0
VERTEX
8
0
10
-0.246395
20
-0.304777
0
VERTEX
8
0
10
-0.248665
20
-0.304090
0
VERTEX
8
0
10
-0.250705
20
-0.302999
0
VERTEX
8
0
10
-0.252473
20
-0.301547
0
VERTEX
8
0
10
-0.253925
20
-0.299779
0
VERTEX
8
0
10
-0.255016
20
-0.297739
0
VERTEX
8
0
10
-0.255703
20
-0.295470
0
VERTEX
8
0
10
-0.255942
20
-0.293016
0
SEQEND
8
0
0
POLYLINE
8
0
66
1
70
1
40
0
41
0
0
VERTEX
8
0
10
-0.255942
20
-0.393016
0
VERTEX
8
0
10
-0.255942
20
-0.347016
0
VERTEX
8
0
10
-0.255703
20
-0.344563
0
VERTEX
8
0
10
-0.255016
20
-0.342293
0
VERTEX
8
0
10
-0.253925
20
-0.340253
0
VERTEX
8
0
10
-0.252473
20
-0.338485
0
VERTEX
8
0
10
-0.250705
20
-0.337033
0
VERTEX
8
0
10
-0.248665
20
-0.335942
0
VERTEX
8
0
10
-0.246395
20
-0.335255
0
VERTEX
8
0
10
-0.243942
20
-0.335016
0
VERTEX
8
0
10
-0.177942
20
-0.335016
0
VERTEX
8
0
10
-0.175488
20
-0.335255
0
VERTEX
8
0
10
-0.173219
20
-0.335942
0
VERTEX
8
0
10
-0.171179
20
-0.337033
0
VERTEX
8
0
10
-0.169411
20
-0.338485
0
VERTEX
8
0
10
-0.167959
20
-0.340253
0
VERTEX
8
0
10
-0.166867
20
-0.342293
0
VERTEX
8
0
10
-0.166180
20
-0.344563
0
VERTEX
8
0
10
-0.165942
20
-0.347016
0
VERTEX
8
0
10
-0.165942
20
-0.393016
0
VERTEX
8
0
10
-0.166180
20
-0.395470
0
VERTEX
8
0
10
-0.166867
20
-0.397739
0
VERTEX
8
0
10
-0.167959
20
-0.399779
0
VERTEX
8
0
10
-0.169411
20
-0.401547
0
VERTEX
8
0
10
-0.171179
20
-0.402999
0
VERTEX
8
0
10
-0.173219
20
-0.404090
0
VERTEX
8
0
10
-0.175488
20
-0.404777
0
VERTEX
8
0
10
-0.177942
20
-0.405016
0
VERTEX
8
0
10
-0.243942
20
-0.405016
0
VERTEX
8
0
10
-0.246395
20
-0.404777
0
VERTEX
8
0
10
-0.248665
20
-0.404090
0
VERTEX
8
0
10
-0.250705
20
-0.402999
0
VERTEX
8
0
10
-0.252473
20
-0.401547
0
VERTEX
8
0
10
-0.253925
20
-0.399779
0
VERTEX
8
0
10
-0.255016
20
-0.397739
0
VERTEX
8
0
10
-0.255703
20
-0.395470
0
VERTEX
8
0
10
-0.255942
20
-0.393016
0
SEQEND
8
0
0
POLYLINE
8
0
66
1
70
1
40
0
41
0
0
VERTEX
8
0
10
-0.255942
20
-0.493016
0
VERTEX
8
0
10
-0.255942
20
-0.447016
0
VERTEX
8
0
10
-0.255703
20
-0.444563
0
VERTEX
8
0
10
-0.255016
20
-0.442293
0
VERTEX
8
0
10
-0.253925
20
-0.440253
0
VERTEX
8
0
10
-0.252473
20
-0.438485
0
VERTEX
8
0
10
-0.250705
20
-0.437033
0
VERTEX
8
0
10
-0.248665
20
-0.435942
0
VERTEX
8
0
10
-0.246395
20
-0.435255
0
VERTEX
8
0
10
-0.243942
20
-0.435016
0
VERTEX
8
0
10
-0.177942
20
-0.435016
0
VERTEX
8
0
10
-0.175488
20
-0.435255
0
VERTEX
8
0
10
-0.173219
20
-0.435942
0
VERTEX
8
0
10
-0.171179
20
-0.437033
0
VERTEX
8
0
10
-0.169411
20
-0.438485
0
VERTEX
8
0
10
-0.167959
20
-0.440253
0
VERTEX
8
0
10
-0.166867
20
-0.442293
0
VERTEX
8
0
10
-0.166180
20
-0.444563
0
VERTEX
8
0
10
-0.165942
20
-0.447016
0
VERTEX
8
0
10
-0.165942
20
-0.493016
0
VERTEX
8
0
10
-0.166180
20
-0.495470
0
VERTEX
8
0
10
-0.166867
20
-0.497739
0
VERTEX
8
0
10
-0.167959
20
-0.499779
0
VERTEX
8
0
10
-0.169411
20
-0.501547
0
VERTEX
8
0
10
-0.171179
20
-0.502999
0
VERTEX
8
0
10
-0.173219
20
-0.504090
0
VERTEX
8
0
10
-0.175488
20
-0.504777
0
VERTEX
8
0
10
-0.177942
20
-0.505016
0
VERTEX
8
0
10
-0.243942
20
-0.505016
0
VERTEX
8
0
10
-0.246395
20
-0.504777
0
VERTEX
8
0
10
-0.248665
20
-0.504090
0
VERTEX
8
0
10
-0.250705
20
-0.502999
0
VERTEX
8
0
10
-0.252473
20
-0.501547
0
VERTEX
8
0
10
-0.253925
20
-0.499779
0
VERTEX
8
0
10
-0.255016
20
-0.497739
0
VERTEX
8
0
10
-0.255703
20
-0.495470
0
VERTEX
8
0
10
-0.255942
20
-0.493016
0
SEQEND
8
0
0
POLYLINE
8
0
66
1
70
1
40
0
41
0
0
VERTEX
8
0
10
-0.255942
20
-0.593016
0
VERTEX
8
0
10
-0.255942
20
-0.547016
0
VERTEX
8
0
10
-0.255703
20
-0.544563
0
VERTEX
8
0
10
-0.255016
20
-0.542293
0
VERTEX
8
0
10
-0.253925
20
-0.540253
0
VERTEX
8
0
10
-0.252473
20
-0.538485
0
VERTEX
8
0
10
-0.250705
20
-0.537033
0
VERTEX
8
0
10
-0.248665
20
-0.535942
0
VERTEX
8
0
10
-0.246395
20
-0.535255
0
VERTEX
8
0
10
-0.243942
20
-0.535016
0
VERTEX
8
0
10
-0.177942
20
-0.535016
0
VERTEX
8
0
10
-0.175488
20
-0.535255
0
VERTEX
8
0
10
-0.173219
20
-0.535942
0
VERTEX
8
0
10
-0.171179
20
-0.537033
0
VERTEX
8
0
10
-0.169411
20
-0.538485
0
VERTEX
8
0
10
-0.167959
20
-0.540253
0
VERTEX
8
0
10
-0.166867
20
-0.542293
0
VERTEX
8
0
10
-0.166180
20
-0.544563
0
VERTEX
8
0
10
-0.165942
20
-0.547016
0
VERTEX
8
0
10
-0.165942
20
-0.593016
0
VERTEX
8
0
10
-0.166180
20
-0.595470
0
VERTEX
8
0
10
-0.166867
20
-0.597739
0
VERTEX
8
0
10
-0.167959
20
-0.599779
0
VERTEX
8
0
10
-0.169411
20
-0.601547
0
VERTEX
8
0
10
-0.171179
20
-0.602999
0
VERTEX
8
0
10
-0.173219
20
-0.604090
0
VERTEX
8
0
10
-0.175488
20
-0.604777
0
VERTEX
8
0
10
-0.177942
20
-0.605016
0
VERTEX
8
0
10
-0.243942
20
-0.605016
0
VERTEX
8
0
10
-0.246395
20
-0.604777
0
VERTEX
8
0
10
-0.248665
20
-0.604090
0
VERTEX
8
0
10
-0.250705
20
-0.602999
0
VERTEX
8
0
10
-0.252473
20
-0.601547
0
VERTEX
8
0
10
-0.253925
20
-0.599779
0
VERTEX
8
0
10
-0.255016
20
-0.597739
0
VERTEX
8
0
10
-0.255703
20
-0.595470
0
VERTEX
8
0
10
-0.255942
20
-0.593016
0
SEQEND
8
0
0
POLYLINE
8
0
66
1
70
1
40
0
41
0
0
VERTEX
8
0
10
-0.255942
20
-0.693016
0
VERTEX
8
0
10
-0.255942
20
-0.647016
0
VERTEX
8
0
10
-0.255703
20
-0.644563
0
VERTEX
8
0
10
-0.255016
20
-0.642293
0
VERTEX
8
0
10
-0.253925
20
-0.640253
0
VERTEX
8
0
10
-0.252473
20
-0.638485
0
VERTEX
8
0
10
-0.250705
20
-0.637033
0
VERTEX
8
0
10
-0.248665
20
-0.635942
0
VERTEX
8
0
10
-0.246395
20
-0.635255
0
VERTEX
8
0
10
-0.243942
20
-0.635016
0
VERTEX
8
0
10
-0.177942
20
-0.635016
0
VERTEX
8
0
10
-0.175488
20
-0.635255
0
VERTEX
8
0
10
-0.173219
20
-0.635942
0
VERTEX
8
0
10
-0.171179
20
-0.637033
0
VERTEX
8
0
10
-0.169411
20
-0.638485
0
VERTEX
8
0
10
-0.167959
20
-0.640253
0
VERTEX
8
0
10
-0.166867
20
-0.642293
0
VERTEX
8
0
10
-0.166180
20
-0.644563
0
VERTEX
8
0
10
-0.165942
20
-0.647016
0
VERTEX
8
0
10
-0.165942
20
-0.693016
0
VERTEX
8
0
10
-0.166180
20
-0.695470
0
VERTEX
8
0
10
-0.166867
20
-0.697739
0
VERTEX
8
0
10
-0.167959
20
-0.699779
0
VERTEX
8
0
10
-0.169411
20
-0.701547
0
VERTEX
8
0
10
-0.171179
20
-0.702999
0
VERTEX
8
0
10
-0.173219
20
-0.704090
0
VERTEX
8
0
10
-0.175488
20
-0.704777
0
VERTEX
8
0
10
-0.177942
20
-0.705016
0
VERTEX
8
0
10
-0.243942
20
-0.705016
0
VERTEX
8
0
10
-0.246395
20
-0.704777
0
VERTEX
8
0
10
-0.248665
20
-0.704090
0
VERTEX
8
0
10
-0.250705
20
-0.702999
0
VERTEX
8
0
10
-0.252473
20
-0.701547
0
VERTEX
8
0
10
-0.253925
20
-0.699779
0
VERTEX
8
0
10
-0.255016
20
-0.697739
0
VERTEX
8
0
10
-0.255703
20
-0.695470
0
VERTEX
8
0
10
-0.255942
20
-0.693016
0
SEQEND
8
0
0
POLYLINE
8
0
66
1
70
1
40
0
41
0
0
VERTEX
8
0
10
-0.255942
20
-0.793016
0
VERTEX
8
0
10
-0.255942
20
-0.747016
0
VERTEX
8
0
10
-0.255703
20
-0.744563
0
VERTEX
8
0
10
-0.255016
20
-0.742293
0
VERTEX
8
0
10
-0.253925
20
-0.740253
0
VERTEX
8
0
10
-0.252473
20
-0.738485
0
VERTEX
8
0
10
-0.250705
20
-0.737033
0
VERTEX
8
0
10
-0.248665
20
-0.735942
0
VERTEX
8
0
10
-0.246395
20
-0.735255
0
VERTEX
8
0
10
-0.243942
20
-0.735016
0
VERTEX
8
0
10
-0.177942
20
-0.735016
0
VERTEX
8
0
10
-0.175488
20
-0.735255
0
VERTEX
8
0
10
-0.173219
20
-0.735942
0
VERTEX
8
0
10
-0.171179
20
-0.737033
0
VERTEX
8
0
10
-0.169411
20
-0.738485
0
VERTEX
8
0
10
-0.167959
20
-0.740253
0
VERTEX
8
0
10
-0.166867
20
-0.742293
0
VERTEX
8
0
10
-0.166180
20
-0.744563
0
VERTEX
8
0
10
-0.165942
20
-0.747016
0
VERTEX
8
0
10
-0.165942
20
-0.793016
0
VERTEX
8
0
10
-0.166180
20
-0.795470
0
VERTEX
8
0
10
-0.166867
20
-0.797739
0
VERTEX
8
0
10
-0.167959
20
-0.799779
0
VERTEX
8
0
10
-0.169411
20
-0.801547
0
VERTEX
8
0
10
-0.171179
20
-0.802999
0
VERTEX
8
0
10
-0.173219
20
-0.804090
0
VERTEX
8
0
10
-0.175488
20
-0.804777
0
VERTEX
8
0
10
-0.177942
20
-0.805016
0
VERTEX
8
0
10
-0.243942
20
-0.805016
0
VERTEX
8
0
10
-0.246395
20
-0.804777
0
VERTEX
8
0
10
-0.248665
20
-0.804090
0
VERTEX
8
0
10
-0.250705
20
-0.802999
0
VERTEX
8
0
10
-0.252473
20
-0.801547
0
VERTEX
8
0
10
-0.253925
20
-0.799779
0
VERTEX
8
0
10
-0.255016
20
-0.797739
0
VERTEX
8
0
10
-0.255703
20
-0.795470
0
VERTEX
8
0
10
-0.255942
20
-0.793016
0
SEQEND
8
0
0
POLYLINE
8
0
66
1
70
1
40
0
41
0
0
VERTEX
8
0
10
0.256106
20
-0.061473
0
VERTEX
8
0
10
0.302106
20
-0.061473
0
VERTEX
8
0
10
0.304559
20
-0.061711
0
VERTEX
8
0
10
0.306828
20
-0.062398
0
VERTEX
8
0
10
0.308869
20
-0.063490
0
VERTEX
8
0
10
0.310637
20
-0.064942
0
VERTEX
8
0
10
0.312088
20
-0.066710
0
VERTEX
8
0
10
0.313180
20
-0.068750
0
VERTEX
8
0
10
0.313867
20
-0.071019
0
VERTEX
8
0
10
0.314106
20
-0.073473
0
VERTEX
8
0
10
0.314106
20
-0.139473
0
VERTEX
8
0
10
0.313867
20
-0.141926
0
VERTEX
8
0
10
0.313180
20
-0.144196
0
VERTEX
8
0
10
0.312088
20
-0.146236
0
VERTEX
8
0
10
0.310637
20
-0.148004
0
VERTEX
8
0
10
0.308869
20
-0.149456
0
VERTEX
8
0
10
0.306828
20
-0.150547
0
VERTEX
8
0
10
0.304559
20
-0.151234
0
VERTEX
8
0
10
0.302106
20
-0.151473
0
VERTEX
8
0
10
0.256106
20
-0.151473
0
VERTEX
8
0
10
0.253652
20
-0.151234
0
VERTEX
8
0
10
0.251383
20
-0.150547
0
VERTEX
8
0
10
0.249343
20
-0.149456
0
VERTEX
8
0
10
0.247574
20
-0.148004
0
VERTEX
8
0
10
0.246123
20
-0.146236
0
VERTEX
8
0
10
0.245031
20
-0.144196
0
VERTEX
8
0
10
0.244344
20
-0.141926
0
VERTEX
8
0
10
0.244106
20
-0.139473
0
VERTEX
8
0
10
0.244106
20
-0.073473
0
VERTEX
8
0
10
0.244344
20
-0.071019
0
VERTEX
8
0
10
0.245031
20
-0.068750
0
VERTEX
8
0
10
0.246123
20
-0.066710
0
VERTEX
8
0
10
0.247574
20
-0.064942
0
VERTEX
8
0
10
0.249343
20
-0.063490
0
VERTEX
8
0
10
0.251383
20
-0.062398
0
VERTEX
8
0
10
0.253652
20
-0.061711
0
VERTEX
8
0
10
0.256106
20
-0.061473
0
SEQEND
8
0
0
POLYLINE
8
0
66
1
70
1
40
0
41
0
0
VERTEX
8
0
10
0.356106
20
-0.061473
0
VERTEX
8
0
10
0.402106
20
-0.061473
0
VERTEX
8
0
10
0.404559
20
-0.061711
0
VERTEX
8
0
10
0.406828
20
-0.062398
0
VERTEX
8
0
10
0.408869
20
-0.063490
0
VERTEX
8
0
10
0.410637
20
-0.064942
0
VERTEX
8
0
10
0.412088
20
-0.066710
0
VERTEX
8
0
10
0.413180
20
-0.068750
0
VERTEX
8
0
10
0.413867
20
-0.071019
0
VERTEX
8
0
10
0.414106
20
-0.073473
0
VERTEX
8
0
10
0.414106
20
-0.139473
0
VERTEX
8
0
10
0.413867
20
-0.141926
0
VERTEX
8
0
10
0.413180
20
-0.144196
0
VERTEX
8
0
10
0.412088
20
-0.146236
0
VERTEX
8
0
10
0.410637
20
-0.148004
0
VERTEX
8
0
10
0.408869
20
-0.149456
0
VERTEX
8
0
10
0.406828
20
-0.150547
0
VERTEX
8
0
10
0.404559
20
-0.151234
0
VERTEX
8
0
10
0.402106
20
-0.151473
0
VERTEX
8
0
10
0.356106
20
-0.151473
0
VERTEX
8
0
10
0.353652
20
-0.151234
0
VERTEX
8
0
10
0.351383
20
-0.150547
0
VERTEX
8
0
10
0.349343
20
-0.149456
0
VERTEX
8
0
10
0.347574
20
-0.148004
0
VERTEX
8
0
10
0.346123
20
-0.146236
0
VERTEX
8
0
10
0.345031
20
-0.144196
0
VERTEX
8
0
10
0.344344
20
-0.141926
0
VERTEX
8
0
10
0.344106
20
-0.139473
0
VERTEX
8
0
10
0.344106
20
-0.073473
0
VERTEX
8
0
10
0.344344
20
-0.071019
0
VERTEX
8
0
10
0.345031
20
-0.068750
0
VERTEX
8
0
10
0.346123
20
-0.066710
0
VERTEX
8
0
10
0.347574
20
-0.064942
0
VERTEX
8
0
10
0.349343
20
-0.063490
0
VERTEX
8
0
10
0.351383
20
-0.062398
0
VERTEX
8
0
10
0.353652
20
-0.061711
0
VERTEX
8
0
10
0.356106
20
-0.061473
0
SEQEND
8
0
0
POLYLINE
8
0
66
1
70
1
40
0
41
0
0
VERTEX
8
0
10
0.456106
20
-0.061473
0
VERTEX
8
0
10
0.502106
20
-0.061473
0
VERTEX
8
0
10
0.504559
20
-0.061711
0
VERTEX
8
0
10
0.506828
20
-0.062398
0
VERTEX
8
0
10
0.508869
20
-0.063490
0
VERTEX
8
0
10
0.510637
20
-0.064942
0
VERTEX
8
0
10
0.512088
20
-0.066710
0
VERTEX
8
0
10
0.513180
20
-0.068750
0
VERTEX
8
0
10
0.513867
20
-0.071019
0
VERTEX
8
0
10
0.514106
20
-0.073473
0
VERTEX
8
0
10
0.514106
20
-0.139473
0
VERTEX
8
0
10
0.513867
20
-0.141926
0
VERTEX
8
0
10
0.513180
20
-0.144196
0
VERTEX
8
0
10
0.512088
20
-0.146236
0
VERTEX
8
0
10
0.510637
20
-0.148004
0
VERTEX
8
0
10
0.508869
20
-0.149456
0
VERTEX
8
0
10
0.506828
20
-0.150547
0
VERTEX
8
0
10
0.504559
20
-0.151234
0
VERTEX
8
0
10
0.502106
20
-0.151473
0
VERTEX
8
0
10
0.456106
20
-0.151473
0
VERTEX
8
0
10
0.453652
20
-0.151234
0
VERTEX
8
0
10
0.451383
20
-0.150547
0
VERTEX
8
0
10
0.449343
20
-0.149456
0
VERTEX
8
0
10
0.447574
20
-0.148004
0
VERTEX
8
0
10
0.446123
20
-0.146236
0
VERTEX
8
0
10
0.445031
20
-0.144196
0
VERTEX
8
0
10
0.444344
20
-0.141926
0
VERTEX
8
0
10
0.444106
20
-0.139473
0
VERTEX
8
0
10
0.444106
20
-0.073473
0
VERTEX
8
0
10
0.444344
20
-0.071019
0
VERTEX
8
0
10
0.445031
20
-0.068750
0
VERTEX
8
0
10
0.446123
20
-0.066710
0
VERTEX
8
0
10
0.447574
20
-0.064942
0
VERTEX
8
0
10
0.449343
20
-0.063490
0
VERTEX
8
0
10
0.451383
20
-0.062398
0
VERTEX
8
0
10
0.453652
20
-0.061711
0
VERTEX
8
0
10
0.456106
20
-0.061473
0
SEQEND
8
0
0
POLYLINE
8
0
66
1
70
1
40
0
41
0
0
VERTEX
8
0
10
0.556106
20
-0.061473
0
VERTEX
8
0
10
0.602106
20
-0.061473
0
VERTEX
8
0
10
0.604559
20
-0.061711
0
VERTEX
8
0
10
0.606828
20
-0.062398
0
VERTEX
8
0
10
0.608869
20
-0.063490
0
VERTEX
8
0
10
0.610637
20
-0.064942
0
VERTEX
8
0
10
0.612088
20
-0.066710
0
VERTEX
8
0
10
0.613180
20
-0.068750
0
VERTEX
8
0
10
0.613867
20
-0.071019
0
VERTEX
8
0
10
0.614106
20
-0.073473
0
VERTEX
8
0
10
0.614106
20
-0.139473
0
VERTEX
8
0
10
0.613867
20
-0.141926
0
VERTEX
8
0
10
0.613180
20
-0.144196
0
VERTEX
8
0
10
0.612088
20
-0.146236
0
VERTEX
8
0
10
0.610637
20
-0.148004
0
VERTEX
8
0
10
0.608869
20
-0.149456
0
VERTEX
8
0
10
0.606828
20
-0.150547
0
VERTEX
8
0
10
0.604559
20
-0.151234
0
VERTEX
8
0
10
0.602106
20
-0.151473
0
VERTEX
8
0
10
0.556106
20
-0.151473
0
VERTEX
8
0
10
0.553652
20
-0.151234
0
VERTEX
8
0
10
0.551383
20
-0.150547
0
VERTEX
8
0
10
0.549343
20
-0.149456
0
VERTEX
8
0
10
0.547574
20
-0.148004
0
VERTEX
8
0
10
0.546123
20
-0.146236
0
VERTEX
8
0
10
0.545031
20
-0.144196
0
VERTEX
8
0
10
0.544344
20
-0.141926
0
VERTEX
8
0
10
0.544106
20
-0.139473
0
VERTEX
8
0
10
0.544106
20
-0.073473
0
VERTEX
8
0
10
0.544344
20
-0.071019
0
VERTEX
8
0
10
0.545031
20
-0.068750
0
VERTEX
8
0
10
0.546123
20
-0.066710
0
VERTEX
8
0
10
0.547574
20
-0.064942
0
VERTEX
8
0
10
0.549343
20
-0.063490
0
VERTEX
8
0
10
0.551383
20
-0.062398
0
VERTEX
8
0
10
0.553652
20
-0.061711
0
VERTEX
8
0
10
0.556106
20
-0.061473
0
SEQEND
8
0
0
INSERT
8
0
2
EPAD
10
0.092995
20
0.123937
41
0.080000
42
0.080000
0
INSERT
8
0
2
EPAD
10
0.492995
20
0.123937
41
0.080000
42
0.080000
0
POLYLINE
8
0
66
1
70
1
40
0
41
0
0
VERTEX
8
0
10
0.736972
20
0.183362
0
VERTEX
8
0
10
0.736972
20
0.229362
0
VERTEX
8
0
10
0.737210
20
0.231815
0
VERTEX
8
0
10
0.737897
20
0.234085
0
VERTEX
8
0
10
0.738989
20
0.236125
0
VERTEX
8
0
10
0.740441
20
0.237893
0
VERTEX
8
0
10
0.742209
20
0.239344
0
VERTEX
8
0
10
0.744249
20
0.240436
0
VERTEX
8
0
10
0.746518
20
0.241123
0
VERTEX
8
0
10
0.748972
20
0.241362
0
VERTEX
8
0
10
0.814972
20
0.241362
0
VERTEX
8
0
10
0.817425
20
0.241123
0
VERTEX
8
0
10
0.819694
20
0.240436
0
VERTEX
8
0
10
0.821735
20
0.239344
0
VERTEX
8
0
10
0.823503
20
0.237893
0
VERTEX
8
0
10
0.824955
20
0.236125
0
VERTEX
8
0
10
0.826046
20
0.234085
0
VERTEX
8
0
10
0.826733
20
0.231815
0
VERTEX
8
0
10
0.826972
20
0.229362
0
VERTEX
8
0
10
0.826972
20
0.183362
0
VERTEX
8
0
10
0.826733
20
0.180908
0
VERTEX
8
0
10
0.826046
20
0.178639
0
VERTEX
8
0
10
0.824955
20
0.176599
0
VERTEX
8
0
10
0.823503
20
0.174831
0
VERTEX
8
0
10
0.821735
20
0.173379
0
VERTEX
8
0
10
0.819694
20
0.172288
0
VERTEX
8
0
10
0.817425
20
0.171601
0
VERTEX
8
0
10
0.814972
20
0.171362
0
VERTEX
8
0
10
0.748972
20
0.171362
0
VERTEX
8
0
10
0.746518
20
0.171601
0
VERTEX
8
0
10
0.744249
20
0.172288
0
VERTEX
8
0
10
0.742209
20
0.173379
0
VERTEX
8
0
10
0.740441
20
0.174831
0
VERTEX
8
0
10
0.738989
20
0.176599
0
VERTEX
8
0
10
0.737897
20
0.178639
0
VERTEX
8
0
10
0.737210
20
0.180908
0
VERTEX
8
0
10
0.736972
20
0.183362
0
SEQEND
8
0
0
POLYLINE
8
0
66
1
70
1
40
0
41
0
0
VERTEX
8
0
10
0.736972
20
0.083362
0
VERTEX
8
0
10
0.736972
20
0.129362
0
VERTEX
8
0
10
0.737210
20
0.131815
0
VERTEX
8
0
10
0.737897
20
0.134085
0
VERTEX
8
0
10
0.738989
20
0.136125
0
VERTEX
8
0
10
0.740441
20
0.137893
0
VERTEX
8
0
10
0.742209
20
0.139344
0
VERTEX
8
0
10
0.744249
20
0.140436
0
VERTEX
8
0
10
0.746518
20
0.141123
0
VERTEX
8
0
10
0.748972
20
0.141362
0
VERTEX
8
0
10
0.814972
20
0.141362
0
VERTEX
8
0
10
0.817425
20
0.141123
0
VERTEX
8
0
10
0.819694
20
0.140436
0
VERTEX
8
0
10
0.821735
20
0.139344
0
VERTEX
8
0
10
0.823503
20
0.137893
0
VERTEX
8
0
10
0.824955
20
0.136125
0
VERTEX
8
0
10
0.826046
20
0.134085
0
VERTEX
8
0
10
0.826733
20
0.131815
0
VERTEX
8
0
10
0.826972
20
0.129362
0
VERTEX
8
0
10
0.826972
20
0.083362
0
VERTEX
8
0
10
0.826733
20
0.080908
0
VERTEX
8
0
10
0.826046
20
0.078639
0
VERTEX
8
0
10
0.824955
20
0.076599
0
VERTEX
8
0
10
0.823503
20
0.074831
0
VERTEX
8
0
10
0.821735
20
0.073379
0
VERTEX
8
0
10
0.819694
20
0.072288
0
VERTEX
8
0
10
0.817425
20
0.071601
0
VERTEX
8
0
10
0.814972
20
0.071362
0
VERTEX
8
0
10
0.748972
20
0.071362
0
VERTEX
8
0
10
0.746518
20
0.071601
0
VERTEX
8
0
10
0.744249
20
0.072288
0
VERTEX
8
0
10
0.742209
20
0.073379
0
VERTEX
8
0
10
0.740441
20
0.074831
0
VERTEX
8
0
10
0.738989
20
0.076599
0
VERTEX
8
0
10
0.737897
20
0.078639
0
VERTEX
8
0
10
0.737210
20
0.080908
0
VERTEX
8
0
10
0.736972
20
0.083362
0
SEQEND
8
0
0
POLYLINE
8
0
66
1
70
1
40
0
41
0
0
VERTEX
8
0
10
0.736972
20
-0.016638
0
VERTEX
8
0
10
0.736972
20
0.029362
0
VERTEX
8
0
10
0.737210
20
0.031815
0
VERTEX
8
0
10
0.737897
20
0.034085
0
VERTEX
8
0
10
0.738989
20
0.036125
0
VERTEX
8
0
10
0.740441
20
0.037893
0
VERTEX
8
0
10
0.742209
20
0.039344
0
VERTEX
8
0
10
0.744249
20
0.040436
0
VERTEX
8
0
10
0.746518
20
0.041123
0
VERTEX
8
0
10
0.748972
20
0.041362
0
VERTEX
8
0
10
0.814972
20
0.041362
0
VERTEX
8
0
10
0.817425
20
0.041123
0
VERTEX
8
0
10
0.819694
20
0.040436
0
VERTEX
8
0
10
0.821735
20
0.039344
0
VERTEX
8
0
10
0.823503
20
0.037893
0
VERTEX
8
0
10
0.824955
20
0.036125
0
VERTEX
8
0
10
0.826046
20
0.034085
0
VERTEX
8
0
10
0.826733
20
0.031815
0
VERTEX
8
0
10
0.826972
20
0.029362
0
VERTEX
8
0
10
0.826972
20
-0.016638
0
VERTEX
8
0
10
0.826733
20
-0.019092
0
VERTEX
8
0
10
0.826046
20
-0.021361
0
VERTEX
8
0
10
0.824955
20
-0.023401
0
VERTEX
8
0
10
0.823503
20
-0.025169
0
VERTEX
8
0
10
0.821735
20
-0.026621
0
VERTEX
8
0
10
0.819694
20
-0.027712
0
VERTEX
8
0
10
0.817425
20
-0.028399
0
VERTEX
8
0
10
0.814972
20
-0.028638
0
VERTEX
8
0
10
0.748972
20
-0.028638
0
VERTEX
8
0
10
0.746518
20
-0.028399
0
VERTEX
8
0
10
0.744249
20
-0.027712
0
VERTEX
8
0
10
0.742209
20
-0.026621
0
VERTEX
8
0
10
0.740441
20
-0.025169
0
VERTEX
8
0
10
0.738989
20
-0.023401
0
VERTEX
8
0
10
0.737897
20
-0.021361
0
VERTEX
8
0
10
0.737210
20
-0.019092
0
VERTEX
8
0
10
0.736972
20
-0.016638
0
SEQEND
8
0
0
INSERT
8
0
2
EPAD
10
0.253980
20
-0.735717
41
0.100000
42
0.100000
0
INSERT
8
0
2
EPAD
10
0.498074
20
-0.735717
41
0.100000
42
0.100000
0
INSERT
8
0
2
EPAD
10
0.671735
20
-0.632221
41
0.080000
42
0.080000
0
INSERT
8
0
2
EPAD
10
0.671735
20
-0.232221
41
0.080000
42
0.080000
0
INSERT
8
0
2
EPAD
10
0.174488
20
-0.474859
41
0.080000
42
0.080000
0
INSERT
8
0
2
EPAD
10
0.545361
20
-0.325016
41
0.080000
42
0.080000
0
INSERT
8
0
2
EPAD
10
-0.430627
20
-0.368441
41
0.090000
42
0.090000
0
INSERT
8
0
2
EPAD
10
-0.430627
20
-0.468441
41
0.090000
42
0.090000
0
INSERT
8
0
2
EPAD
10
-0.427497
20
-0.751220
41
0.080000
42
0.080000
0
INSERT
8
0
2
EPAD
10
-0.284150
20
-0.377788
41
0.080000
42
0.080000
0
POLYLINE
8
0
66
1
70
1
40
0
41
0
0
VERTEX
8
0
10
-0.335069
20
0.215394
0
VERTEX
8
0
10
-0.344525
20
0.197609
0
VERTEX
8
0
10
-0.364715
20
0.191437
0
VERTEX
8
0
10
-0.435476
20
0.229061
0
VERTEX
8
0
10
-0.441649
20
0.249251
0
VERTEX
8
0
10
-0.432193
20
0.267035
0
VERTEX
8
0
10
-0.412003
20
0.273208
0
VERTEX
8
0
10
-0.341242
20
0.235584
0
VERTEX
8
0
10
-0.335069
20
0.215394
0
SEQEND
8
0
0
POLYLINE
8
0
66
1
70
1
40
0
41
0
0
VERTEX
8
0
10
-0.382016
20
0.127099
0
VERTEX
8
0
10
-0.391472
20
0.109315
0
VERTEX
8
0
10
-0.411663
20
0.103142
0
VERTEX
8
0
10
-0.482424
20
0.140766
0
VERTEX
8
0
10
-0.488596
20
0.160956
0
VERTEX
8
0
10
-0.479141
20
0.178741
0
VERTEX
8
0
10
-0.458950
20
0.184913
0
VERTEX
8
0
10
-0.388189
20
0.147289
0
VERTEX
8
0
10
-0.382016
20
0.127099
0
SEQEND
8
0
0
POLYLINE
8
0
66
1
70
1
40
0
41
0
0
VERTEX
8
0
10
-0.428963
20
0.038804
0
VERTEX
8
0
10
-0.438419
20
0.021020
0
VERTEX
8
0
10
-0.458609
20
0.014847
0
VERTEX
8
0
10
-0.529370
20
0.052472
0
VERTEX
8
0
10
-0.535543
20
0.072662
0
VERTEX
8
0
10
-0.526087
20
0.090446
0
VERTEX
8
0
10
-0.505897
20
0.096619
0
VERTEX
8
0
10
-0.435136
20
0.058994
0
VERTEX
8
0
10
-0.428963
20
0.038804
0
SEQEND
8
0
0
POLYLINE
8
0
66
1
70
1
40
0
41
0
0
VERTEX
8
0
10
-0.475910
20
-0.049491
0
VERTEX
8
0
10
-0.485366
20
-0.067275
0
VERTEX
8
0
10
-0.505557
20
-0.073448
0
VERTEX
8
0
10
-0.576318
20
-0.035823
0
VERTEX
8
0
10
-0.582491
20
-0.015633
0
VERTEX
8
0
10
-0.573035
20
0.002151
0
VERTEX
8
0
10
-0.552844
20
0.008324
0
VERTEX
8
0
10
-0.482083
20
-0.029300
0
VERTEX
8
0
10
-0.475910
20
-0.049491
0
SEQEND
8
0
0
POLYLINE
8
0
66
1
70
1
40
0
41
0
0
VERTEX
8
0
10
-0.522857
20
-0.137785
0
VERTEX
8
0
10
-0.532313
20
-0.155570
0
VERTEX
8
0
10
-0.552504
20
-0.161743
0
VERTEX
8
0
10
-0.623265
20
-0.124118
0
VERTEX
8
0
10
-0.629438
20
-0.103928
0
VERTEX
8
0
10
-0.619982
20
-0.086144
0
VERTEX
8
0
10
-0.599791
20
-0.079971
0
VERTEX
8
0
10
-0.529030
20
-0.117595
0
VERTEX
8
0
10
-0.522857
20
-0.137785
0
SEQEND
8
0
0
POLYLINE
8
0
66
1
70
1
40
0
41
0
0
VERTEX
8
0
10
-0.569805
20
-0.226080
0
VERTEX
8
0
10
-0.579261
20
-0.243864
0
VERTEX
8
0
10
-0.599451
20
-0.250037
0
VERTEX
8
0
10
-0.670212
20
-0.212413
0
VERTEX
8
0
10
-0.676385
20
-0.192222
0
VERTEX
8
0
10
-0.666929
20
-0.174438
0
VERTEX
8
0
10
-0.646739
20
-0.168265
0
VERTEX
8
0
10
-0.575978
20
-0.205890
0
VERTEX
8
0
10
-0.569805
20
-0.226080
0
SEQEND
8
0
0
POLYLINE
8
0
66
1
70
1
40
0
41
0
0
VERTEX
8
0
10
-0.616752
20
-0.314375
0
VERTEX
8
0
10
-0.626208
20
-0.332159
0
VERTEX
8
0
10
-0.646398
20
-0.338332
0
VERTEX
8
0
10
-0.717159
20
-0.300707
0
VERTEX
8
0
10
-0.723332
20
-0.280517
0
VERTEX
8
0
10
-0.713876
20
-0.262733
0
VERTEX
8
0
10
-0.693686
20
-0.256560
0
VERTEX
8
0
10
-0.622925
20
-0.294185
0
VERTEX
8
0
10
-0.616752
20
-0.314375
0
SEQEND
8
0
0
POLYLINE
8
0
66
1
70
1
40
0
41
0
0
VERTEX
8
0
10
-0.663699
20
-0.402670
0
VERTEX
8
0
10
-0.673155
20
-0.420454
0
VERTEX
8
0
10
-0.693345
20
-0.426627
0
VERTEX
8
0
10
-0.764106
20
-0.389002
0
VERTEX
8
0
10
-0.770279
20
-0.368812
0
VERTEX
8
0
10
-0.760823
20
-0.351028
0
VERTEX
8
0
10
-0.740633
20
-0.344855
0
VERTEX
8
0
10
-0.669872
20
-0.382480
0
VERTEX
8
0
10
-0.663699
20
-0.402670
0
SEQEND
8
0
0
POLYLINE
8
0
66
1
70
1
40
0
41
0
0
VERTEX
8
0
10
-0.062099
20
-0.933244
0
VERTEX
8
0
10
-0.016099
20
-0.933244
0
VERTEX
8
0
10
-0.013646
20
-0.933483
0
VERTEX
8
0
10
-0.011376
20
-0.934170
0
VERTEX
8
0
10
-0.009336
20
-0.935261
0
VERTEX
8
0
10
-0.007568
20
-0.936713
0
VERTEX
8
0
10
-0.006117
20
-0.938481
0
VERTEX
8
0
10
-0.005025
20
-0.940522
0
VERTEX
8
0
10
-0.004338
20
-0.942791
0
VERTEX
8
0
10
-0.004099
20
-0.945244
0
VERTEX
8
0
10
-0.004099
20
-1.011244
0
VERTEX
8
0
10
-0.004338
20
-1.013698
0
VERTEX
8
0
10
-0.005025
20
-1.015967
0
VERTEX
8
0
10
-0.006117
20
-1.018007
0
VERTEX
8
0
10
-0.007568
20
-1.019776
0
VERTEX
8
0
10
-0.009336
20
-1.021228
0
VERTEX
8
0
10
-0.011376
20
-1.022319
0
VERTEX
8
0
10
-0.013646
20
-1.023006
0
VERTEX
8
0
10
-0.016099
20
-1.023244
0
VERTEX
8
0
10
-0.062099
20
-1.023244
0
VERTEX
8
0
10
-0.064553
20
-1.023006
0
VERTEX
8
0
10
-0.066822
20
-1.022319
0
VERTEX
8
0
10
-0.068862
20
-1.021228
0
VERTEX
8
0
10
-0.070630
20
-1.019776
0
VERTEX
8
0
10
-0.072082
20
-1.018007
0
VERTEX
8
0
10
-0.073173
20
-1.015967
0
VERTEX
8
0
10
-0.073860
20
-1.013698
0
VERTEX
8
0
10
-0.074099
20
-1.011244
0
VERTEX
8
0
10
-0.074099
20
-0.945244
0
VERTEX
8
0
10
-0.073860
20
-0.942791
0
VERTEX
8
0
10
-0.073173
20
-0.940522
0
VERTEX
8
0
10
-0.072082
20
-0.938481
0
VERTEX
8
0
10
-0.070630
20
-0.936713
0
VERTEX
8
0
10
-0.068862
20
-0.935261
0
VERTEX
8
0
10
-0.066822
20
-0.934170
0
VERTEX
8
0
10
-0.064553
20
-0.933483
0
VERTEX
8
0
10
-0.062099
20
-0.933244
0
SEQEND
8
0
0
POLYLINE
8
0
66
1
70
1
40
0
41
0
0
VERTEX
8
0
10
0.037901
20
-0.933244
0
VERTEX
8
0
10
0.083901
20
-0.933244
0
VERTEX
8
0
10
0.086354
20
-0.933483
0
VERTEX
8
0
10
0.088624
20
-0.934170
0
VERTEX
8
0
10
0.090664
20
-0.935261
0
VERTEX
8
0
10
0.092432
20
-0.936713
0
VERTEX
8
0
10
0.093883
20
-0.938481
0
VERTEX
8
0
10
0.094975
20
-0.940522
0
VERTEX
8
0
10
0.095662
20
-0.942791
0
VERTEX
8
0
10
0.095901
20
-0.945244
0
VERTEX
8
0
10
0.095901
20
-1.011244
0
VERTEX
8
0
10
0.095662
20
-1.013698
0
VERTEX
8
0
10
0.094975
20
-1.015967
0
VERTEX
8
0
10
0.093883
20
-1.018007
0
VERTEX
8
0
10
0.092432
20
-1.019776
0
VERTEX
8
0
10
0.090664
20
-1.021228
0
VERTEX
8
0
10
0.088624
20
-1.022319
0
VERTEX
8
0
10
0.086354
20
-1.023006
0
VERTEX
8
0
10
0.083901
20
-1.023244
0
VERTEX
8
0
10
0.037901
20
-1.023244
0
VERTEX
8
0
10
0.035447
20
-1.023006
0
VERTEX
8
0
10
0.033178
20
-1.022319
0
VERTEX
8
0
10
0.031138
20
-1.021228
0
VERTEX
8
0
10
0.029370
20
-1.019776
0
VERTEX
8
0
10
0.027918
20
-1.018007
0
VERTEX
8
0
10
0.026827
20
-1.015967
0
VERTEX
8
0
10
0.026140
20
-1.013698
0
VERTEX
8
0
10
0.025901
20
-1.011244
0
VERTEX
8
0
10
0.025901
20
-0.945244
0
VERTEX
8
0
10
0.026140
20
-0.942791
0
VERTEX
8
0
10
0.026827
20
-0.940522
0
VERTEX
8
0
10
0.027918
20
-0.938481
0
VERTEX
8
0
10
0.029370
20
-0.936713
0
VERTEX
8
0
10
0.031138
20
-0.935261
0
VERTEX
8
0
10
0.033178
20
-0.934170
0
VERTEX
8
0
10
0.035447
20
-0.933483
0
VERTEX
8
0
10
0.037901
20
-0.933244
0
SEQEND
8
0
0
POLYLINE
8
0
66
1
70
1
40
0
41
0
0
VERTEX
8
0
10
0.137901
20
-0.933244
0
VERTEX
8
0
10
0.183901
20
-0.933244
0
VERTEX
8
0
10
0.186354
20
-0.933483
0
VERTEX
8
0
10
0.188624
20
-0.934170
0
VERTEX
8
0
10
0.190664
20
-0.935261
0
VERTEX
8
0
10
0.192432
20
-0.936713
0
VERTEX
8
0
10
0.193883
20
-0.938481
0
VERTEX
8
0
10
0.194975
20
-0.940522
0
VERTEX
8
0
10
0.195662
20
-0.942791
0
VERTEX
8
0
10
0.195901
20
-0.945244
0
VERTEX
8
0
10
0.195901
20
-1.011244
0
VERTEX
8
0
10
0.195662
20
-1.013698
0
VERTEX
8
0
10
0.194975
20
-1.015967
0
VERTEX
8
0
10
0.193883
20
-1.018007
0
VERTEX
8
0
10
0.192432
20
-1.019776
0
VERTEX
8
0
10
0.190664
20
-1.021228
0
VERTEX
8
0
10
0.188624
20
-1.022319
0
VERTEX
8
0
10
0.186354
20
-1.023006
0
VERTEX
8
0
10
0.183901
20
-1.023244
0
VERTEX
8
0
10
0.137901
20
-1.023244
0
VERTEX
8
0
10
0.135447
20
-1.023006
0
VERTEX
8
0
10
0.133178
20
-1.022319
0
VERTEX
8
0
10
0.131138
20
-1.021228
0
VERTEX
8
0
10
0.129370
20
-1.019776
0
VERTEX
8
0
10
0.127918
20
-1.018007
0
VERTEX
8
0
10
0.126827
20
-1.015967
0
VERTEX
8
0
10
0.126140
20
-1.013698
0
VERTEX
8
0
10
0.125901
20
-1.011244
0
VERTEX
8
0
10
0.125901
20
-0.945244
0
VERTEX
8
0
10
0.126140
20
-0.942791
0
VERTEX
8
0
10
0.126827
20
-0.940522
0
VERTEX
8
0
10
0.127918
20
-0.938481
0
VERTEX
8
0
10
0.129370
20
-0.936713
0
VERTEX
8
0
10
0.131138
20
-0.935261
0
VERTEX
8
0
10
0.133178
20
-0.934170
0
VERTEX
8
0
10
0.135447
20
-0.933483
0
VERTEX
8
0
10
0.137901
20
-0.933244
0
SEQEND
8
0
0
INSERT
8
0
2
EPAD
10
0.858247
20
-0.964882
41
0.142000
42
0.142000
0
INSERT
8
0
2
EPAD
10
0.858247
20
-0.964882
41
0.142000
42
0.142000
0
INSERT
8
0
2
EPAD
10
0.817247
20
0.941118
41
0.142000
42
0.142000
0
INSERT
8
0
2
EPAD
10
0.817247
20
0.941118
41
0.142000
42
0.142000
0
INSERT
8
0
2
EPAD
10
-0.864753
20
0.003118
41
0.142000
42
0.142000
0
INSERT
8
0
2
EPAD
10
-0.864753
20
0.003118
41
0.142000
42
0.142000
0
POLYLINE
8
0
66
1
40
0.008000
41
0.008000
0
VERTEX
8
0
10
-0.047532
20
0.717307
0
VERTEX
8
0
10
0.052468
20
0.717307
0
VERTEX
8
0
10
0.052468
20
1.017307
0
VERTEX
8
0
10
-0.047532
20
1.017307
0
VERTEX
8
0
10
-0.047532
20
0.717307
0
VERTEX
8
0
10
-0.097532
20
0.717307
0
VERTEX
8
0
10
-0.097532
20
1.017307
0
VERTEX
8
0
10
-0.047532
20
1.017307
0
SEQEND
8
0
0
POLYLINE
8
0
66
1
40
0.008000
41
0.008000
0
VERTEX
8
0
10
-0.047532
20
0.717307
0
VERTEX
8
0
10
-0.097532
20
0.767307
0
SEQEND
8
0
0
POLYLINE
8
0
66
1
40
0.008000
41
0.008000
0
VERTEX
8
0
10
-0.047532
20
0.767307
0
VERTEX
8
0
10
-0.097532
20
0.817307
0
SEQEND
8
0
0
POLYLINE
8
0
66
1
40
0.008000
41
0.008000
0
VERTEX
8
0
10
-0.047532
20
0.817307
0
VERTEX
8
0
10
-0.097532
20
0.867307
0
SEQEND
8
0
0
POLYLINE
8
0
66
1
40
0.008000
41
0.008000
0
VERTEX
8
0
10
-0.047532
20
0.867307
0
VERTEX
8
0
10
-0.097532
20
0.917307
0
SEQEND
8
0
0
POLYLINE
8
0
66
1
40
0.008000
41
0.008000
0
VERTEX
8
0
10
-0.047532
20
0.917307
0
VERTEX
8
0
10
-0.097532
20
0.967307
0
SEQEND
8
0
0
POLYLINE
8
0
66
1
40
0.008000
41
0.008000
0
VERTEX
8
0
10
-0.047532
20
0.967307
0
VERTEX
8
0
10
-0.097532
20
1.017307
0
SEQEND
8
0
0
TEXT
8
0
10
-0.107532
20
0.767307
40
0.048000
41
1.041667
50
90.000000
1
7805
0
POLYLINE
8
0
66
1
40
0.008000
41
0.008000
0
VERTEX
8
0
10
0.165775
20
0.604992
0
VERTEX
8
0
10
0.237775
20
0.604992
0
VERTEX
8
0
10
0.237775
20
0.754992
0
VERTEX
8
0
10
0.165775
20
0.754992
0
VERTEX
8
0
10
0.165775
20
0.604992
0
SEQEND
8
0
0
POLYLINE
8
0
66
1
40
0.008000
41
0.008000
0
VERTEX
8
0
10
0.166775
20
0.629992
0
VERTEX
8
0
10
0.236775
20
0.629992
0
SEQEND
8
0
0
POLYLINE
8
0
66
1
40
0.008000
41
0.008000
0
VERTEX
8
0
10
0.201775
20
0.754992
0
VERTEX
8
0
10
0.201775
20
0.819992
0
SEQEND
8
0
0
POLYLINE
8
0
66
1
40
0.008000
41
0.008000
0
VERTEX
8
0
10
0.201775
20
0.604992
0
VERTEX
8
0
10
0.201775
20
0.539992
0
SEQEND
8
0
0
TEXT
8
0
10
0.226641
20
0.641803
40
0.048000
41
1.041667
50
90.000000
1
D1
0
POLYLINE
8
0
66
1
40
0.008000
41
0.008000
0
VERTEX
8
0
10
0.326854
20
0.292291
0
VERTEX
8
0
10
0.476854
20
0.292291
0
VERTEX
8
0
10
0.476854
20
0.364291
0
VERTEX
8
0
10
0.326854
20
0.364291
0
VERTEX
8
0
10
0.326854
20
0.292291
0
SEQEND
8
0
0
POLYLINE
8
0
66
1
40
0.008000
41
0.008000
0
VERTEX
8
0
10
0.451854
20
0.293291
0
VERTEX
8
0
10
0.451854
20
0.363291
0
SEQEND
8
0
0
POLYLINE
8
0
66
1
40
0.008000
41
0.008000
0
VERTEX
8
0
10
0.326854
20
0.328291
0
VERTEX
8
0
10
0.261854
20
0.328291
0
SEQEND
8
0
0
POLYLINE
8
0
66
1
40
0.008000
41
0.008000
0
VERTEX
8
0
10
0.476854
20
0.328291
0
VERTEX
8
0
10
0.541854
20
0.328291
0
SEQEND
8
0
0
TEXT
8
0
10
0.351854
20
0.305157
40
0.048000
41
1.041667
1
D2
0
CIRCLE
8
0
10
0.777444
20
0.486126
40
0.100000
0
POLYLINE
8
0
66
1
40
0.008000
41
0.008000
0
VERTEX
8
0
10
0.827444
20
0.561126
0
VERTEX
8
0
10
0.827444
20
0.511126
0
SEQEND
8
0
0
POLYLINE
8
0
66
1
40
0.008000
41
0.008000
0
VERTEX
8
0
10
0.852444
20
0.536126
0
VERTEX
8
0
10
0.802444
20
0.536126
0
SEQEND
8
0
0
TEXT
8
0
10
0.935444
20
0.436488
40
0.048000
41
1.041667
50
90.000000
1
C2
0
CIRCLE
8
0
10
-0.040272
20
0.288212
40
0.100000
0
POLYLINE
8
0
66
1
40
0.008000
41
0.008000
0
VERTEX
8
0
10
0.009728
20
0.363212
0
VERTEX
8
0
10
0.009728
20
0.313212
0
SEQEND
8
0
0
POLYLINE
8
0
66
1
40
0.008000
41
0.008000
0
VERTEX
8
0
10
0.034728
20
0.338212
0
VERTEX
8
0
10
-0.015272
20
0.338212
0
SEQEND
8
0
0
TEXT
8
0
10
-0.169674
20
0.234637
40
0.048000
41
1.041667
50
90.000000
1
C4
0
POLYLINE
8
0
66
1
40
0.008000
41
0.008000
0
VERTEX
8
0
10
-0.920230
20
0.491480
0
VERTEX
8
0
10
-0.620230
20
0.491480
0
SEQEND
8
0
0
POLYLINE
8
0
66
1
40
0.008000
41
0.008000
0
VERTEX
8
0
10
-0.620230
20
0.091480
0
VERTEX
8
0
10
-0.920230
20
0.091480
0
SEQEND
8
0
0
POLYLINE
8
0
66
1
40
0.008000
41
0.008000
0
VERTEX
8
0
10
-0.920230
20
0.491480
0
VERTEX
8
0
10
-0.920230
20
0.091480
0
SEQEND
8
0
0
POLYLINE
8
0
66
1
40
0.008000
41
0.008000
0
VERTEX
8
0
10
-0.620230
20
0.491480
0
VERTEX
8
0
10
-0.620230
20
0.091480
0
SEQEND
8
0
0
TEXT
8
0
10
-0.562230
20
0.241481
40
0.048000
41
1.041667
50
90.000000
1
J2
0
POLYLINE
8
0
66
1
40
0.008000
41
0.008000
0
VERTEX
8
0
10
-0.881139
20
-0.754150
0
VERTEX
8
0
10
-0.586139
20
-0.754150
0
VERTEX
8
0
10
-0.586139
20
-0.644150
0
VERTEX
8
0
10
-0.881139
20
-0.644150
0
VERTEX
8
0
10
-0.881139
20
-0.754150
0
SEQEND
8
0
0
POLYLINE
8
0
66
1
40
0.008000
41
0.008000
0
VERTEX
8
0
10
-0.881139
20
-0.644150
0
VERTEX
8
0
10
-0.586139
20
-0.644150
0
VERTEX
8
0
10
-0.586139
20
-0.594150
0
VERTEX
8
0
10
-0.881139
20
-0.594150
0
VERTEX
8
0
10
-0.881139
20
-0.644150
0
VERTEX
8
0
10
-0.846139
20
-0.594150
0
SEQEND
8
0
0
POLYLINE
8
0
66
1
40
0.008000
41
0.008000
0
VERTEX
8
0
10
-0.841139
20
-0.644150
0
VERTEX
8
0
10
-0.811139
20
-0.594150
0
SEQEND
8
0
0
POLYLINE
8
0
66
1
40
0.008000
41
0.008000
0
VERTEX
8
0
10
-0.806139
20
-0.639150
0
VERTEX
8
0
10
-0.781139
20
-0.599150
0
SEQEND
8
0
0
POLYLINE
8
0
66
1
40
0.008000
41
0.008000
0
VERTEX
8
0
10
-0.776139
20
-0.644150
0
VERTEX
8
0
10
-0.746139
20
-0.599150
0
SEQEND
8
0
0
POLYLINE
8
0
66
1
40
0.008000
41
0.008000
0
VERTEX
8
0
10
-0.731139
20
-0.644150
0
VERTEX
8
0
10
-0.701139
20
-0.594150
0
SEQEND
8
0
0
POLYLINE
8
0
66
1
40
0.008000
41
0.008000
0
VERTEX
8
0
10
-0.696139
20
-0.644150
0
VERTEX
8
0
10
-0.671139
20
-0.599150
0
SEQEND
8
0
0
POLYLINE
8
0
66
1
40
0.008000
41
0.008000
0
VERTEX
8
0
10
-0.656139
20
-0.644150
0
VERTEX
8
0
10
-0.631139
20
-0.599150
0
SEQEND
8
0
0
POLYLINE
8
0
66
1
40
0.008000
41
0.008000
0
VERTEX
8
0
10
-0.616139
20
-0.639150
0
VERTEX
8
0
10
-0.596139
20
-0.599150
0
SEQEND
8
0
0
TEXT
8
0
10
-0.833639
20
-0.584150
40
0.048000
41
1.041667
1
3.3V
0
CIRCLE
8
0
10
-0.536926
20
-0.969622
40
0.100000
0
POLYLINE
8
0
66
1
40
0.008000
41
0.008000
0
VERTEX
8
0
10
-0.486926
20
-0.894622
0
VERTEX
8
0
10
-0.486926
20
-0.944622
0
SEQEND
8
0
0
POLYLINE
8
0
66
1
40
0.008000
41
0.008000
0
VERTEX
8
0
10
-0.461926
20
-0.919622
0
VERTEX
8
0
10
-0.511926
20
-0.919622
0
SEQEND
8
0
0
TEXT
8
0
10
-0.378926
20
-1.019260
40
0.048000
41
1.041667
50
90.000000
1
C5
0
CIRCLE
8
0
10
-0.783776
20
-0.903874
40
0.100000
0
POLYLINE
8
0
66
1
40
0.008000
41
0.008000
0
VERTEX
8
0
10
-0.708776
20
-0.953874
0
VERTEX
8
0
10
-0.758776
20
-0.953874
0
SEQEND
8
0
0
POLYLINE
8
0
66
1
40
0.008000
41
0.008000
0
VERTEX
8
0
10
-0.733776
20
-0.978874
0
VERTEX
8
0
10
-0.733776
20
-0.928874
0
SEQEND
8
0
0
TEXT
8
0
10
-0.833414
20
-1.061874
40
0.048000
41
1.041667
1
C3
0
POLYLINE
8
0
66
1
40
0.008000
41
0.008000
0
VERTEX
8
0
10
0.039058
20
-0.820016
0
VERTEX
8
0
10
-0.010942
20
-0.820016
0
SEQEND
8
0
0
POLYLINE
8
0
66
1
40
0.008000
41
0.008000
0
VERTEX
8
0
10
-0.060942
20
-0.770016
0
VERTEX
8
0
10
-0.071129
20
-0.770975
0
VERTEX
8
0
10
-0.080567
20
-0.773750
0
VERTEX
8
0
10
-0.089067
20
-0.778190
0
VERTEX
8
0
10
-0.096442
20
-0.784141
0
VERTEX
8
0
10
-0.102504
20
-0.791452
0
VERTEX
8
0
10
-0.107067
20
-0.799969
0
VERTEX
8
0
10
-0.109942
20
-0.809541
0
VERTEX
8
0
10
-0.110942
20
-0.820016
0
SEQEND
8
0
0
POLYLINE
8
0
66
1
40
0.008000
41
0.008000
0
VERTEX
8
0
10
-0.060942
20
-0.770016
0
VERTEX
8
0
10
-0.050467
20
-0.770975
0
VERTEX
8
0
10
-0.040895
20
-0.773750
0
VERTEX
8
0
10
-0.032377
20
-0.778190
0
VERTEX
8
0
10
-0.025067
20
-0.784141
0
VERTEX
8
0
10
-0.019116
20
-0.791452
0
VERTEX
8
0
10
-0.014676
20
-0.799969
0
VERTEX
8
0
10
-0.011901
20
-0.809541
0
VERTEX
8
0
10
-0.010942
20
-0.820016
0
SEQEND
8
0
0
POLYLINE
8
0
66
1
40
0.008000
41
0.008000
0
VERTEX
8
0
10
-0.110942
20
-0.820016
0
VERTEX
8
0
10
-0.160942
20
-0.820016
0
SEQEND
8
0
0
POLYLINE
8
0
66
1
40
0.008000
41
0.008000
0
VERTEX
8
0
10
0.039058
20
0.079984
0
VERTEX
8
0
10
-0.160942
20
0.079984
0
SEQEND
8
0
0
POLYLINE
8
0
66
1
40
0.008000
41
0.008000
0
VERTEX
8
0
10
0.039058
20
-0.820016
0
VERTEX
8
0
10
0.039058
20
0.079984
0
SEQEND
8
0
0
POLYLINE
8
0
66
1
40
0.008000
41
0.008000
0
VERTEX
8
0
10
-0.160942
20
0.079984
0
VERTEX
8
0
10
-0.160942
20
-0.820016
0
SEQEND
8
0
0
TEXT
8
0
10
-0.110942
20
-0.878016
40
0.048000
41
1.041667
1
U2
0
POLYLINE
8
0
66
1
40
0.008000
41
0.008000
0
VERTEX
8
0
10
0.179106
20
-0.206473
0
VERTEX
8
0
10
0.679106
20
-0.206473
0
VERTEX
8
0
10
0.679106
20
0.043527
0
VERTEX
8
0
10
0.179106
20
0.043527
0
VERTEX
8
0
10
0.179106
20
-0.206473
0
SEQEND
8
0
0
POLYLINE
8
0
66
1
40
0.008000
41
0.008000
0
VERTEX
8
0
10
0.179106
20
-0.006473
0
VERTEX
8
0
10
0.679106
20
-0.006473
0
SEQEND
8
0
0
TEXT
8
0
10
0.204106
20
-0.009465
40
0.048000
41
1.041667
1
BLUETOOTH
0
POLYLINE
8
0
66
1
40
0.008000
41
0.008000
0
VERTEX
8
0
10
0.142995
20
0.123937
0
VERTEX
8
0
10
0.192995
20
0.123937
0
SEQEND
8
0
0
POLYLINE
8
0
66
1
40
0.008000
41
0.008000
0
VERTEX
8
0
10
0.192995
20
0.098937
0
VERTEX
8
0
10
0.392995
20
0.098937
0
VERTEX
8
0
10
0.392995
20
0.148937
0
VERTEX
8
0
10
0.192995
20
0.148937
0
VERTEX
8
0
10
0.192995
20
0.098937
0
SEQEND
8
0
0
POLYLINE
8
0
66
1
40
0.008000
41
0.008000
0
VERTEX
8
0
10
0.392995
20
0.123937
0
VERTEX
8
0
10
0.442995
20
0.123937
0
SEQEND
8
0
0
TEXT
8
0
10
0.242995
20
0.158937
40
0.048000
41
1.041667
1
R2
0
POLYLINE
8
0
66
1
40
0.008000
41
0.008000
0
VERTEX
8
0
10
0.731972
20
-0.043638
0
VERTEX
8
0
10
0.831972
20
-0.043638
0
VERTEX
8
0
10
0.831972
20
0.256362
0
VERTEX
8
0
10
0.731972
20
0.256362
0
VERTEX
8
0
10
0.731972
20
-0.043638
0
SEQEND
8
0
0
TEXT
8
0
10
0.889972
20
0.056362
40
0.048000
41
1.041667
50
90.000000
1
Q3
0
POLYLINE
8
0
66
1
40
0.008000
41
0.008000
0
VERTEX
8
0
10
0.253980
20
-0.857764
0
VERTEX
8
0
10
0.498074
20
-0.857764
0
VERTEX
8
0
10
0.498074
20
-0.617606
0
VERTEX
8
0
10
0.253980
20
-0.617606
0
VERTEX
8
0
10
0.253980
20
-0.857764
0
SEQEND
8
0
0
TEXT
8
0
10
0.276027
20
-0.607606
40
0.048000
41
1.041667
1
BOT1
0
POLYLINE
8
0
66
1
40
0.008000
41
0.008000
0
VERTEX
8
0
10
0.671735
20
-0.582221
0
VERTEX
8
0
10
0.671735
20
-0.532221
0
SEQEND
8
0
0
POLYLINE
8
0
66
1
40
0.008000
41
0.008000
0
VERTEX
8
0
10
0.646735
20
-0.532221
0
VERTEX
8
0
10
0.696735
20
-0.532221
0
VERTEX
8
0
10
0.696735
20
-0.332221
0
VERTEX
8
0
10
0.646735
20
-0.332221
0
VERTEX
8
0
10
0.646735
20
-0.532221
0
SEQEND
8
0
0
POLYLINE
8
0
66
1
40
0.008000
41
0.008000
0
VERTEX
8
0
10
0.671735
20
-0.332221
0
VERTEX
8
0
10
0.671735
20
-0.282221
0
SEQEND
8
0
0
TEXT
8
0
10
0.636735
20
-0.482221
40
0.048000
41
1.041667
50
90.000000
1
R5
0
POLYLINE
8
0
66
1
40
0.008000
41
0.008000
0
VERTEX
8
0
10
0.220847
20
-0.456129
0
VERTEX
8
0
10
0.267206
20
-0.437398
0
SEQEND
8
0
0
POLYLINE
8
0
66
1
40
0.008000
41
0.008000
0
VERTEX
8
0
10
0.276571
20
-0.460578
0
VERTEX
8
0
10
0.462008
20
-0.385657
0
VERTEX
8
0
10
0.443278
20
-0.339298
0
VERTEX
8
0
10
0.257841
20
-0.414219
0
VERTEX
8
0
10
0.276571
20
-0.460578
0
SEQEND
8
0
0
POLYLINE
8
0
66
1
40
0.008000
41
0.008000
0
VERTEX
8
0
10
0.452643
20
-0.362477
0
VERTEX
8
0
10
0.499002
20
-0.343747
0
SEQEND
8
0
0
TEXT
8
0
10
0.277274
20
-0.395582
40
0.048000
41
1.041667
50
22.000000
1
R19
0
CIRCLE
8
0
10
-0.430627
20
-0.418441
40
0.100000
0
POLYLINE
8
0
66
1
40
0.008000
41
0.008000
0
VERTEX
8
0
10
-0.380627
20
-0.343441
0
VERTEX
8
0
10
-0.380627
20
-0.393441
0
SEQEND
8
0
0
POLYLINE
8
0
66
1
40
0.008000
41
0.008000
0
VERTEX
8
0
10
-0.355627
20
-0.368441
0
VERTEX
8
0
10
-0.405627
20
-0.368441
0
SEQEND
8
0
0
TEXT
8
0
10
-0.471627
20
-0.466079
40
0.048000
41
1.041667
50
90.000000
1
C1
0
POLYLINE
8
0
66
1
40
0.008000
41
0.008000
0
VERTEX
8
0
10
-0.362555
20
-0.481585
0
VERTEX
8
0
10
-0.416310
20
-0.621622
0
VERTEX
8
0
10
-0.349092
20
-0.647424
0
VERTEX
8
0
10
-0.295337
20
-0.507387
0
VERTEX
8
0
10
-0.362555
20
-0.481585
0
SEQEND
8
0
0
POLYLINE
8
0
66
1
40
0.008000
41
0.008000
0
VERTEX
8
0
10
-0.305230
20
-0.530368
0
VERTEX
8
0
10
-0.370580
20
-0.505282
0
SEQEND
8
0
0
POLYLINE
8
0
66
1
40
0.008000
41
0.008000
0
VERTEX
8
0
10
-0.382701
20
-0.634523
0
VERTEX
8
0
10
-0.405995
20
-0.695206
0
SEQEND
8
0
0
POLYLINE
8
0
66
1
40
0.008000
41
0.008000
0
VERTEX
8
0
10
-0.328946
20
-0.494486
0
VERTEX
8
0
10
-0.305652
20
-0.433803
0
SEQEND
8
0
0
TEXT
8
0
10
-0.285985
20
-0.644870
40
0.048000
41
1.041667
50
69.000000
1
D3
0
POLYLINE
8
0
66
1
40
0.008000
41
0.008000
0
VERTEX
8
0
10
-0.431107
20
0.311680
0
VERTEX
8
0
10
-0.806684
20
-0.394678
0
VERTEX
8
0
10
-0.674242
20
-0.465098
0
VERTEX
8
0
10
-0.298665
20
0.241259
0
VERTEX
8
0
10
-0.431107
20
0.311680
0
SEQEND
8
0
0
TEXT
8
0
10
-0.493926
20
-0.249517
40
0.048000
41
1.041667
50
62.000000
1
RC522
0
POLYLINE
8
0
66
1
40
0.008000
41
0.008000
0
VERTEX
8
0
10
-0.089099
20
-1.028244
0
VERTEX
8
0
10
0.210901
20
-1.028244
0
VERTEX
8
0
10
0.210901
20
-0.928244
0
VERTEX
8
0
10
-0.089099
20
-0.928244
0
VERTEX
8
0
10
-0.089099
20
-1.028244
0
SEQEND
8
0
0
TEXT
8
0
10
0.010901
20
-0.918244
40
0.048000
41
1.041667
1
J1
0
POLYLINE
8
0
66
1
40
0.008000
41
0.008000
0
VERTEX
8
0
10
-0.965934
20
-1.120410
0
VERTEX
8
0
10
1.089058
20
-1.120410
0
VERTEX
8
0
10
1.089058
20
1.217858
0
VERTEX
8
0
10
-0.965934
20
1.217858
0
VERTEX
8
0
10
-0.965934
20
-1.120410
0
SEQEND
8
0
0
POLYLINE
8
0
66
1
40
0.036000
41
0.036000
0
VERTEX
8
0
10
-0.210942
20
0.029984
0
VERTEX
8
0
10
-0.210942
20
0.042505
0
VERTEX
8
0
10
-0.359627
20
0.191190
0
VERTEX
8
0
10
-0.388359
20
0.232322
0
SEQEND
8
0
0
POLYLINE
8
0
66
1
40
0.036000
41
0.036000
0
VERTEX
8
0
10
-0.210942
20
-0.170016
0
VERTEX
8
0
10
-0.256504
20
-0.170016
0
VERTEX
8
0
10
-0.482253
20
0.055733
0
SEQEND
8
0
0
POLYLINE
8
0
66
1
40
0.036000
41
0.036000
0
VERTEX
8
0
10
-0.210942
20
-0.270016
0
VERTEX
8
0
10
-0.291746
20
-0.270016
0
VERTEX
8
0
10
-0.529200
20
-0.032562
0
SEQEND
8
0
0
POLYLINE
8
0
66
1
40
0.036000
41
0.036000
0
VERTEX
8
0
10
-0.430627
20
-0.468441
0
VERTEX
8
0
10
-0.458543
20
-0.468441
0
VERTEX
8
0
10
-0.546393
20
-0.380592
0
VERTEX
8
0
10
-0.546393
20
-0.289462
0
VERTEX
8
0
10
-0.585571
20
-0.250284
0
VERTEX
8
0
10
-0.623095
20
-0.209151
0
SEQEND
8
0
0
POLYLINE
8
0
66
1
40
0.036000
41
0.036000
0
VERTEX
8
0
10
-0.287259
20
-0.374680
0
VERTEX
8
0
10
-0.215605
20
-0.374680
0
VERTEX
8
0
10
-0.210942
20
-0.370016
0
SEQEND
8
0
0
POLYLINE
8
0
66
1
40
0.036000
41
0.036000
0
VERTEX
8
0
10
-0.430627
20
-0.368441
0
VERTEX
8
0
10
-0.293497
20
-0.368441
0
VERTEX
8
0
10
-0.287259
20
-0.374680
0
VERTEX
8
0
10
-0.284150
20
-0.377788
0
SEQEND
8
0
0
POLYLINE
8
0
66
1
40
0.036000
41
0.036000
0
VERTEX
8
0
10
-0.040272
20
0.238212
0
VERTEX
8
0
10
-0.040272
20
0.235037
0
SEQEND
8
0
0
POLYLINE
8
0
66
1
40
0.036000
41
0.036000
0
VERTEX
8
0
10
0.781972
20
0.206362
0
VERTEX
8
0
10
0.781972
20
0.218173
0
VERTEX
8
0
10
0.781972
20
0.293842
0
VERTEX
8
0
10
0.747523
20
0.328291
0
VERTEX
8
0
10
0.601854
20
0.328291
0
SEQEND
8
0
0
POLYLINE
8
0
66
1
40
0.036000
41
0.036000
0
VERTEX
8
0
10
0.781972
20
0.218173
0
VERTEX
8
0
10
0.801657
20
0.218173
0
SEQEND
8
0
0
POLYLINE
8
0
66
1
40
0.036000
41
0.036000
0
VERTEX
8
0
10
0.089058
20
-0.470016
0
VERTEX
8
0
10
0.169645
20
-0.470016
0
VERTEX
8
0
10
0.174488
20
-0.474859
0
SEQEND
8
0
0
POLYLINE
8
0
66
1
40
0.036000
41
0.036000
0
VERTEX
8
0
10
0.777444
20
0.436126
0
VERTEX
8
0
10
0.716578
20
0.436126
0
VERTEX
8
0
10
0.636854
20
0.356401
0
VERTEX
8
0
10
0.601854
20
0.328291
0
SEQEND
8
0
0
POLYLINE
8
0
66
1
40
0.036000
41
0.036000
0
VERTEX
8
0
10
0.781972
20
0.206362
0
VERTEX
8
0
10
0.789846
20
0.206362
0
VERTEX
8
0
10
0.860673
20
0.206362
0
VERTEX
8
0
10
0.921004
20
0.146031
0
VERTEX
8
0
10
0.921004
20
-0.136020
0
VERTEX
8
0
10
0.882542
20
-0.174482
0
VERTEX
8
0
10
0.729474
20
-0.174482
0
VERTEX
8
0
10
0.671735
20
-0.232221
0
SEQEND
8
0
0
POLYLINE
8
0
66
1
40
0.036000
41
0.036000
0
VERTEX
8
0
10
0.781972
20
0.206362
0
VERTEX
8
0
10
0.781972
20
0.198488
0
VERTEX
8
0
10
0.789846
20
0.206362
0
VERTEX
8
0
10
0.801657
20
0.218173
0
SEQEND
8
0
0
POLYLINE
8
0
66
1
40
0.036000
41
0.036000
0
VERTEX
8
0
10
0.778035
20
-0.396000
0
VERTEX
8
0
10
1.011563
20
-0.162472
0
VERTEX
8
0
10
1.011563
20
0.216743
0
VERTEX
8
0
10
1.011563
20
0.398030
0
VERTEX
8
0
10
0.876460
20
0.533133
0
VERTEX
8
0
10
0.780436
20
0.533133
0
VERTEX
8
0
10
0.777444
20
0.536126
0
SEQEND
8
0
0
POLYLINE
8
0
66
1
40
0.036000
41
0.036000
0
VERTEX
8
0
10
-0.427497
20
-0.751220
0
VERTEX
8
0
10
-0.579068
20
-0.751220
0
VERTEX
8
0
10
-0.631139
20
-0.699150
0
SEQEND
8
0
0
POLYLINE
8
0
66
1
40
0.036000
41
0.036000
0
VERTEX
8
0
10
-0.536926
20
-0.919622
0
VERTEX
8
0
10
-0.427497
20
-0.810194
0
VERTEX
8
0
10
-0.427497
20
-0.751220
0
SEQEND
8
0
0
POLYLINE
8
0
66
1
40
0.036000
41
0.036000
0
VERTEX
8
0
10
-0.736139
20
-0.699150
0
VERTEX
8
0
10
-0.736139
20
-0.908839
0
VERTEX
8
0
10
-0.739990
20
-0.912691
0
VERTEX
8
0
10
-0.733776
20
-0.903874
0
SEQEND
8
0
0
POLYLINE
8
0
66
1
40
0.036000
41
0.036000
0
VERTEX
8
0
10
-0.736139
20
-0.699150
0
VERTEX
8
0
10
-0.736139
20
-0.404891
0
VERTEX
8
0
10
-0.716989
20
-0.385741
0
SEQEND
8
0
0
POLYLINE
8
0
66
1
40
0.036000
41
0.036000
0
VERTEX
8
0
10
-0.840076
20
-0.246394
0
VERTEX
8
0
10
-0.754302
20
-0.160621
0
VERTEX
8
0
10
-0.671625
20
-0.160621
0
SEQEND
8
0
0
POLYLINE
8
0
66
1
40
0.036000
41
0.036000
0
VERTEX
8
0
10
-0.623095
20
-0.209151
0
VERTEX
8
0
10
-0.671625
20
-0.160621
0
SEQEND
8
0
0
POLYLINE
8
0
66
1
40
0.036000
41
0.036000
0
VERTEX
8
0
10
-0.840076
20
-0.246394
0
VERTEX
8
0
10
-0.840076
20
-0.695213
0
VERTEX
8
0
10
-0.833776
20
-0.701512
0
VERTEX
8
0
10
-0.836139
20
-0.699150
0
SEQEND
8
0
0
POLYLINE
8
0
66
1
40
0.036000
41
0.036000
0
VERTEX
8
0
10
-0.833776
20
-0.903874
0
VERTEX
8
0
10
-0.833776
20
-0.701512
0
SEQEND
8
0
0
POLYLINE
8
0
66
1
40
0.036000
41
0.036000
0
VERTEX
8
0
10
-0.040272
20
0.235037
0
VERTEX
8
0
10
-0.040272
20
-0.325725
0
VERTEX
8
0
10
0.004019
20
-0.370016
0
VERTEX
8
0
10
0.089058
20
-0.370016
0
SEQEND
8
0
0
POLYLINE
8
0
66
1
40
0.036000
41
0.036000
0
VERTEX
8
0
10
-0.040272
20
0.235037
0
VERTEX
8
0
10
-0.019471
20
0.214236
0
VERTEX
8
0
10
0.550554
20
0.214236
0
VERTEX
8
0
10
0.585121
20
0.253606
0
VERTEX
8
0
10
0.601854
20
0.328291
0
SEQEND
8
0
0
POLYLINE
8
0
66
1
40
0.036000
41
0.036000
0
VERTEX
8
0
10
-0.040272
20
0.238212
0
VERTEX
8
0
10
-0.215496
20
0.238212
0
VERTEX
8
0
10
-0.202280
20
0.238212
0
VERTEX
8
0
10
-0.411216
20
0.359433
0
SEQEND
8
0
0
POLYLINE
8
0
66
1
40
0.036000
41
0.036000
0
VERTEX
8
0
10
0.778035
20
-0.396000
0
VERTEX
8
0
10
0.778035
20
-0.738520
0
VERTEX
8
0
10
0.447326
20
-1.069229
0
VERTEX
8
0
10
-0.204435
20
-1.069229
0
VERTEX
8
0
10
-0.427497
20
-0.846166
0
VERTEX
8
0
10
-0.427497
20
-0.810194
0
SEQEND
8
0
0
POLYLINE
8
0
66
1
40
0.036000
41
0.036000
0
VERTEX
8
0
10
-0.411216
20
0.359433
0
VERTEX
8
0
10
-0.421436
20
0.359433
0
SEQEND
8
0
0
POLYLINE
8
0
66
1
40
0.036000
41
0.036000
0
VERTEX
8
0
10
-0.411216
20
0.359433
0
VERTEX
8
0
10
-0.418816
20
0.363842
0
VERTEX
8
0
10
-0.421436
20
0.359433
0
SEQEND
8
0
0
POLYLINE
8
0
66
1
40
0.036000
41
0.036000
0
VERTEX
8
0
10
-0.678572
20
-0.085024
0
VERTEX
8
0
10
-0.703072
20
-0.129174
0
VERTEX
8
0
10
-0.671625
20
-0.160621
0
SEQEND
8
0
0
POLYLINE
8
0
66
1
40
0.036000
41
0.036000
0
VERTEX
8
0
10
0.201775
20
0.479992
0
VERTEX
8
0
10
0.201775
20
0.328370
0
VERTEX
8
0
10
0.201854
20
0.328291
0
SEQEND
8
0
0
POLYLINE
8
0
66
1
40
0.036000
41
0.036000
0
VERTEX
8
0
10
0.498074
20
-0.735717
0
VERTEX
8
0
10
0.498074
20
-0.372304
0
VERTEX
8
0
10
0.545361
20
-0.325016
0
SEQEND
8
0
0
POLYLINE
8
0
66
1
40
0.036000
41
0.036000
0
VERTEX
8
0
10
0.089058
20
-0.270016
0
VERTEX
8
0
10
0.134471
20
-0.270016
0
VERTEX
8
0
10
0.321616
20
-0.457161
0
VERTEX
8
0
10
0.321616
20
-0.668080
0
VERTEX
8
0
10
0.253980
20
-0.735717
0
VERTEX
8
0
10
0.378302
20
-0.860039
0
VERTEX
8
0
10
0.525453
20
-0.860039
0
VERTEX
8
0
10
0.671735
20
-0.713756
0
VERTEX
8
0
10
0.671735
20
-0.632221
0
SEQEND
8
0
0
POLYLINE
8
0
66
1
40
0.036000
41
0.036000
0
VERTEX
8
0
10
-0.421436
20
0.359433
0
VERTEX
8
0
10
-0.580233
20
0.092189
0
VERTEX
8
0
10
-0.678572
20
-0.085024
0
SEQEND
8
0
0
POLYLINE
8
0
66
1
40
0.036000
41
0.036000
0
VERTEX
8
0
10
-0.536926
20
-1.019622
0
VERTEX
8
0
10
-0.572444
20
-1.055141
0
VERTEX
8
0
10
-0.767494
20
-1.055141
0
VERTEX
8
0
10
-0.836856
20
-0.985779
0
VERTEX
8
0
10
-0.836856
20
-0.897021
0
VERTEX
8
0
10
-0.833776
20
-0.903874
0
SEQEND
8
0
0
POLYLINE
8
0
66
1
40
0.036000
41
0.036000
0
VERTEX
8
0
10
-0.210942
20
-0.470016
0
VERTEX
8
0
10
-0.276887
20
-0.470016
0
VERTEX
8
0
10
-0.399721
20
-0.592851
0
VERTEX
8
0
10
-0.496100
20
-0.592851
0
VERTEX
8
0
10
-0.611729
20
-0.477221
0
VERTEX
8
0
10
-0.611729
20
-0.364504
0
VERTEX
8
0
10
-0.672515
20
-0.303719
0
VERTEX
8
0
10
-0.677365
20
-0.303719
0
VERTEX
8
0
10
-0.670042
20
-0.297446
0
SEQEND
8
0
0
POLYLINE
8
0
66
1
40
0.036000
41
0.036000
0
VERTEX
8
0
10
-0.210942
20
-0.070016
0
VERTEX
8
0
10
-0.250619
20
-0.070016
0
VERTEX
8
0
10
-0.435307
20
0.114673
0
VERTEX
8
0
10
-0.435306
20
0.144028
0
SEQEND
8
0
0
POLYLINE
8
0
66
1
40
0.036000
41
0.036000
0
VERTEX
8
0
10
-0.678572
20
-0.085024
0
VERTEX
8
0
10
-0.738573
20
-0.085024
0
VERTEX
8
0
10
-0.738573
20
0.162823
0
VERTEX
8
0
10
-0.770230
20
0.194480
0
SEQEND
8
0
0
POLYLINE
8
0
66
1
40
0.036000
41
0.036000
0
VERTEX
8
0
10
-0.040272
20
0.338212
0
VERTEX
8
0
10
-0.040272
20
0.455817
0
SEQEND
8
0
0
POLYLINE
8
0
66
1
40
0.036000
41
0.036000
0
VERTEX
8
0
10
0.002468
20
0.867307
0
VERTEX
8
0
10
0.146460
20
0.867307
0
VERTEX
8
0
10
0.201775
20
0.811992
0
VERTEX
8
0
10
0.201775
20
0.879992
0
SEQEND
8
0
0
POLYLINE
8
0
66
1
40
0.036000
41
0.036000
0
VERTEX
8
0
10
-0.040272
20
0.455817
0
VERTEX
8
0
10
-0.052272
20
0.455817
0
VERTEX
8
0
10
-0.052272
20
0.712566
0
VERTEX
8
0
10
0.002468
20
0.767307
0
SEQEND
8
0
0
POLYLINE
8
0
66
1
40
0.036000
41
0.036000
0
VERTEX
8
0
10
-0.770230
20
0.391480
0
VERTEX
8
0
10
-0.705893
20
0.455817
0
VERTEX
8
0
10
-0.052272
20
0.455817
0
SEQEND
8
0
0
POLYLINE
8
0
66
1
40
0.036000
41
0.036000
0
VERTEX
8
0
10
0.777444
20
0.536126
0
VERTEX
8
0
10
0.777444
20
0.623921
0
VERTEX
8
0
10
0.434058
20
0.967307
0
VERTEX
8
0
10
0.002468
20
0.967307
0
SEQEND
8
0
0
POLYLINE
8
0
66
1
40
0.036000
41
0.036000
0
VERTEX
8
0
10
0.545361
20
-0.325016
0
VERTEX
8
0
10
0.595361
20
-0.325016
0
SEQEND
8
0
0
POLYLINE
8
0
66
1
40
0.036000
41
0.036000
0
VERTEX
8
0
10
0.479106
20
-0.106473
0
VERTEX
8
0
10
0.479106
20
-0.044250
0
VERTEX
8
0
10
0.512141
20
-0.011214
0
VERTEX
8
0
10
0.764396
20
-0.011214
0
VERTEX
8
0
10
0.781972
20
0.006362
0
SEQEND
8
0
0
POLYLINE
8
0
66
1
40
0.036000
41
0.036000
0
VERTEX
8
0
10
0.595361
20
-0.325016
0
VERTEX
8
0
10
0.613361
20
-0.325016
0
VERTEX
8
0
10
0.579106
20
-0.290760
0
VERTEX
8
0
10
0.579106
20
-0.106473
0
SEQEND
8
0
0
POLYLINE
8
0
66
1
40
0.036000
41
0.036000
0
VERTEX
8
0
10
0.613361
20
-0.325016
0
VERTEX
8
0
10
0.702660
20
-0.325016
0
VERTEX
8
0
10
0.773644
20
-0.396000
0
VERTEX
8
0
10
0.778035
20
-0.396000
0
SEQEND
8
0
0
POLYLINE
8
0
66
1
40
0.036000
41
0.036000
0
VERTEX
8
0
10
0.089058
20
-0.070016
0
VERTEX
8
0
10
0.089058
20
-0.055292
0
VERTEX
8
0
10
0.232452
20
-0.055292
0
VERTEX
8
0
10
0.289583
20
-0.112422
0
VERTEX
8
0
10
0.279106
20
-0.106473
0
SEQEND
8
0
0
POLYLINE
8
0
66
1
40
0.036000
41
0.036000
0
VERTEX
8
0
10
0.089058
20
-0.170016
0
VERTEX
8
0
10
0.089058
20
-0.160016
0
VERTEX
8
0
10
0.130924
20
-0.201882
0
VERTEX
8
0
10
0.309680
20
-0.201882
0
VERTEX
8
0
10
0.379106
20
-0.132457
0
VERTEX
8
0
10
0.379106
20
-0.106473
0
SEQEND
8
0
0
POLYLINE
8
0
66
1
40
0.036000
41
0.036000
0
VERTEX
8
0
10
0.089058
20
0.029984
0
VERTEX
8
0
10
0.089058
20
0.120000
0
VERTEX
8
0
10
0.092995
20
0.123937
0
SEQEND
8
0
0
POLYLINE
8
0
66
1
40
0.036000
41
0.036000
0
VERTEX
8
0
10
0.781972
20
0.106362
0
VERTEX
8
0
10
0.510570
20
0.106362
0
VERTEX
8
0
10
0.492995
20
0.123937
0
SEQEND
8
0
0
POLYLINE
8
0
66
1
40
0.036000
41
0.036000
0
VERTEX
8
0
10
0.160901
20
-0.978244
0
VERTEX
8
0
10
0.160901
20
-0.957536
0
VERTEX
8
0
10
-0.010753
20
-0.785882
0
VERTEX
8
0
10
-0.010753
20
-0.573297
0
VERTEX
8
0
10
-0.207661
20
-0.573297
0
VERTEX
8
0
10
-0.210942
20
-0.570016
0
SEQEND
8
0
0
POLYLINE
8
0
66
1
40
0.036000
41
0.036000
0
VERTEX
8
0
10
-0.039099
20
-0.978244
0
VERTEX
8
0
10
-0.131391
20
-0.978244
0
VERTEX
8
0
10
-0.224753
20
-0.884882
0
VERTEX
8
0
10
-0.224753
20
-0.770016
0
VERTEX
8
0
10
-0.210942
20
-0.770016
0
SEQEND
8
0
0
POLYLINE
8
0
66
1
40
0.036000
41
0.036000
0
VERTEX
8
0
10
0.060901
20
-0.978244
0
VERTEX
8
0
10
0.060901
20
-0.954535
0
VERTEX
8
0
10
-0.045226
20
-0.848408
0
VERTEX
8
0
10
-0.102455
20
-0.848408
0
VERTEX
8
0
10
-0.127477
20
-0.823386
0
VERTEX
8
0
10
-0.127477
20
-0.714898
0
VERTEX
8
0
10
-0.172359
20
-0.670016
0
VERTEX
8
0
10
-0.210942
20
-0.670016
0
SEQEND
8
0
0
POLYLINE
8
0
66
1
40
0.000000
41
0.000000
0
VERTEX
8
0
10
-0.928934
20
0.555247
0
VERTEX
8
0
10
-0.928934
20
0.555247
0
SEQEND
8
0
0
POLYLINE
8
0
66
1
40
0.000000
41
0.000000
0
VERTEX
8
0
10
-0.928934
20
0.559184
0
VERTEX
8
0
10
-0.110753
20
0.559184
0
SEQEND
8
0
0
POLYLINE
8
0
66
1
40
0.000000
41
0.000000
0
VERTEX
8
0
10
-0.928934
20
0.563121
0
VERTEX
8
0
10
-0.110753
20
0.563121
0
SEQEND
8
0
0
POLYLINE
8
0
66
1
40
0.000000
41
0.000000
0
VERTEX
8
0
10
-0.928934
20
0.567058
0
VERTEX
8
0
10
-0.110753
20
0.567058
0
SEQEND
8
0
0
POLYLINE
8
0
66
1
40
0.000000
41
0.000000
0
VERTEX
8
0
10
-0.928934
20
0.570995
0
VERTEX
8
0
10
-0.110753
20
0.570995
0
SEQEND
8
0
0
POLYLINE
8
0
66
1
40
0.000000
41
0.000000
0
VERTEX
8
0
10
-0.928934
20
0.574932
0
VERTEX
8
0
10
-0.110753
20
0.574932
0
SEQEND
8
0
0
POLYLINE
8
0
66
1
40
0.000000
41
0.000000
0
VERTEX
8
0
10
-0.928934
20
0.578869
0
VERTEX
8
0
10
-0.110753
20
0.578869
0
SEQEND
8
0
0
POLYLINE
8
0
66
1
40
0.000000
41
0.000000
0
VERTEX
8
0
10
-0.928934
20
0.582806
0
VERTEX
8
0
10
-0.110753
20
0.582806
0
SEQEND
8
0
0
POLYLINE
8
0
66
1
40
0.000000
41
0.000000
0
VERTEX
8
0
10
-0.928934
20
0.586743
0
VERTEX
8
0
10
-0.110753
20
0.586743
0
SEQEND
8
0
0
POLYLINE
8
0
66
1
40
0.000000
41
0.000000
0
VERTEX
8
0
10
-0.928934
20
0.590680
0
VERTEX
8
0
10
-0.110753
20
0.590680
0
SEQEND
8
0
0
POLYLINE
8
0
66
1
40
0.000000
41
0.000000
0
VERTEX
8
0
10
-0.928934
20
0.594617
0
VERTEX
8
0
10
-0.110753
20
0.594617
0
SEQEND
8
0
0
POLYLINE
8
0
66
1
40
0.000000
41
0.000000
0
VERTEX
8
0
10
-0.928934
20
0.598554
0
VERTEX
8
0
10
-0.110753
20
0.598554
0
SEQEND
8
0
0
POLYLINE
8
0
66
1
40
0.000000
41
0.000000
0
VERTEX
8
0
10
-0.928934
20
0.602491
0
VERTEX
8
0
10
-0.110753
20
0.602491
0
SEQEND
8
0
0
POLYLINE
8
0
66
1
40
0.000000
41
0.000000
0
VERTEX
8
0
10
-0.928934
20
0.606428
0
VERTEX
8
0
10
-0.110753
20
0.606428
0
SEQEND
8
0
0
POLYLINE
8
0
66
1
40
0.000000
41
0.000000
0
VERTEX
8
0
10
-0.928934
20
0.610365
0
VERTEX
8
0
10
-0.110753
20
0.610365
0
SEQEND
8
0
0
POLYLINE
8
0
66
1
40
0.000000
41
0.000000
0
VERTEX
8
0
10
-0.928934
20
0.614302
0
VERTEX
8
0
10
-0.110753
20
0.614302
0
SEQEND
8
0
0
POLYLINE
8
0
66
1
40
0.000000
41
0.000000
0
VERTEX
8
0
10
-0.928934
20
0.618239
0
VERTEX
8
0
10
-0.110753
20
0.618239
0
SEQEND
8
0
0
POLYLINE
8
0
66
1
40
0.000000
41
0.000000
0
VERTEX
8
0
10
-0.928934
20
0.622176
0
VERTEX
8
0
10
-0.110753
20
0.622176
0
SEQEND
8
0
0
POLYLINE
8
0
66
1
40
0.000000
41
0.000000
0
VERTEX
8
0
10
-0.928934
20
0.626113
0
VERTEX
8
0
10
-0.110753
20
0.626113
0
SEQEND
8
0
0
POLYLINE
8
0
66
1
40
0.000000
41
0.000000
0
VERTEX
8
0
10
-0.928934
20
0.630050
0
VERTEX
8
0
10
-0.110753
20
0.630050
0
SEQEND
8
0
0
POLYLINE
8
0
66
1
40
0.000000
41
0.000000
0
VERTEX
8
0
10
-0.928934
20
0.633987
0
VERTEX
8
0
10
-0.110753
20
0.633987
0
SEQEND
8
0
0
POLYLINE
8
0
66
1
40
0.000000
41
0.000000
0
VERTEX
8
0
10
-0.928934
20
0.637924
0
VERTEX
8
0
10
-0.110753
20
0.637924
0
SEQEND
8
0
0
POLYLINE
8
0
66
1
40
0.000000
41
0.000000
0
VERTEX
8
0
10
-0.928934
20
0.641861
0
VERTEX
8
0
10
-0.110753
20
0.641861
0
SEQEND
8
0
0
POLYLINE
8
0
66
1
40
0.000000
41
0.000000
0
VERTEX
8
0
10
-0.928934
20
0.645798
0
VERTEX
8
0
10
-0.110753
20
0.645798
0
SEQEND
8
0
0
POLYLINE
8
0
66
1
40
0.000000
41
0.000000
0
VERTEX
8
0
10
-0.928934
20
0.649735
0
VERTEX
8
0
10
-0.110753
20
0.649735
0
SEQEND
8
0
0
POLYLINE
8
0
66
1
40
0.000000
41
0.000000
0
VERTEX
8
0
10
-0.928934
20
0.653672
0
VERTEX
8
0
10
-0.110753
20
0.653672
0
SEQEND
8
0
0
POLYLINE
8
0
66
1
40
0.000000
41
0.000000
0
VERTEX
8
0
10
-0.928934
20
0.657609
0
VERTEX
8
0
10
-0.110753
20
0.657609
0
SEQEND
8
0
0
POLYLINE
8
0
66
1
40
0.000000
41
0.000000
0
VERTEX
8
0
10
-0.928934
20
0.661546
0
VERTEX
8
0
10
-0.110753
20
0.661546
0
SEQEND
8
0
0
POLYLINE
8
0
66
1
40
0.000000
41
0.000000
0
VERTEX
8
0
10
-0.928934
20
0.665483
0
VERTEX
8
0
10
-0.110753
20
0.665483
0
SEQEND
8
0
0
POLYLINE
8
0
66
1
40
0.000000
41
0.000000
0
VERTEX
8
0
10
-0.928934
20
0.669420
0
VERTEX
8
0
10
-0.110753
20
0.669420
0
SEQEND
8
0
0
POLYLINE
8
0
66
1
40
0.000000
41
0.000000
0
VERTEX
8
0
10
-0.928934
20
0.673357
0
VERTEX
8
0
10
-0.110753
20
0.673357
0
SEQEND
8
0
0
POLYLINE
8
0
66
1
40
0.000000
41
0.000000
0
VERTEX
8
0
10
-0.928934
20
0.677294
0
VERTEX
8
0
10
-0.110753
20
0.677294
0
SEQEND
8
0
0
POLYLINE
8
0
66
1
40
0.000000
41
0.000000
0
VERTEX
8
0
10
-0.928934
20
0.681231
0
VERTEX
8
0
10
-0.110753
20
0.681231
0
SEQEND
8
0
0
POLYLINE
8
0
66
1
40
0.000000
41
0.000000
0
VERTEX
8
0
10
-0.928934
20
0.685168
0
VERTEX
8
0
10
-0.110753
20
0.685168
0
SEQEND
8
0
0
POLYLINE
8
0
66
1
40
0.000000
41
0.000000
0
VERTEX
8
0
10
-0.928934
20
0.689105
0
VERTEX
8
0
10
-0.110753
20
0.689105
0
SEQEND
8
0
0
POLYLINE
8
0
66
1
40
0.000000
41
0.000000
0
VERTEX
8
0
10
-0.928934
20
0.693042
0
VERTEX
8
0
10
-0.110753
20
0.693042
0
SEQEND
8
0
0
POLYLINE
8
0
66
1
40
0.000000
41
0.000000
0
VERTEX
8
0
10
-0.928934
20
0.696979
0
VERTEX
8
0
10
-0.110753
20
0.696979
0
SEQEND
8
0
0
POLYLINE
8
0
66
1
40
0.000000
41
0.000000
0
VERTEX
8
0
10
-0.928934
20
0.700916
0
VERTEX
8
0
10
-0.110753
20
0.700916
0
SEQEND
8
0
0
POLYLINE
8
0
66
1
40
0.000000
41
0.000000
0
VERTEX
8
0
10
-0.928934
20
0.704853
0
VERTEX
8
0
10
-0.110753
20
0.704853
0
SEQEND
8
0
0
POLYLINE
8
0
66
1
40
0.000000
41
0.000000
0
VERTEX
8
0
10
-0.928934
20
0.708790
0
VERTEX
8
0
10
-0.110753
20
0.708790
0
SEQEND
8
0
0
POLYLINE
8
0
66
1
40
0.000000
41
0.000000
0
VERTEX
8
0
10
-0.928934
20
0.712727
0
VERTEX
8
0
10
-0.110753
20
0.712727
0
SEQEND
8
0
0
POLYLINE
8
0
66
1
40
0.000000
41
0.000000
0
VERTEX
8
0
10
-0.928934
20
0.716664
0
VERTEX
8
0
10
-0.110753
20
0.716664
0
SEQEND
8
0
0
POLYLINE
8
0
66
1
40
0.000000
41
0.000000
0
VERTEX
8
0
10
-0.928934
20
0.720601
0
VERTEX
8
0
10
-0.110753
20
0.720601
0
SEQEND
8
0
0
POLYLINE
8
0
66
1
40
0.000000
41
0.000000
0
VERTEX
8
0
10
-0.928934
20
0.724538
0
VERTEX
8
0
10
-0.110753
20
0.724538
0
SEQEND
8
0
0
POLYLINE
8
0
66
1
40
0.000000
41
0.000000
0
VERTEX
8
0
10
-0.928934
20
0.728475
0
VERTEX
8
0
10
-0.110753
20
0.728475
0
SEQEND
8
0
0
POLYLINE
8
0
66
1
40
0.000000
41
0.000000
0
VERTEX
8
0
10
-0.928934
20
0.732412
0
VERTEX
8
0
10
-0.110753
20
0.732412
0
SEQEND
8
0
0
POLYLINE
8
0
66
1
40
0.000000
41
0.000000
0
VERTEX
8
0
10
-0.928934
20
0.736349
0
VERTEX
8
0
10
-0.110753
20
0.736349
0
SEQEND
8
0
0
POLYLINE
8
0
66
1
40
0.000000
41
0.000000
0
VERTEX
8
0
10
-0.928934
20
0.740286
0
VERTEX
8
0
10
-0.110753
20
0.740286
0
SEQEND
8
0
0
POLYLINE
8
0
66
1
40
0.000000
41
0.000000
0
VERTEX
8
0
10
-0.928934
20
0.744223
0
VERTEX
8
0
10
-0.110753
20
0.744223
0
SEQEND
8
0
0
POLYLINE
8
0
66
1
40
0.000000
41
0.000000
0
VERTEX
8
0
10
-0.928934
20
0.748160
0
VERTEX
8
0
10
-0.110753
20
0.748160
0
SEQEND
8
0
0
POLYLINE
8
0
66
1
40
0.000000
41
0.000000
0
VERTEX
8
0
10
-0.928934
20
0.752097
0
VERTEX
8
0
10
-0.110753
20
0.752097
0
SEQEND
8
0
0
POLYLINE
8
0
66
1
40
0.000000
41
0.000000
0
VERTEX
8
0
10
-0.928934
20
0.756034
0
VERTEX
8
0
10
-0.110753
20
0.756034
0
SEQEND
8
0
0
POLYLINE
8
0
66
1
40
0.000000
41
0.000000
0
VERTEX
8
0
10
-0.928934
20
0.759971
0
VERTEX
8
0
10
-0.110753
20
0.759971
0
SEQEND
8
0
0
POLYLINE
8
0
66
1
40
0.000000
41
0.000000
0
VERTEX
8
0
10
-0.928934
20
0.763908
0
VERTEX
8
0
10
-0.110753
20
0.763908
0
SEQEND
8
0
0
POLYLINE
8
0
66
1
40
0.000000
41
0.000000
0
VERTEX
8
0
10
-0.928934
20
0.767845
0
VERTEX
8
0
10
-0.110753
20
0.767845
0
SEQEND
8
0
0
POLYLINE
8
0
66
1
40
0.000000
41
0.000000
0
VERTEX
8
0
10
-0.928934
20
0.771782
0
VERTEX
8
0
10
-0.110753
20
0.771782
0
SEQEND
8
0
0
POLYLINE
8
0
66
1
40
0.000000
41
0.000000
0
VERTEX
8
0
10
-0.928934
20
0.775719
0
VERTEX
8
0
10
-0.110753
20
0.775719
0
SEQEND
8
0
0
POLYLINE
8
0
66
1
40
0.000000
41
0.000000
0
VERTEX
8
0
10
-0.928934
20
0.779656
0
VERTEX
8
0
10
-0.110753
20
0.779656
0
SEQEND
8
0
0
POLYLINE
8
0
66
1
40
0.000000
41
0.000000
0
VERTEX
8
0
10
-0.928934
20
0.783593
0
VERTEX
8
0
10
-0.110753
20
0.783593
0
SEQEND
8
0
0
POLYLINE
8
0
66
1
40
0.000000
41
0.000000
0
VERTEX
8
0
10
-0.928934
20
0.787530
0
VERTEX
8
0
10
-0.110753
20
0.787530
0
SEQEND
8
0
0
POLYLINE
8
0
66
1
40
0.000000
41
0.000000
0
VERTEX
8
0
10
-0.928934
20
0.791467
0
VERTEX
8
0
10
-0.110753
20
0.791467
0
SEQEND
8
0
0
POLYLINE
8
0
66
1
40
0.000000
41
0.000000
0
VERTEX
8
0
10
-0.928934
20
0.795404
0
VERTEX
8
0
10
-0.110753
20
0.795404
0
SEQEND
8
0
0
POLYLINE
8
0
66
1
40
0.000000
41
0.000000
0
VERTEX
8
0
10
-0.928934
20
0.799341
0
VERTEX
8
0
10
-0.110753
20
0.799341
0
SEQEND
8
0
0
POLYLINE
8
0
66
1
40
0.000000
41
0.000000
0
VERTEX
8
0
10
-0.928934
20
0.803278
0
VERTEX
8
0
10
-0.110753
20
0.803278
0
SEQEND
8
0
0
POLYLINE
8
0
66
1
40
0.000000
41
0.000000
0
VERTEX
8
0
10
-0.928934
20
0.807215
0
VERTEX
8
0
10
-0.110753
20
0.807215
0
SEQEND
8
0
0
POLYLINE
8
0
66
1
40
0.000000
41
0.000000
0
VERTEX
8
0
10
-0.928934
20
0.811152
0
VERTEX
8
0
10
-0.110753
20
0.811152
0
SEQEND
8
0
0
POLYLINE
8
0
66
1
40
0.000000
41
0.000000
0
VERTEX
8
0
10
-0.928934
20
0.815089
0
VERTEX
8
0
10
-0.110753
20
0.815089
0
SEQEND
8
0
0
POLYLINE
8
0
66
1
40
0.000000
41
0.000000
0
VERTEX
8
0
10
-0.928934
20
0.819026
0
VERTEX
8
0
10
-0.110753
20
0.819026
0
SEQEND
8
0
0
POLYLINE
8
0
66
1
40
0.000000
41
0.000000
0
VERTEX
8
0
10
-0.928934
20
0.822963
0
VERTEX
8
0
10
-0.110753
20
0.822963
0
SEQEND
8
0
0
POLYLINE
8
0
66
1
40
0.000000
41
0.000000
0
VERTEX
8
0
10
-0.928934
20
0.826900
0
VERTEX
8
0
10
-0.110753
20
0.826900
0
SEQEND
8
0
0
POLYLINE
8
0
66
1
40
0.000000
41
0.000000
0
VERTEX
8
0
10
-0.928934
20
0.830837
0
VERTEX
8
0
10
-0.110753
20
0.830837
0
SEQEND
8
0
0
POLYLINE
8
0
66
1
40
0.000000
41
0.000000
0
VERTEX
8
0
10
-0.928934
20
0.834774
0
VERTEX
8
0
10
-0.110753
20
0.834774
0
SEQEND
8
0
0
POLYLINE
8
0
66
1
40
0.000000
41
0.000000
0
VERTEX
8
0
10
-0.928934
20
0.838711
0
VERTEX
8
0
10
-0.110753
20
0.838711
0
SEQEND
8
0
0
POLYLINE
8
0
66
1
40
0.000000
41
0.000000
0
VERTEX
8
0
10
-0.928934
20
0.842648
0
VERTEX
8
0
10
-0.110753
20
0.842648
0
SEQEND
8
0
0
POLYLINE
8
0
66
1
40
0.000000
41
0.000000
0
VERTEX
8
0
10
-0.928934
20
0.846585
0
VERTEX
8
0
10
-0.110753
20
0.846585
0
SEQEND
8
0
0
POLYLINE
8
0
66
1
40
0.000000
41
0.000000
0
VERTEX
8
0
10
-0.928934
20
0.850522
0
VERTEX
8
0
10
-0.110753
20
0.850522
0
SEQEND
8
0
0
POLYLINE
8
0
66
1
40
0.000000
41
0.000000
0
VERTEX
8
0
10
-0.928934
20
0.854459
0
VERTEX
8
0
10
-0.110753
20
0.854459
0
SEQEND
8
0
0
POLYLINE
8
0
66
1
40
0.000000
41
0.000000
0
VERTEX
8
0
10
-0.928934
20
0.858396
0
VERTEX
8
0
10
-0.110753
20
0.858396
0
SEQEND
8
0
0
POLYLINE
8
0
66
1
40
0.000000
41
0.000000
0
VERTEX
8
0
10
-0.928934
20
0.862333
0
VERTEX
8
0
10
-0.110753
20
0.862333
0
SEQEND
8
0
0
POLYLINE
8
0
66
1
40
0.000000
41
0.000000
0
VERTEX
8
0
10
-0.928934
20
0.866270
0
VERTEX
8
0
10
-0.110753
20
0.866270
0
SEQEND
8
0
0
POLYLINE
8
0
66
1
40
0.000000
41
0.000000
0
VERTEX
8
0
10
-0.928934
20
0.870207
0
VERTEX
8
0
10
-0.110753
20
0.870207
0
SEQEND
8
0
0
POLYLINE
8
0
66
1
40
0.000000
41
0.000000
0
VERTEX
8
0
10
-0.928934
20
0.874144
0
VERTEX
8
0
10
-0.110753
20
0.874144
0
SEQEND
8
0
0
POLYLINE
8
0
66
1
40
0.000000
41
0.000000
0
VERTEX
8
0
10
-0.928934
20
0.878081
0
VERTEX
8
0
10
-0.110753
20
0.878081
0
SEQEND
8
0
0
POLYLINE
8
0
66
1
40
0.000000
41
0.000000
0
VERTEX
8
0
10
-0.928934
20
0.882019
0
VERTEX
8
0
10
-0.110753
20
0.882019
0
SEQEND
8
0
0
POLYLINE
8
0
66
1
40
0.000000
41
0.000000
0
VERTEX
8
0
10
-0.928934
20
0.885956
0
VERTEX
8
0
10
-0.110753
20
0.885956
0
SEQEND
8
0
0
POLYLINE
8
0
66
1
40
0.000000
41
0.000000
0
VERTEX
8
0
10
-0.928934
20
0.889893
0
VERTEX
8
0
10
-0.110753
20
0.889893
0
SEQEND
8
0
0
POLYLINE
8
0
66
1
40
0.000000
41
0.000000
0
VERTEX
8
0
10
-0.928934
20
0.893830
0
VERTEX
8
0
10
-0.110753
20
0.893830
0
SEQEND
8
0
0
POLYLINE
8
0
66
1
40
0.000000
41
0.000000
0
VERTEX
8
0
10
-0.928934
20
0.897767
0
VERTEX
8
0
10
-0.110753
20
0.897767
0
SEQEND
8
0
0
POLYLINE
8
0
66
1
40
0.000000
41
0.000000
0
VERTEX
8
0
10
-0.928934
20
0.901704
0
VERTEX
8
0
10
-0.110753
20
0.901704
0
SEQEND
8
0
0
POLYLINE
8
0
66
1
40
0.000000
41
0.000000
0
VERTEX
8
0
10
-0.928934
20
0.905641
0
VERTEX
8
0
10
-0.110753
20
0.905641
0
SEQEND
8
0
0
POLYLINE
8
0
66
1
40
0.000000
41
0.000000
0
VERTEX
8
0
10
-0.928934
20
0.909578
0
VERTEX
8
0
10
-0.110753
20
0.909578
0
SEQEND
8
0
0
POLYLINE
8
0
66
1
40
0.000000
41
0.000000
0
VERTEX
8
0
10
-0.928934
20
0.913515
0
VERTEX
8
0
10
-0.110753
20
0.913515
0
SEQEND
8
0
0
POLYLINE
8
0
66
1
40
0.000000
41
0.000000
0
VERTEX
8
0
10
-0.928934
20
0.917452
0
VERTEX
8
0
10
-0.110753
20
0.917452
0
SEQEND
8
0
0
POLYLINE
8
0
66
1
40
0.000000
41
0.000000
0
VERTEX
8
0
10
-0.928934
20
0.921389
0
VERTEX
8
0
10
-0.110753
20
0.921389
0
SEQEND
8
0
0
POLYLINE
8
0
66
1
40
0.000000
41
0.000000
0
VERTEX
8
0
10
-0.928934
20
0.925326
0
VERTEX
8
0
10
-0.110753
20
0.925326
0
SEQEND
8
0
0
POLYLINE
8
0
66
1
40
0.000000
41
0.000000
0
VERTEX
8
0
10
-0.928934
20
0.929263
0
VERTEX
8
0
10
-0.110753
20
0.929263
0
SEQEND
8
0
0
POLYLINE
8
0
66
1
40
0.000000
41
0.000000
0
VERTEX
8
0
10
-0.928934
20
0.933200
0
VERTEX
8
0
10
-0.110753
20
0.933200
0
SEQEND
8
0
0
POLYLINE
8
0
66
1
40
0.000000
41
0.000000
0
VERTEX
8
0
10
-0.928934
20
0.937137
0
VERTEX
8
0
10
-0.110753
20
0.937137
0
SEQEND
8
0
0
POLYLINE
8
0
66
1
40
0.000000
41
0.000000
0
VERTEX
8
0
10
-0.928934
20
0.941074
0
VERTEX
8
0
10
-0.110753
20
0.941074
0
SEQEND
8
0
0
POLYLINE
8
0
66
1
40
0.000000
41
0.000000
0
VERTEX
8
0
10
-0.928934
20
0.945011
0
VERTEX
8
0
10
-0.110753
20
0.945011
0
SEQEND
8
0
0
POLYLINE
8
0
66
1
40
0.000000
41
0.000000
0
VERTEX
8
0
10
-0.928934
20
0.948948
0
VERTEX
8
0
10
-0.110753
20
0.948948
0
SEQEND
8
0
0
POLYLINE
8
0
66
1
40
0.000000
41
0.000000
0
VERTEX
8
0
10
-0.928934
20
0.952885
0
VERTEX
8
0
10
-0.110753
20
0.952885
0
SEQEND
8
0
0
POLYLINE
8
0
66
1
40
0.000000
41
0.000000
0
VERTEX
8
0
10
-0.928934
20
0.956822
0
VERTEX
8
0
10
-0.110753
20
0.956822
0
SEQEND
8
0
0
POLYLINE
8
0
66
1
40
0.000000
41
0.000000
0
VERTEX
8
0
10
-0.928934
20
0.960759
0
VERTEX
8
0
10
-0.110753
20
0.960759
0
SEQEND
8
0
0
POLYLINE
8
0
66
1
40
0.000000
41
0.000000
0
VERTEX
8
0
10
-0.928934
20
0.964696
0
VERTEX
8
0
10
-0.110753
20
0.964696
0
SEQEND
8
0
0
POLYLINE
8
0
66
1
40
0.000000
41
0.000000
0
VERTEX
8
0
10
-0.928934
20
0.968633
0
VERTEX
8
0
10
-0.110753
20
0.968633
0
SEQEND
8
0
0
POLYLINE
8
0
66
1
40
0.000000
41
0.000000
0
VERTEX
8
0
10
-0.928934
20
0.972570
0
VERTEX
8
0
10
-0.110753
20
0.972570
0
SEQEND
8
0
0
POLYLINE
8
0
66
1
40
0.000000
41
0.000000
0
VERTEX
8
0
10
-0.928934
20
0.976507
0
VERTEX
8
0
10
-0.110753
20
0.976507
0
SEQEND
8
0
0
POLYLINE
8
0
66
1
40
0.000000
41
0.000000
0
VERTEX
8
0
10
-0.928934
20
0.980444
0
VERTEX
8
0
10
-0.110753
20
0.980444
0
SEQEND
8
0
0
POLYLINE
8
0
66
1
40
0.000000
41
0.000000
0
VERTEX
8
0
10
-0.928934
20
0.984381
0
VERTEX
8
0
10
-0.110753
20
0.984381
0
SEQEND
8
0
0
POLYLINE
8
0
66
1
40
0.000000
41
0.000000
0
VERTEX
8
0
10
-0.928934
20
0.988318
0
VERTEX
8
0
10
-0.110753
20
0.988318
0
SEQEND
8
0
0
POLYLINE
8
0
66
1
40
0.000000
41
0.000000
0
VERTEX
8
0
10
-0.928934
20
0.992255
0
VERTEX
8
0
10
-0.110753
20
0.992255
0
SEQEND
8
0
0
POLYLINE
8
0
66
1
40
0.000000
41
0.000000
0
VERTEX
8
0
10
-0.928934
20
0.996192
0
VERTEX
8
0
10
-0.110753
20
0.996192
0
SEQEND
8
0
0
POLYLINE
8
0
66
1
40
0.000000
41
0.000000
0
VERTEX
8
0
10
-0.928934
20
1.000129
0
VERTEX
8
0
10
-0.110753
20
1.000129
0
SEQEND
8
0
0
POLYLINE
8
0
66
1
40
0.000000
41
0.000000
0
VERTEX
8
0
10
-0.928934
20
1.004066
0
VERTEX
8
0
10
-0.110753
20
1.004066
0
SEQEND
8
0
0
POLYLINE
8
0
66
1
40
0.000000
41
0.000000
0
VERTEX
8
0
10
-0.928934
20
1.008003
0
VERTEX
8
0
10
-0.110753
20
1.008003
0
SEQEND
8
0
0
POLYLINE
8
0
66
1
40
0.000000
41
0.000000
0
VERTEX
8
0
10
-0.928934
20
1.011940
0
VERTEX
8
0
10
-0.110753
20
1.011940
0
SEQEND
8
0
0
POLYLINE
8
0
66
1
40
0.000000
41
0.000000
0
VERTEX
8
0
10
-0.928934
20
1.015877
0
VERTEX
8
0
10
-0.110753
20
1.015877
0
SEQEND
8
0
0
POLYLINE
8
0
66
1
40
0.000000
41
0.000000
0
VERTEX
8
0
10
-0.928934
20
1.019814
0
VERTEX
8
0
10
-0.110753
20
1.019814
0
SEQEND
8
0
0
POLYLINE
8
0
66
1
40
0.000000
41
0.000000
0
VERTEX
8
0
10
-0.928934
20
1.023751
0
VERTEX
8
0
10
-0.110753
20
1.023751
0
SEQEND
8
0
0
POLYLINE
8
0
66
1
40
0.000000
41
0.000000
0
VERTEX
8
0
10
-0.928934
20
1.027688
0
VERTEX
8
0
10
-0.110753
20
1.027688
0
SEQEND
8
0
0
POLYLINE
8
0
66
1
40
0.000000
41
0.000000
0
VERTEX
8
0
10
-0.928934
20
1.031625
0
VERTEX
8
0
10
-0.110753
20
1.031625
0
SEQEND
8
0
0
POLYLINE
8
0
66
1
40
0.000000
41
0.000000
0
VERTEX
8
0
10
-0.928934
20
1.035562
0
VERTEX
8
0
10
-0.110753
20
1.035562
0
SEQEND
8
0
0
POLYLINE
8
0
66
1
40
0.000000
41
0.000000
0
VERTEX
8
0
10
-0.928934
20
1.039499
0
VERTEX
8
0
10
-0.110753
20
1.039499
0
SEQEND
8
0
0
POLYLINE
8
0
66
1
40
0.000000
41
0.000000
0
VERTEX
8
0
10
-0.928934
20
1.043436
0
VERTEX
8
0
10
-0.110753
20
1.043436
0
SEQEND
8
0
0
POLYLINE
8
0
66
1
40
0.000000
41
0.000000
0
VERTEX
8
0
10
-0.928934
20
1.047373
0
VERTEX
8
0
10
-0.110753
20
1.047373
0
SEQEND
8
0
0
POLYLINE
8
0
66
1
40
0.000000
41
0.000000
0
VERTEX
8
0
10
-0.928934
20
1.051310
0
VERTEX
8
0
10
-0.110753
20
1.051310
0
SEQEND
8
0
0
POLYLINE
8
0
66
1
40
0.000000
41
0.000000
0
VERTEX
8
0
10
-0.928934
20
1.055247
0
VERTEX
8
0
10
-0.110753
20
1.055247
0
SEQEND
8
0
0
POLYLINE
8
0
66
1
40
0.000000
41
0.000000
0
VERTEX
8
0
10
-0.928934
20
1.059184
0
VERTEX
8
0
10
-0.110753
20
1.059184
0
SEQEND
8
0
0
POLYLINE
8
0
66
1
40
0.000000
41
0.000000
0
VERTEX
8
0
10
-0.928934
20
1.063121
0
VERTEX
8
0
10
-0.110753
20
1.063121
0
SEQEND
8
0
0
POLYLINE
8
0
66
1
40
0.000000
41
0.000000
0
VERTEX
8
0
10
-0.928934
20
1.067058
0
VERTEX
8
0
10
-0.110753
20
1.067058
0
SEQEND
8
0
0
POLYLINE
8
0
66
1
40
0.000000
41
0.000000
0
VERTEX
8
0
10
-0.928934
20
1.070995
0
VERTEX
8
0
10
-0.110753
20
1.070995
0
SEQEND
8
0
0
POLYLINE
8
0
66
1
40
0.000000
41
0.000000
0
VERTEX
8
0
10
-0.928934
20
1.074932
0
VERTEX
8
0
10
-0.110753
20
1.074932
0
SEQEND
8
0
0
POLYLINE
8
0
66
1
40
0.000000
41
0.000000
0
VERTEX
8
0
10
-0.928934
20
1.078869
0
VERTEX
8
0
10
-0.110753
20
1.078869
0
SEQEND
8
0
0
POLYLINE
8
0
66
1
40
0.000000
41
0.000000
0
VERTEX
8
0
10
-0.928934
20
1.082806
0
VERTEX
8
0
10
-0.110753
20
1.082806
0
SEQEND
8
0
0
POLYLINE
8
0
66
1
40
0.000000
41
0.000000
0
VERTEX
8
0
10
-0.928934
20
1.086743
0
VERTEX
8
0
10
-0.110753
20
1.086743
0
SEQEND
8
0
0
POLYLINE
8
0
66
1
40
0.000000
41
0.000000
0
VERTEX
8
0
10
-0.928934
20
1.090680
0
VERTEX
8
0
10
-0.110753
20
1.090680
0
SEQEND
8
0
0
POLYLINE
8
0
66
1
40
0.000000
41
0.000000
0
VERTEX
8
0
10
-0.928934
20
1.094617
0
VERTEX
8
0
10
-0.110753
20
1.094617
0
SEQEND
8
0
0
POLYLINE
8
0
66
1
40
0.000000
41
0.000000
0
VERTEX
8
0
10
-0.928934
20
1.098554
0
VERTEX
8
0
10
-0.110753
20
1.098554
0
SEQEND
8
0
0
POLYLINE
8
0
66
1
40
0.000000
41
0.000000
0
VERTEX
8
0
10
-0.928934
20
1.102491
0
VERTEX
8
0
10
-0.110753
20
1.102491
0
SEQEND
8
0
0
POLYLINE
8
0
66
1
40
0.000000
41
0.000000
0
VERTEX
8
0
10
-0.928934
20
1.106428
0
VERTEX
8
0
10
-0.110753
20
1.106428
0
SEQEND
8
0
0
POLYLINE
8
0
66
1
40
0.000000
41
0.000000
0
VERTEX
8
0
10
-0.928934
20
1.110365
0
VERTEX
8
0
10
-0.110753
20
1.110365
0
SEQEND
8
0
0
POLYLINE
8
0
66
1
40
0.000000
41
0.000000
0
VERTEX
8
0
10
-0.928934
20
1.114302
0
VERTEX
8
0
10
-0.110753
20
1.114302
0
SEQEND
8
0
0
POLYLINE
8
0
66
1
40
0.000000
41
0.000000
0
VERTEX
8
0
10
-0.928934
20
1.118239
0
VERTEX
8
0
10
-0.110753
20
1.118239
0
SEQEND
8
0
0
POLYLINE
8
0
66
1
40
0.000000
41
0.000000
0
VERTEX
8
0
10
-0.928934
20
1.122176
0
VERTEX
8
0
10
-0.110753
20
1.122176
0
SEQEND
8
0
0
POLYLINE
8
0
66
1
40
0.000000
41
0.000000
0
VERTEX
8
0
10
-0.928934
20
1.126113
0
VERTEX
8
0
10
-0.110753
20
1.126113
0
SEQEND
8
0
0
POLYLINE
8
0
66
1
40
0.000000
41
0.000000
0
VERTEX
8
0
10
-0.928934
20
1.130050
0
VERTEX
8
0
10
-0.110753
20
1.130050
0
SEQEND
8
0
0
POLYLINE
8
0
66
1
40
0.000000
41
0.000000
0
VERTEX
8
0
10
-0.928934
20
1.133987
0
VERTEX
8
0
10
-0.110753
20
1.133987
0
SEQEND
8
0
0
POLYLINE
8
0
66
1
40
0.000000
41
0.000000
0
VERTEX
8
0
10
-0.928934
20
1.137924
0
VERTEX
8
0
10
-0.110753
20
1.137924
0
SEQEND
8
0
0
POLYLINE
8
0
66
1
40
0.000000
41
0.000000
0
VERTEX
8
0
10
-0.928934
20
1.141861
0
VERTEX
8
0
10
-0.898087
20
1.141861
0
SEQEND
8
0
0
POLYLINE
8
0
66
1
40
0.000000
41
0.000000
0
VERTEX
8
0
10
-0.928934
20
1.141969
0
VERTEX
8
0
10
-0.928934
20
1.141969
0
SEQEND
8
0
0
POLYLINE
8
0
66
1
40
0.036000
41
0.036000
0
VERTEX
8
0
10
-0.110753
20
1.139118
0
VERTEX
8
0
10
-0.110753
20
0.558118
0
VERTEX
8
0
10
-0.928934
20
0.555247
0
VERTEX
8
0
10
-0.928934
20
1.141969
0
VERTEX
8
0
10
-0.110753
20
1.139118
0
SEQEND
8
0
0
POLYLINE
8
0
66
1
70
1
40
0
41
0
0
VERTEX
8
0
10
0.040468
20
0.802307
0
VERTEX
8
0
10
0.052468
20
0.790307
0
VERTEX
8
0
10
0.052468
20
0.744307
0
VERTEX
8
0
10
0.040468
20
0.732307
0
VERTEX
8
0
10
-0.035532
20
0.732307
0
VERTEX
8
0
10
-0.047532
20
0.744307
0
VERTEX
8
0
10
-0.047532
20
0.790307
0
VERTEX
8
0
10
-0.035532
20
0.802307
0
VERTEX
8
0
10
0.040468
20
0.802307
0
SEQEND
8
0
0
CIRCLE
8
0
10
0.002468
20
0.767307
40
0.020000
0
POLYLINE
8
0
66
1
70
1
40
0
41
0
0
VERTEX
8
0
10
0.040468
20
0.902307
0
VERTEX
8
0
10
0.052468
20
0.890307
0
VERTEX
8
0
10
0.052468
20
0.844307
0
VERTEX
8
0
10
0.040468
20
0.832307
0
VERTEX
8
0
10
-0.035532
20
0.832307
0
VERTEX
8
0
10
-0.047532
20
0.844307
0
VERTEX
8
0
10
-0.047532
20
0.890307
0
VERTEX
8
0
10
-0.035532
20
0.902307
0
VERTEX
8
0
10
0.040468
20
0.902307
0
SEQEND
8
0
0
CIRCLE
8
0
10
0.002468
20
0.867307
40
0.020000
0
POLYLINE
8
0
66
1
70
1
40
0
41
0
0
VERTEX
8
0
10
0.040468
20
1.002307
0
VERTEX
8
0
10
0.052468
20
0.990307
0
VERTEX
8
0
10
0.052468
20
0.944307
0
VERTEX
8
0
10
0.040468
20
0.932307
0
VERTEX
8
0
10
-0.035532
20
0.932307
0
VERTEX
8
0
10
-0.047532
20
0.944307
0
VERTEX
8
0
10
-0.047532
20
0.990307
0
VERTEX
8
0
10
-0.035532
20
1.002307
0
VERTEX
8
0
10
0.040468
20
1.002307
0
SEQEND
8
0
0
CIRCLE
8
0
10
0.002468
20
0.967307
40
0.020000
0
INSERT
8
0
2
EPAD
10
0.201775
20
0.879992
41
0.070000
42
0.070000
0
CIRCLE
8
0
10
0.201775
20
0.879992
40
0.025000
0
INSERT
8
0
2
EPAD
10
0.201775
20
0.479992
41
0.070000
42
0.070000
0
CIRCLE
8
0
10
0.201775
20
0.479992
40
0.025000
0
INSERT
8
0
2
EPAD
10
0.201854
20
0.328291
41
0.070000
42
0.070000
0
CIRCLE
8
0
10
0.201854
20
0.328291
40
0.025000
0
INSERT
8
0
2
EPAD
10
0.601854
20
0.328291
41
0.070000
42
0.070000
0
CIRCLE
8
0
10
0.601854
20
0.328291
40
0.025000
0
INSERT
8
0
2
EPAD
10
0.777444
20
0.536126
41
0.080000
42
0.080000
0
CIRCLE
8
0
10
0.777444
20
0.536126
40
0.025000
0
INSERT
8
0
2
EPAD
10
0.777444
20
0.436126
41
0.080000
42
0.080000
0
CIRCLE
8
0
10
0.777444
20
0.436126
40
0.025000
0
INSERT
8
0
2
EPAD
10
-0.040272
20
0.338212
41
0.080000
42
0.080000
0
CIRCLE
8
0
10
-0.040272
20
0.338212
40
0.025000
0
INSERT
8
0
2
EPAD
10
-0.040272
20
0.238212
41
0.080000
42
0.080000
0
CIRCLE
8
0
10
-0.040272
20
0.238212
40
0.025000
0
INSERT
8
0
2
EPAD
10
-0.770230
20
0.391480
41
0.120000
42
0.120000
0
CIRCLE
8
0
10
-0.770230
20
0.391480
40
0.030000
0
INSERT
8
0
2
EPAD
10
-0.770230
20
0.194480
41
0.120000
42
0.120000
0
CIRCLE
8
0
10
-0.770230
20
0.194480
40
0.030000
0
POLYLINE
8
0
66
1
70
1
40
0
41
0
0
VERTEX
8
0
10
-0.871139
20
-0.661150
0
VERTEX
8
0
10
-0.859139
20
-0.649150
0
VERTEX
8
0
10
-0.813139
20
-0.649150
0
VERTEX
8
0
10
-0.801139
20
-0.661150
0
VERTEX
8
0
10
-0.801139
20
-0.737150
0
VERTEX
8
0
10
-0.813139
20
-0.749150
0
VERTEX
8
0
10
-0.859139
20
-0.749150
0
VERTEX
8
0
10
-0.871139
20
-0.737150
0
VERTEX
8
0
10
-0.871139
20
-0.661150
0
SEQEND
8
0
0
CIRCLE
8
0
10
-0.836139
20
-0.699150
40
0.020000
0
POLYLINE
8
0
66
1
70
1
40
0
41
0
0
VERTEX
8
0
10
-0.771139
20
-0.661150
0
VERTEX
8
0
10
-0.759139
20
-0.649150
0
VERTEX
8
0
10
-0.713139
20
-0.649150
0
VERTEX
8
0
10
-0.701139
20
-0.661150
0
VERTEX
8
0
10
-0.701139
20
-0.737150
0
VERTEX
8
0
10
-0.713139
20
-0.749150
0
VERTEX
8
0
10
-0.759139
20
-0.749150
0
VERTEX
8
0
10
-0.771139
20
-0.737150
0
VERTEX
8
0
10
-0.771139
20
-0.661150
0
SEQEND
8
0
0
CIRCLE
8
0
10
-0.736139
20
-0.699150
40
0.020000
0
POLYLINE
8
0
66
1
70
1
40
0
41
0
0
VERTEX
8
0
10
-0.666139
20
-0.661150
0
VERTEX
8
0
10
-0.654139
20
-0.649150
0
VERTEX
8
0
10
-0.608139
20
-0.649150
0
VERTEX
8
0
10
-0.596139
20
-0.661150
0
VERTEX
8
0
10
-0.596139
20
-0.737150
0
VERTEX
8
0
10
-0.608139
20
-0.749150
0
VERTEX
8
0
10
-0.654139
20
-0.749150
0
VERTEX
8
0
10
-0.666139
20
-0.737150
0
VERTEX
8
0
10
-0.666139
20
-0.661150
0
SEQEND
8
0
0
CIRCLE
8
0
10
-0.631139
20
-0.699150
40
0.020000
0
INSERT
8
0
2
EPAD
10
-0.536926
20
-0.919622
41
0.080000
42
0.080000
0
CIRCLE
8
0
10
-0.536926
20
-0.919622
40
0.025000
0
INSERT
8
0
2
EPAD
10
-0.536926
20
-1.019622
41
0.080000
42
0.080000
0
CIRCLE
8
0
10
-0.536926
20
-1.019622
40
0.025000
0
INSERT
8
0
2
EPAD
10
-0.733776
20
-0.903874
41
0.080000
42
0.080000
0
CIRCLE
8
0
10
-0.733776
20
-0.903874
40
0.025000
0
INSERT
8
0
2
EPAD
10
-0.833776
20
-0.903874
41
0.080000
42
0.080000
0
CIRCLE
8
0
10
-0.833776
20
-0.903874
40
0.025000
0
POLYLINE
8
0
66
1
70
1
40
0
41
0
0
VERTEX
8
0
10
0.044058
20
-0.793016
0
VERTEX
8
0
10
0.044058
20
-0.747016
0
VERTEX
8
0
10
0.044297
20
-0.744563
0
VERTEX
8
0
10
0.044984
20
-0.742293
0
VERTEX
8
0
10
0.046075
20
-0.740253
0
VERTEX
8
0
10
0.047527
20
-0.738485
0
VERTEX
8
0
10
0.049295
20
-0.737033
0
VERTEX
8
0
10
0.051335
20
-0.735942
0
VERTEX
8
0
10
0.053605
20
-0.735255
0
VERTEX
8
0
10
0.056058
20
-0.735016
0
VERTEX
8
0
10
0.122058
20
-0.735016
0
VERTEX
8
0
10
0.124512
20
-0.735255
0
VERTEX
8
0
10
0.126781
20
-0.735942
0
VERTEX
8
0
10
0.128821
20
-0.737033
0
VERTEX
8
0
10
0.130589
20
-0.738485
0
VERTEX
8
0
10
0.132041
20
-0.740253
0
VERTEX
8
0
10
0.133133
20
-0.742293
0
VERTEX
8
0
10
0.133820
20
-0.744563
0
VERTEX
8
0
10
0.134058
20
-0.747016
0
VERTEX
8
0
10
0.134058
20
-0.793016
0
VERTEX
8
0
10
0.133820
20
-0.795470
0
VERTEX
8
0
10
0.133133
20
-0.797739
0
VERTEX
8
0
10
0.132041
20
-0.799779
0
VERTEX
8
0
10
0.130589
20
-0.801547
0
VERTEX
8
0
10
0.128821
20
-0.802999
0
VERTEX
8
0
10
0.126781
20
-0.804090
0
VERTEX
8
0
10
0.124512
20
-0.804777
0
VERTEX
8
0
10
0.122058
20
-0.805016
0
VERTEX
8
0
10
0.056058
20
-0.805016
0
VERTEX
8
0
10
0.053605
20
-0.804777
0
VERTEX
8
0
10
0.051335
20
-0.804090
0
VERTEX
8
0
10
0.049295
20
-0.802999
0
VERTEX
8
0
10
0.047527
20
-0.801547
0
VERTEX
8
0
10
0.046075
20
-0.799779
0
VERTEX
8
0
10
0.044984
20
-0.797739
0
VERTEX
8
0
10
0.044297
20
-0.795470
0
VERTEX
8
0
10
0.044058
20
-0.793016
0
SEQEND
8
0
0
CIRCLE
8
0
10
0.089058
20
-0.770016
40
0.020000
0
POLYLINE
8
0
66
1
70
1
40
0
41
0
0
VERTEX
8
0
10
0.044058
20
-0.693016
0
VERTEX
8
0
10
0.044058
20
-0.647016
0
VERTEX
8
0
10
0.044297
20
-0.644563
0
VERTEX
8
0
10
0.044984
20
-0.642293
0
VERTEX
8
0
10
0.046075
20
-0.640253
0
VERTEX
8
0
10
0.047527
20
-0.638485
0
VERTEX
8
0
10
0.049295
20
-0.637033
0
VERTEX
8
0
10
0.051335
20
-0.635942
0
VERTEX
8
0
10
0.053605
20
-0.635255
0
VERTEX
8
0
10
0.056058
20
-0.635016
0
VERTEX
8
0
10
0.122058
20
-0.635016
0
VERTEX
8
0
10
0.124512
20
-0.635255
0
VERTEX
8
0
10
0.126781
20
-0.635942
0
VERTEX
8
0
10
0.128821
20
-0.637033
0
VERTEX
8
0
10
0.130589
20
-0.638485
0
VERTEX
8
0
10
0.132041
20
-0.640253
0
VERTEX
8
0
10
0.133133
20
-0.642293
0
VERTEX
8
0
10
0.133820
20
-0.644563
0
VERTEX
8
0
10
0.134058
20
-0.647016
0
VERTEX
8
0
10
0.134058
20
-0.693016
0
VERTEX
8
0
10
0.133820
20
-0.695470
0
VERTEX
8
0
10
0.133133
20
-0.697739
0
VERTEX
8
0
10
0.132041
20
-0.699779
0
VERTEX
8
0
10
0.130589
20
-0.701547
0
VERTEX
8
0
10
0.128821
20
-0.702999
0
VERTEX
8
0
10
0.126781
20
-0.704090
0
VERTEX
8
0
10
0.124512
20
-0.704777
0
VERTEX
8
0
10
0.122058
20
-0.705016
0
VERTEX
8
0
10
0.056058
20
-0.705016
0
VERTEX
8
0
10
0.053605
20
-0.704777
0
VERTEX
8
0
10
0.051335
20
-0.704090
0
VERTEX
8
0
10
0.049295
20
-0.702999
0
VERTEX
8
0
10
0.047527
20
-0.701547
0
VERTEX
8
0
10
0.046075
20
-0.699779
0
VERTEX
8
0
10
0.044984
20
-0.697739
0
VERTEX
8
0
10
0.044297
20
-0.695470
0
VERTEX
8
0
10
0.044058
20
-0.693016
0
SEQEND
8
0
0
CIRCLE
8
0
10
0.089058
20
-0.670016
40
0.020000
0
POLYLINE
8
0
66
1
70
1
40
0
41
0
0
VERTEX
8
0
10
0.044058
20
-0.593016
0
VERTEX
8
0
10
0.044058
20
-0.547016
0
VERTEX
8
0
10
0.044297
20
-0.544563
0
VERTEX
8
0
10
0.044984
20
-0.542293
0
VERTEX
8
0
10
0.046075
20
-0.540253
0
VERTEX
8
0
10
0.047527
20
-0.538485
0
VERTEX
8
0
10
0.049295
20
-0.537033
0
VERTEX
8
0
10
0.051335
20
-0.535942
0
VERTEX
8
0
10
0.053605
20
-0.535255
0
VERTEX
8
0
10
0.056058
20
-0.535016
0
VERTEX
8
0
10
0.122058
20
-0.535016
0
VERTEX
8
0
10
0.124512
20
-0.535255
0
VERTEX
8
0
10
0.126781
20
-0.535942
0
VERTEX
8
0
10
0.128821
20
-0.537033
0
VERTEX
8
0
10
0.130589
20
-0.538485
0
VERTEX
8
0
10
0.132041
20
-0.540253
0
VERTEX
8
0
10
0.133133
20
-0.542293
0
VERTEX
8
0
10
0.133820
20
-0.544563
0
VERTEX
8
0
10
0.134058
20
-0.547016
0
VERTEX
8
0
10
0.134058
20
-0.593016
0
VERTEX
8
0
10
0.133820
20
-0.595470
0
VERTEX
8
0
10
0.133133
20
-0.597739
0
VERTEX
8
0
10
0.132041
20
-0.599779
0
VERTEX
8
0
10
0.130589
20
-0.601547
0
VERTEX
8
0
10
0.128821
20
-0.602999
0
VERTEX
8
0
10
0.126781
20
-0.604090
0
VERTEX
8
0
10
0.124512
20
-0.604777
0
VERTEX
8
0
10
0.122058
20
-0.605016
0
VERTEX
8
0
10
0.056058
20
-0.605016
0
VERTEX
8
0
10
0.053605
20
-0.604777
0
VERTEX
8
0
10
0.051335
20
-0.604090
0
VERTEX
8
0
10
0.049295
20
-0.602999
0
VERTEX
8
0
10
0.047527
20
-0.601547
0
VERTEX
8
0
10
0.046075
20
-0.599779
0
VERTEX
8
0
10
0.044984
20
-0.597739
0
VERTEX
8
0
10
0.044297
20
-0.595470
0
VERTEX
8
0
10
0.044058
20
-0.593016
0
SEQEND
8
0
0
CIRCLE
8
0
10
0.089058
20
-0.570016
40
0.020000
0
POLYLINE
8
0
66
1
70
1
40
0
41
0
0
VERTEX
8
0
10
0.044058
20
-0.493016
0
VERTEX
8
0
10
0.044058
20
-0.447016
0
VERTEX
8
0
10
0.044297
20
-0.444563
0
VERTEX
8
0
10
0.044984
20
-0.442293
0
VERTEX
8
0
10
0.046075
20
-0.440253
0
VERTEX
8
0
10
0.047527
20
-0.438485
0
VERTEX
8
0
10
0.049295
20
-0.437033
0
VERTEX
8
0
10
0.051335
20
-0.435942
0
VERTEX
8
0
10
0.053605
20
-0.435255
0
VERTEX
8
0
10
0.056058
20
-0.435016
0
VERTEX
8
0
10
0.122058
20
-0.435016
0
VERTEX
8
0
10
0.124512
20
-0.435255
0
VERTEX
8
0
10
0.126781
20
-0.435942
0
VERTEX
8
0
10
0.128821
20
-0.437033
0
VERTEX
8
0
10
0.130589
20
-0.438485
0
VERTEX
8
0
10
0.132041
20
-0.440253
0
VERTEX
8
0
10
0.133133
20
-0.442293
0
VERTEX
8
0
10
0.133820
20
-0.444563
0
VERTEX
8
0
10
0.134058
20
-0.447016
0
VERTEX
8
0
10
0.134058
20
-0.493016
0
VERTEX
8
0
10
0.133820
20
-0.495470
0
VERTEX
8
0
10
0.133133
20
-0.497739
0
VERTEX
8
0
10
0.132041
20
-0.499779
0
VERTEX
8
0
10
0.130589
20
-0.501547
0
VERTEX
8
0
10
0.128821
20
-0.502999
0
VERTEX
8
0
10
0.126781
20
-0.504090
0
VERTEX
8
0
10
0.124512
20
-0.504777
0
VERTEX
8
0
10
0.122058
20
-0.505016
0
VERTEX
8
0
10
0.056058
20
-0.505016
0
VERTEX
8
0
10
0.053605
20
-0.504777
0
VERTEX
8
0
10
0.051335
20
-0.504090
0
VERTEX
8
0
10
0.049295
20
-0.502999
0
VERTEX
8
0
10
0.047527
20
-0.501547
0
VERTEX
8
0
10
0.046075
20
-0.499779
0
VERTEX
8
0
10
0.044984
20
-0.497739
0
VERTEX
8
0
10
0.044297
20
-0.495470
0
VERTEX
8
0
10
0.044058
20
-0.493016
0
SEQEND
8
0
0
CIRCLE
8
0
10
0.089058
20
-0.470016
40
0.020000
0
POLYLINE
8
0
66
1
70
1
40
0
41
0
0
VERTEX
8
0
10
0.044058
20
-0.393016
0
VERTEX
8
0
10
0.044058
20
-0.347016
0
VERTEX
8
0
10
0.044297
20
-0.344563
0
VERTEX
8
0
10
0.044984
20
-0.342293
0
VERTEX
8
0
10
0.046075
20
-0.340253
0
VERTEX
8
0
10
0.047527
20
-0.338485
0
VERTEX
8
0
10
0.049295
20
-0.337033
0
VERTEX
8
0
10
0.051335
20
-0.335942
0
VERTEX
8
0
10
0.053605
20
-0.335255
0
VERTEX
8
0
10
0.056058
20
-0.335016
0
VERTEX
8
0
10
0.122058
20
-0.335016
0
VERTEX
8
0
10
0.124512
20
-0.335255
0
VERTEX
8
0
10
0.126781
20
-0.335942
0
VERTEX
8
0
10
0.128821
20
-0.337033
0
VERTEX
8
0
10
0.130589
20
-0.338485
0
VERTEX
8
0
10
0.132041
20
-0.340253
0
VERTEX
8
0
10
0.133133
20
-0.342293
0
VERTEX
8
0
10
0.133820
20
-0.344563
0
VERTEX
8
0
10
0.134058
20
-0.347016
0
VERTEX
8
0
10
0.134058
20
-0.393016
0
VERTEX
8
0
10
0.133820
20
-0.395470
0
VERTEX
8
0
10
0.133133
20
-0.397739
0
VERTEX
8
0
10
0.132041
20
-0.399779
0
VERTEX
8
0
10
0.130589
20
-0.401547
0
VERTEX
8
0
10
0.128821
20
-0.402999
0
VERTEX
8
0
10
0.126781
20
-0.404090
0
VERTEX
8
0
10
0.124512
20
-0.404777
0
VERTEX
8
0
10
0.122058
20
-0.405016
0
VERTEX
8
0
10
0.056058
20
-0.405016
0
VERTEX
8
0
10
0.053605
20
-0.404777
0
VERTEX
8
0
10
0.051335
20
-0.404090
0
VERTEX
8
0
10
0.049295
20
-0.402999
0
VERTEX
8
0
10
0.047527
20
-0.401547
0
VERTEX
8
0
10
0.046075
20
-0.399779
0
VERTEX
8
0
10
0.044984
20
-0.397739
0
VERTEX
8
0
10
0.044297
20
-0.395470
0
VERTEX
8
0
10
0.044058
20
-0.393016
0
SEQEND
8
0
0
CIRCLE
8
0
10
0.089058
20
-0.370016
40
0.020000
0
POLYLINE
8
0
66
1
70
1
40
0
41
0
0
VERTEX
8
0
10
0.044058
20
-0.293016
0
VERTEX
8
0
10
0.044058
20
-0.247016
0
VERTEX
8
0
10
0.044297
20
-0.244563
0
VERTEX
8
0
10
0.044984
20
-0.242293
0
VERTEX
8
0
10
0.046075
20
-0.240253
0
VERTEX
8
0
10
0.047527
20
-0.238485
0
VERTEX
8
0
10
0.049295
20
-0.237033
0
VERTEX
8
0
10
0.051335
20
-0.235942
0
VERTEX
8
0
10
0.053605
20
-0.235255
0
VERTEX
8
0
10
0.056058
20
-0.235016
0
VERTEX
8
0
10
0.122058
20
-0.235016
0
VERTEX
8
0
10
0.124512
20
-0.235255
0
VERTEX
8
0
10
0.126781
20
-0.235942
0
VERTEX
8
0
10
0.128821
20
-0.237033
0
VERTEX
8
0
10
0.130589
20
-0.238485
0
VERTEX
8
0
10
0.132041
20
-0.240253
0
VERTEX
8
0
10
0.133133
20
-0.242293
0
VERTEX
8
0
10
0.133820
20
-0.244563
0
VERTEX
8
0
10
0.134058
20
-0.247016
0
VERTEX
8
0
10
0.134058
20
-0.293016
0
VERTEX
8
0
10
0.133820
20
-0.295470
0
VERTEX
8
0
10
0.133133
20
-0.297739
0
VERTEX
8
0
10
0.132041
20
-0.299779
0
VERTEX
8
0
10
0.130589
20
-0.301547
0
VERTEX
8
0
10
0.128821
20
-0.302999
0
VERTEX
8
0
10
0.126781
20
-0.304090
0
VERTEX
8
0
10
0.124512
20
-0.304777
0
VERTEX
8
0
10
0.122058
20
-0.305016
0
VERTEX
8
0
10
0.056058
20
-0.305016
0
VERTEX
8
0
10
0.053605
20
-0.304777
0
VERTEX
8
0
10
0.051335
20
-0.304090
0
VERTEX
8
0
10
0.049295
20
-0.302999
0
VERTEX
8
0
10
0.047527
20
-0.301547
0
VERTEX
8
0
10
0.046075
20
-0.299779
0
VERTEX
8
0
10
0.044984
20
-0.297739
0
VERTEX
8
0
10
0.044297
20
-0.295470
0
VERTEX
8
0
10
0.044058
20
-0.293016
0
SEQEND
8
0
0
CIRCLE
8
0
10
0.089058
20
-0.270016
40
0.020000
0
POLYLINE
8
0
66
1
70
1
40
0
41
0
0
VERTEX
8
0
10
0.044058
20
-0.193016
0
VERTEX
8
0
10
0.044058
20
-0.147016
0
VERTEX
8
0
10
0.044297
20
-0.144563
0
VERTEX
8
0
10
0.044984
20
-0.142293
0
VERTEX
8
0
10
0.046075
20
-0.140253
0
VERTEX
8
0
10
0.047527
20
-0.138485
0
VERTEX
8
0
10
0.049295
20
-0.137033
0
VERTEX
8
0
10
0.051335
20
-0.135942
0
VERTEX
8
0
10
0.053605
20
-0.135255
0
VERTEX
8
0
10
0.056058
20
-0.135016
0
VERTEX
8
0
10
0.122058
20
-0.135016
0
VERTEX
8
0
10
0.124512
20
-0.135255
0
VERTEX
8
0
10
0.126781
20
-0.135942
0
VERTEX
8
0
10
0.128821
20
-0.137033
0
VERTEX
8
0
10
0.130589
20
-0.138485
0
VERTEX
8
0
10
0.132041
20
-0.140253
0
VERTEX
8
0
10
0.133133
20
-0.142293
0
VERTEX
8
0
10
0.133820
20
-0.144563
0
VERTEX
8
0
10
0.134058
20
-0.147016
0
VERTEX
8
0
10
0.134058
20
-0.193016
0
VERTEX
8
0
10
0.133820
20
-0.195470
0
VERTEX
8
0
10
0.133133
20
-0.197739
0
VERTEX
8
0
10
0.132041
20
-0.199779
0
VERTEX
8
0
10
0.130589
20
-0.201547
0
VERTEX
8
0
10
0.128821
20
-0.202999
0
VERTEX
8
0
10
0.126781
20
-0.204090
0
VERTEX
8
0
10
0.124512
20
-0.204777
0
VERTEX
8
0
10
0.122058
20
-0.205016
0
VERTEX
8
0
10
0.056058
20
-0.205016
0
VERTEX
8
0
10
0.053605
20
-0.204777
0
VERTEX
8
0
10
0.051335
20
-0.204090
0
VERTEX
8
0
10
0.049295
20
-0.202999
0
VERTEX
8
0
10
0.047527
20
-0.201547
0
VERTEX
8
0
10
0.046075
20
-0.199779
0
VERTEX
8
0
10
0.044984
20
-0.197739
0
VERTEX
8
0
10
0.044297
20
-0.195470
0
VERTEX
8
0
10
0.044058
20
-0.193016
0
SEQEND
8
0
0
CIRCLE
8
0
10
0.089058
20
-0.170016
40
0.020000
0
POLYLINE
8
0
66
1
70
1
40
0
41
0
0
VERTEX
8
0
10
0.044058
20
-0.093016
0
VERTEX
8
0
10
0.044058
20
-0.047016
0
VERTEX
8
0
10
0.044297
20
-0.044563
0
VERTEX
8
0
10
0.044984
20
-0.042293
0
VERTEX
8
0
10
0.046075
20
-0.040253
0
VERTEX
8
0
10
0.047527
20
-0.038485
0
VERTEX
8
0
10
0.049295
20
-0.037033
0
VERTEX
8
0
10
0.051335
20
-0.035942
0
VERTEX
8
0
10
0.053605
20
-0.035255
0
VERTEX
8
0
10
0.056058
20
-0.035016
0
VERTEX
8
0
10
0.122058
20
-0.035016
0
VERTEX
8
0
10
0.124512
20
-0.035255
0
VERTEX
8
0
10
0.126781
20
-0.035942
0
VERTEX
8
0
10
0.128821
20
-0.037033
0
VERTEX
8
0
10
0.130589
20
-0.038485
0
VERTEX
8
0
10
0.132041
20
-0.040253
0
VERTEX
8
0
10
0.133133
20
-0.042293
0
VERTEX
8
0
10
0.133820
20
-0.044563
0
VERTEX
8
0
10
0.134058
20
-0.047016
0
VERTEX
8
0
10
0.134058
20
-0.093016
0
VERTEX
8
0
10
0.133820
20
-0.095470
0
VERTEX
8
0
10
0.133133
20
-0.097739
0
VERTEX
8
0
10
0.132041
20
-0.099779
0
VERTEX
8
0
10
0.130589
20
-0.101547
0
VERTEX
8
0
10
0.128821
20
-0.102999
0
VERTEX
8
0
10
0.126781
20
-0.104090
0
VERTEX
8
0
10
0.124512
20
-0.104777
0
VERTEX
8
0
10
0.122058
20
-0.105016
0
VERTEX
8
0
10
0.056058
20
-0.105016
0
VERTEX
8
0
10
0.053605
20
-0.104777
0
VERTEX
8
0
10
0.051335
20
-0.104090
0
VERTEX
8
0
10
0.049295
20
-0.102999
0
VERTEX
8
0
10
0.047527
20
-0.101547
0
VERTEX
8
0
10
0.046075
20
-0.099779
0
VERTEX
8
0
10
0.044984
20
-0.097739
0
VERTEX
8
0
10
0.044297
20
-0.095470
0
VERTEX
8
0
10
0.044058
20
-0.093016
0
SEQEND
8
0
0
CIRCLE
8
0
10
0.089058
20
-0.070016
40
0.020000
0
POLYLINE
8
0
66
1
70
1
40
0
41
0
0
VERTEX
8
0
10
0.044058
20
0.006984
0
VERTEX
8
0
10
0.044058
20
0.052984
0
VERTEX
8
0
10
0.044297
20
0.055437
0
VERTEX
8
0
10
0.044984
20
0.057707
0
VERTEX
8
0
10
0.046075
20
0.059747
0
VERTEX
8
0
10
0.047527
20
0.061515
0
VERTEX
8
0
10
0.049295
20
0.062967
0
VERTEX
8
0
10
0.051335
20
0.064058
0
VERTEX
8
0
10
0.053605
20
0.064745
0
VERTEX
8
0
10
0.056058
20
0.064984
0
VERTEX
8
0
10
0.122058
20
0.064984
0
VERTEX
8
0
10
0.124512
20
0.064745
0
VERTEX
8
0
10
0.126781
20
0.064058
0
VERTEX
8
0
10
0.128821
20
0.062967
0
VERTEX
8
0
10
0.130589
20
0.061515
0
VERTEX
8
0
10
0.132041
20
0.059747
0
VERTEX
8
0
10
0.133133
20
0.057707
0
VERTEX
8
0
10
0.133820
20
0.055437
0
VERTEX
8
0
10
0.134058
20
0.052984
0
VERTEX
8
0
10
0.134058
20
0.006984
0
VERTEX
8
0
10
0.133820
20
0.004530
0
VERTEX
8
0
10
0.133133
20
0.002261
0
VERTEX
8
0
10
0.132041
20
0.000221
0
VERTEX
8
0
10
0.130589
20
-0.001547
0
VERTEX
8
0
10
0.128821
20
-0.002999
0
VERTEX
8
0
10
0.126781
20
-0.004090
0
VERTEX
8
0
10
0.124512
20
-0.004777
0
VERTEX
8
0
10
0.122058
20
-0.005016
0
VERTEX
8
0
10
0.056058
20
-0.005016
0
VERTEX
8
0
10
0.053605
20
-0.004777
0
VERTEX
8
0
10
0.051335
20
-0.004090
0
VERTEX
8
0
10
0.049295
20
-0.002999
0
VERTEX
8
0
10
0.047527
20
-0.001547
0
VERTEX
8
0
10
0.046075
20
0.000221
0
VERTEX
8
0
10
0.044984
20
0.002261
0
VERTEX
8
0
10
0.044297
20
0.004530
0
VERTEX
8
0
10
0.044058
20
0.006984
0
SEQEND
8
0
0
CIRCLE
8
0
10
0.089058
20
0.029984
40
0.020000
0
POLYLINE
8
0
66
1
70
1
40
0
41
0
0
VERTEX
8
0
10
-0.255942
20
0.006984
0
VERTEX
8
0
10
-0.255942
20
0.052984
0
VERTEX
8
0
10
-0.255703
20
0.055437
0
VERTEX
8
0
10
-0.255016
20
0.057707
0
VERTEX
8
0
10
-0.253925
20
0.059747
0
VERTEX
8
0
10
-0.252473
20
0.061515
0
VERTEX
8
0
10
-0.250705
20
0.062967
0
VERTEX
8
0
10
-0.248665
20
0.064058
0
VERTEX
8
0
10
-0.246395
20
0.064745
0
VERTEX
8
0
10
-0.243942
20
0.064984
0
VERTEX
8
0
10
-0.177942
20
0.064984
0
VERTEX
8
0
10
-0.175488
20
0.064745
0
VERTEX
8
0
10
-0.173219
20
0.064058
0
VERTEX
8
0
10
-0.171179
20
0.062967
0
VERTEX
8
0
10
-0.169411
20
0.061515
0
VERTEX
8
0
10
-0.167959
20
0.059747
0
VERTEX
8
0
10
-0.166867
20
0.057707
0
VERTEX
8
0
10
-0.166180
20
0.055437
0
VERTEX
8
0
10
-0.165942
20
0.052984
0
VERTEX
8
0
10
-0.165942
20
0.006984
0
VERTEX
8
0
10
-0.166180
20
0.004530
0
VERTEX
8
0
10
-0.166867
20
0.002261
0
VERTEX
8
0
10
-0.167959
20
0.000221
0
VERTEX
8
0
10
-0.169411
20
-0.001547
0
VERTEX
8
0
10
-0.171179
20
-0.002999
0
VERTEX
8
0
10
-0.173219
20
-0.004090
0
VERTEX
8
0
10
-0.175488
20
-0.004777
0
VERTEX
8
0
10
-0.177942
20
-0.005016
0
VERTEX
8
0
10
-0.243942
20
-0.005016
0
VERTEX
8
0
10
-0.246395
20
-0.004777
0
VERTEX
8
0
10
-0.248665
20
-0.004090
0
VERTEX
8
0
10
-0.250705
20
-0.002999
0
VERTEX
8
0
10
-0.252473
20
-0.001547
0
VERTEX
8
0
10
-0.253925
20
0.000221
0
VERTEX
8
0
10
-0.255016
20
0.002261
0
VERTEX
8
0
10
-0.255703
20
0.004530
0
VERTEX
8
0
10
-0.255942
20
0.006984
0
SEQEND
8
0
0
CIRCLE
8
0
10
-0.210942
20
0.029984
40
0.020000
0
POLYLINE
8
0
66
1
70
1
40
0
41
0
0
VERTEX
8
0
10
-0.255942
20
-0.093016
0
VERTEX
8
0
10
-0.255942
20
-0.047016
0
VERTEX
8
0
10
-0.255703
20
-0.044563
0
VERTEX
8
0
10
-0.255016
20
-0.042293
0
VERTEX
8
0
10
-0.253925
20
-0.040253
0
VERTEX
8
0
10
-0.252473
20
-0.038485
0
VERTEX
8
0
10
-0.250705
20
-0.037033
0
VERTEX
8
0
10
-0.248665
20
-0.035942
0
VERTEX
8
0
10
-0.246395
20
-0.035255
0
VERTEX
8
0
10
-0.243942
20
-0.035016
0
VERTEX
8
0
10
-0.177942
20
-0.035016
0
VERTEX
8
0
10
-0.175488
20
-0.035255
0
VERTEX
8
0
10
-0.173219
20
-0.035942
0
VERTEX
8
0
10
-0.171179
20
-0.037033
0
VERTEX
8
0
10
-0.169411
20
-0.038485
0
VERTEX
8
0
10
-0.167959
20
-0.040253
0
VERTEX
8
0
10
-0.166867
20
-0.042293
0
VERTEX
8
0
10
-0.166180
20
-0.044563
0
VERTEX
8
0
10
-0.165942
20
-0.047016
0
VERTEX
8
0
10
-0.165942
20
-0.093016
0
VERTEX
8
0
10
-0.166180
20
-0.095470
0
VERTEX
8
0
10
-0.166867
20
-0.097739
0
VERTEX
8
0
10
-0.167959
20
-0.099779
0
VERTEX
8
0
10
-0.169411
20
-0.101547
0
VERTEX
8
0
10
-0.171179
20
-0.102999
0
VERTEX
8
0
10
-0.173219
20
-0.104090
0
VERTEX
8
0
10
-0.175488
20
-0.104777
0
VERTEX
8
0
10
-0.177942
20
-0.105016
0
VERTEX
8
0
10
-0.243942
20
-0.105016
0
VERTEX
8
0
10
-0.246395
20
-0.104777
0
VERTEX
8
0
10
-0.248665
20
-0.104090
0
VERTEX
8
0
10
-0.250705
20
-0.102999
0
VERTEX
8
0
10
-0.252473
20
-0.101547
0
VERTEX
8
0
10
-0.253925
20
-0.099779
0
VERTEX
8
0
10
-0.255016
20
-0.097739
0
VERTEX
8
0
10
-0.255703
20
-0.095470
0
VERTEX
8
0
10
-0.255942
20
-0.093016
0
SEQEND
8
0
0
CIRCLE
8
0
10
-0.210942
20
-0.070016
40
0.020000
0
POLYLINE
8
0
66
1
70
1
40
0
41
0
0
VERTEX
8
0
10
-0.255942
20
-0.193016
0
VERTEX
8
0
10
-0.255942
20
-0.147016
0
VERTEX
8
0
10
-0.255703
20
-0.144563
0
VERTEX
8
0
10
-0.255016
20
-0.142293
0
VERTEX
8
0
10
-0.253925
20
-0.140253
0
VERTEX
8
0
10
-0.252473
20
-0.138485
0
VERTEX
8
0
10
-0.250705
20
-0.137033
0
VERTEX
8
0
10
-0.248665
20
-0.135942
0
VERTEX
8
0
10
-0.246395
20
-0.135255
0
VERTEX
8
0
10
-0.243942
20
-0.135016
0
VERTEX
8
0
10
-0.177942
20
-0.135016
0
VERTEX
8
0
10
-0.175488
20
-0.135255
0
VERTEX
8
0
10
-0.173219
20
-0.135942
0
VERTEX
8
0
10
-0.171179
20
-0.137033
0
VERTEX
8
0
10
-0.169411
20
-0.138485
0
VERTEX
8
0
10
-0.167959
20
-0.140253
0
VERTEX
8
0
10
-0.166867
20
-0.142293
0
VERTEX
8
0
10
-0.166180
20
-0.144563
0
VERTEX
8
0
10
-0.165942
20
-0.147016
0
VERTEX
8
0
10
-0.165942
20
-0.193016
0
VERTEX
8
0
10
-0.166180
20
-0.195470
0
VERTEX
8
0
10
-0.166867
20
-0.197739
0
VERTEX
8
0
10
-0.167959
20
-0.199779
0
VERTEX
8
0
10
-0.169411
20
-0.201547
0
VERTEX
8
0
10
-0.171179
20
-0.202999
0
VERTEX
8
0
10
-0.173219
20
-0.204090
0
VERTEX
8
0
10
-0.175488
20
-0.204777
0
VERTEX
8
0
10
-0.177942
20
-0.205016
0
VERTEX
8
0
10
-0.243942
20
-0.205016
0
VERTEX
8
0
10
-0.246395
20
-0.204777
0
VERTEX
8
0
10
-0.248665
20
-0.204090
0
VERTEX
8
0
10
-0.250705
20
-0.202999
0
VERTEX
8
0
10
-0.252473
20
-0.201547
0
VERTEX
8
0
10
-0.253925
20
-0.199779
0
VERTEX
8
0
10
-0.255016
20
-0.197739
0
VERTEX
8
0
10
-0.255703
20
-0.195470
0
VERTEX
8
0
10
-0.255942
20
-0.193016
0
SEQEND
8
0
0
CIRCLE
8
0
10
-0.210942
20
-0.170016
40
0.020000
0
POLYLINE
8
0
66
1
70
1
40
0
41
0
0
VERTEX
8
0
10
-0.255942
20
-0.293016
0
VERTEX
8
0
10
-0.255942
20
-0.247016
0
VERTEX
8
0
10
-0.255703
20
-0.244563
0
VERTEX
8
0
10
-0.255016
20
-0.242293
0
VERTEX
8
0
10
-0.253925
20
-0.240253
0
VERTEX
8
0
10
-0.252473
20
-0.238485
0
VERTEX
8
0
10
-0.250705
20
-0.237033
0
VERTEX
8
0
10
-0.248665
20
-0.235942
0
VERTEX
8
0
10
-0.246395
20
-0.235255
0
VERTEX
8
0
10
-0.243942
20
-0.235016
0
VERTEX
8
0
10
-0.177942
20
-0.235016
0
VERTEX
8
0
10
-0.175488
20
-0.235255
0
VERTEX
8
0
10
-0.173219
20
-0.235942
0
VERTEX
8
0
10
-0.171179
20
-0.237033
0
VERTEX
8
0
10
-0.169411
20
-0.238485
0
VERTEX
8
0
10
-0.167959
20
-0.240253
0
VERTEX
8
0
10
-0.166867
20
-0.242293
0
VERTEX
8
0
10
-0.166180
20
-0.244563
0
VERTEX
8
0
10
-0.165942
20
-0.247016
0
VERTEX
8
0
10
-0.165942
20
-0.293016
0
VERTEX
8
0
10
-0.166180
20
-0.295470
0
VERTEX
8
0
10
-0.166867
20
-0.297739
0
VERTEX
8
0
10
-0.167959
20
-0.299779
0
VERTEX
8
0
10
-0.169411
20
-0.301547
0
VERTEX
8
0
10
-0.171179
20
-0.302999
0
VERTEX
8
0
10
-0.173219
20
-0.304090
0
VERTEX
8
0
10
-0.175488
20
-0.304777
0
VERTEX
8
0
10
-0.177942
20
-0.305016
0
VERTEX
8
0
10
-0.243942
20
-0.305016
0
VERTEX
8
0
10
-0.246395
20
-0.304777
0
VERTEX
8
0
10
-0.248665
20
-0.304090
0
VERTEX
8
0
10
-0.250705
20
-0.302999
0
VERTEX
8
0
10
-0.252473
20
-0.301547
0
VERTEX
8
0
10
-0.253925
20
-0.299779
0
VERTEX
8
0
10
-0.255016
20
-0.297739
0
VERTEX
8
0
10
-0.255703
20
-0.295470
0
VERTEX
8
0
10
-0.255942
20
-0.293016
0
SEQEND
8
0
0
CIRCLE
8
0
10
-0.210942
20
-0.270016
40
0.020000
0
POLYLINE
8
0
66
1
70
1
40
0
41
0
0
VERTEX
8
0
10
-0.255942
20
-0.393016
0
VERTEX
8
0
10
-0.255942
20
-0.347016
0
VERTEX
8
0
10
-0.255703
20
-0.344563
0
VERTEX
8
0
10
-0.255016
20
-0.342293
0
VERTEX
8
0
10
-0.253925
20
-0.340253
0
VERTEX
8
0
10
-0.252473
20
-0.338485
0
VERTEX
8
0
10
-0.250705
20
-0.337033
0
VERTEX
8
0
10
-0.248665
20
-0.335942
0
VERTEX
8
0
10
-0.246395
20
-0.335255
0
VERTEX
8
0
10
-0.243942
20
-0.335016
0
VERTEX
8
0
10
-0.177942
20
-0.335016
0
VERTEX
8
0
10
-0.175488
20
-0.335255
0
VERTEX
8
0
10
-0.173219
20
-0.335942
0
VERTEX
8
0
10
-0.171179
20
-0.337033
0
VERTEX
8
0
10
-0.169411
20
-0.338485
0
VERTEX
8
0
10
-0.167959
20
-0.340253
0
VERTEX
8
0
10
-0.166867
20
-0.342293
0
VERTEX
8
0
10
-0.166180
20
-0.344563
0
VERTEX
8
0
10
-0.165942
20
-0.347016
0
VERTEX
8
0
10
-0.165942
20
-0.393016
0
VERTEX
8
0
10
-0.166180
20
-0.395470
0
VERTEX
8
0
10
-0.166867
20
-0.397739
0
VERTEX
8
0
10
-0.167959
20
-0.399779
0
VERTEX
8
0
10
-0.169411
20
-0.401547
0
VERTEX
8
0
10
-0.171179
20
-0.402999
0
VERTEX
8
0
10
-0.173219
20
-0.404090
0
VERTEX
8
0
10
-0.175488
20
-0.404777
0
VERTEX
8
0
10
-0.177942
20
-0.405016
0
VERTEX
8
0
10
-0.243942
20
-0.405016
0
VERTEX
8
0
10
-0.246395
20
-0.404777
0
VERTEX
8
0
10
-0.248665
20
-0.404090
0
VERTEX
8
0
10
-0.250705
20
-0.402999
0
VERTEX
8
0
10
-0.252473
20
-0.401547
0
VERTEX
8
0
10
-0.253925
20
-0.399779
0
VERTEX
8
0
10
-0.255016
20
-0.397739
0
VERTEX
8
0
10
-0.255703
20
-0.395470
0
VERTEX
8
0
10
-0.255942
20
-0.393016
0
SEQEND
8
0
0
CIRCLE
8
0
10
-0.210942
20
-0.370016
40
0.020000
0
POLYLINE
8
0
66
1
70
1
40
0
41
0
0
VERTEX
8
0
10
-0.255942
20
-0.493016
0
VERTEX
8
0
10
-0.255942
20
-0.447016
0
VERTEX
8
0
10
-0.255703
20
-0.444563
0
VERTEX
8
0
10
-0.255016
20
-0.442293
0
VERTEX
8
0
10
-0.253925
20
-0.440253
0
VERTEX
8
0
10
-0.252473
20
-0.438485
0
VERTEX
8
0
10
-0.250705
20
-0.437033
0
VERTEX
8
0
10
-0.248665
20
-0.435942
0
VERTEX
8
0
10
-0.246395
20
-0.435255
0
VERTEX
8
0
10
-0.243942
20
-0.435016
0
VERTEX
8
0
10
-0.177942
20
-0.435016
0
VERTEX
8
0
10
-0.175488
20
-0.435255
0
VERTEX
8
0
10
-0.173219
20
-0.435942
0
VERTEX
8
0
10
-0.171179
20
-0.437033
0
VERTEX
8
0
10
-0.169411
20
-0.438485
0
VERTEX
8
0
10
-0.167959
20
-0.440253
0
VERTEX
8
0
10
-0.166867
20
-0.442293
0
VERTEX
8
0
10
-0.166180
20
-0.444563
0
VERTEX
8
0
10
-0.165942
20
-0.447016
0
VERTEX
8
0
10
-0.165942
20
-0.493016
0
VERTEX
8
0
10
-0.166180
20
-0.495470
0
VERTEX
8
0
10
-0.166867
20
-0.497739
0
VERTEX
8
0
10
-0.167959
20
-0.499779
0
VERTEX
8
0
10
-0.169411
20
-0.501547
0
VERTEX
8
0
10
-0.171179
20
-0.502999
0
VERTEX
8
0
10
-0.173219
20
-0.504090
0
VERTEX
8
0
10
-0.175488
20
-0.504777
0
VERTEX
8
0
10
-0.177942
20
-0.505016
0
VERTEX
8
0
10
-0.243942
20
-0.505016
0
VERTEX
8
0
10
-0.246395
20
-0.504777
0
VERTEX
8
0
10
-0.248665
20
-0.504090
0
VERTEX
8
0
10
-0.250705
20
-0.502999
0
VERTEX
8
0
10
-0.252473
20
-0.501547
0
VERTEX
8
0
10
-0.253925
20
-0.499779
0
VERTEX
8
0
10
-0.255016
20
-0.497739
0
VERTEX
8
0
10
-0.255703
20
-0.495470
0
VERTEX
8
0
10
-0.255942
20
-0.493016
0
SEQEND
8
0
0
CIRCLE
8
0
10
-0.210942
20
-0.470016
40
0.020000
0
POLYLINE
8
0
66
1
70
1
40
0
41
0
0
VERTEX
8
0
10
-0.255942
20
-0.593016
0
VERTEX
8
0
10
-0.255942
20
-0.547016
0
VERTEX
8
0
10
-0.255703
20
-0.544563
0
VERTEX
8
0
10
-0.255016
20
-0.542293
0
VERTEX
8
0
10
-0.253925
20
-0.540253
0
VERTEX
8
0
10
-0.252473
20
-0.538485
0
VERTEX
8
0
10
-0.250705
20
-0.537033
0
VERTEX
8
0
10
-0.248665
20
-0.535942
0
VERTEX
8
0
10
-0.246395
20
-0.535255
0
VERTEX
8
0
10
-0.243942
20
-0.535016
0
VERTEX
8
0
10
-0.177942
20
-0.535016
0
VERTEX
8
0
10
-0.175488
20
-0.535255
0
VERTEX
8
0
10
-0.173219
20
-0.535942
0
VERTEX
8
0
10
-0.171179
20
-0.537033
0
VERTEX
8
0
10
-0.169411
20
-0.538485
0
VERTEX
8
0
10
-0.167959
20
-0.540253
0
VERTEX
8
0
10
-0.166867
20
-0.542293
0
VERTEX
8
0
10
-0.166180
20
-0.544563
0
VERTEX
8
0
10
-0.165942
20
-0.547016
0
VERTEX
8
0
10
-0.165942
20
-0.593016
0
VERTEX
8
0
10
-0.166180
20
-0.595470
0
VERTEX
8
0
10
-0.166867
20
-0.597739
0
VERTEX
8
0
10
-0.167959
20
-0.599779
0
VERTEX
8
0
10
-0.169411
20
-0.601547
0
VERTEX
8
0
10
-0.171179
20
-0.602999
0
VERTEX
8
0
10
-0.173219
20
-0.604090
0
VERTEX
8
0
10
-0.175488
20
-0.604777
0
VERTEX
8
0
10
-0.177942
20
-0.605016
0
VERTEX
8
0
10
-0.243942
20
-0.605016
0
VERTEX
8
0
10
-0.246395
20
-0.604777
0
VERTEX
8
0
10
-0.248665
20
-0.604090
0
VERTEX
8
0
10
-0.250705
20
-0.602999
0
VERTEX
8
0
10
-0.252473
20
-0.601547
0
VERTEX
8
0
10
-0.253925
20
-0.599779
0
VERTEX
8
0
10
-0.255016
20
-0.597739
0
VERTEX
8
0
10
-0.255703
20
-0.595470
0
VERTEX
8
0
10
-0.255942
20
-0.593016
0
SEQEND
8
0
0
CIRCLE
8
0
10
-0.210942
20
-0.570016
40
0.020000
0
POLYLINE
8
0
66
1
70
1
40
0
41
0
0
VERTEX
8
0
10
-0.255942
20
-0.693016
0
VERTEX
8
0
10
-0.255942
20
-0.647016
0
VERTEX
8
0
10
-0.255703
20
-0.644563
0
VERTEX
8
0
10
-0.255016
20
-0.642293
0
VERTEX
8
0
10
-0.253925
20
-0.640253
0
VERTEX
8
0
10
-0.252473
20
-0.638485
0
VERTEX
8
0
10
-0.250705
20
-0.637033
0
VERTEX
8
0
10
-0.248665
20
-0.635942
0
VERTEX
8
0
10
-0.246395
20
-0.635255
0
VERTEX
8
0
10
-0.243942
20
-0.635016
0
VERTEX
8
0
10
-0.177942
20
-0.635016
0
VERTEX
8
0
10
-0.175488
20
-0.635255
0
VERTEX
8
0
10
-0.173219
20
-0.635942
0
VERTEX
8
0
10
-0.171179
20
-0.637033
0
VERTEX
8
0
10
-0.169411
20
-0.638485
0
VERTEX
8
0
10
-0.167959
20
-0.640253
0
VERTEX
8
0
10
-0.166867
20
-0.642293
0
VERTEX
8
0
10
-0.166180
20
-0.644563
0
VERTEX
8
0
10
-0.165942
20
-0.647016
0
VERTEX
8
0
10
-0.165942
20
-0.693016
0
VERTEX
8
0
10
-0.166180
20
-0.695470
0
VERTEX
8
0
10
-0.166867
20
-0.697739
0
VERTEX
8
0
10
-0.167959
20
-0.699779
0
VERTEX
8
0
10
-0.169411
20
-0.701547
0
VERTEX
8
0
10
-0.171179
20
-0.702999
0
VERTEX
8
0
10
-0.173219
20
-0.704090
0
VERTEX
8
0
10
-0.175488
20
-0.704777
0
VERTEX
8
0
10
-0.177942
20
-0.705016
0
VERTEX
8
0
10
-0.243942
20
-0.705016
0
VERTEX
8
0
10
-0.246395
20
-0.704777
0
VERTEX
8
0
10
-0.248665
20
-0.704090
0
VERTEX
8
0
10
-0.250705
20
-0.702999
0
VERTEX
8
0
10
-0.252473
20
-0.701547
0
VERTEX
8
0
10
-0.253925
20
-0.699779
0
VERTEX
8
0
10
-0.255016
20
-0.697739
0
VERTEX
8
0
10
-0.255703
20
-0.695470
0
VERTEX
8
0
10
-0.255942
20
-0.693016
0
SEQEND
8
0
0
CIRCLE
8
0
10
-0.210942
20
-0.670016
40
0.020000
0
POLYLINE
8
0
66
1
70
1
40
0
41
0
0
VERTEX
8
0
10
-0.255942
20
-0.793016
0
VERTEX
8
0
10
-0.255942
20
-0.747016
0
VERTEX
8
0
10
-0.255703
20
-0.744563
0
VERTEX
8
0
10
-0.255016
20
-0.742293
0
VERTEX
8
0
10
-0.253925
20
-0.740253
0
VERTEX
8
0
10
-0.252473
20
-0.738485
0
VERTEX
8
0
10
-0.250705
20
-0.737033
0
VERTEX
8
0
10
-0.248665
20
-0.735942
0
VERTEX
8
0
10
-0.246395
20
-0.735255
0
VERTEX
8
0
10
-0.243942
20
-0.735016
0
VERTEX
8
0
10
-0.177942
20
-0.735016
0
VERTEX
8
0
10
-0.175488
20
-0.735255
0
VERTEX
8
0
10
-0.173219
20
-0.735942
0
VERTEX
8
0
10
-0.171179
20
-0.737033
0
VERTEX
8
0
10
-0.169411
20
-0.738485
0
VERTEX
8
0
10
-0.167959
20
-0.740253
0
VERTEX
8
0
10
-0.166867
20
-0.742293
0
VERTEX
8
0
10
-0.166180
20
-0.744563
0
VERTEX
8
0
10
-0.165942
20
-0.747016
0
VERTEX
8
0
10
-0.165942
20
-0.793016
0
VERTEX
8
0
10
-0.166180
20
-0.795470
0
VERTEX
8
0
10
-0.166867
20
-0.797739
0
VERTEX
8
0
10
-0.167959
20
-0.799779
0
VERTEX
8
0
10
-0.169411
20
-0.801547
0
VERTEX
8
0
10
-0.171179
20
-0.802999
0
VERTEX
8
0
10
-0.173219
20
-0.804090
0
VERTEX
8
0
10
-0.175488
20
-0.804777
0
VERTEX
8
0
10
-0.177942
20
-0.805016
0
VERTEX
8
0
10
-0.243942
20
-0.805016
0
VERTEX
8
0
10
-0.246395
20
-0.804777
0
VERTEX
8
0
10
-0.248665
20
-0.804090
0
VERTEX
8
0
10
-0.250705
20
-0.802999
0
VERTEX
8
0
10
-0.252473
20
-0.801547
0
VERTEX
8
0
10
-0.253925
20
-0.799779
0
VERTEX
8
0
10
-0.255016
20
-0.797739
0
VERTEX
8
0
10
-0.255703
20
-0.795470
0
VERTEX
8
0
10
-0.255942
20
-0.793016
0
SEQEND
8
0
0
CIRCLE
8
0
10
-0.210942
20
-0.770016
40
0.020000
0
POLYLINE
8
0
66
1
70
1
40
0
41
0
0
VERTEX
8
0
10
0.256106
20
-0.061473
0
VERTEX
8
0
10
0.302106
20
-0.061473
0
VERTEX
8
0
10
0.304559
20
-0.061711
0
VERTEX
8
0
10
0.306828
20
-0.062398
0
VERTEX
8
0
10
0.308869
20
-0.063490
0
VERTEX
8
0
10
0.310637
20
-0.064942
0
VERTEX
8
0
10
0.312088
20
-0.066710
0
VERTEX
8
0
10
0.313180
20
-0.068750
0
VERTEX
8
0
10
0.313867
20
-0.071019
0
VERTEX
8
0
10
0.314106
20
-0.073473
0
VERTEX
8
0
10
0.314106
20
-0.139473
0
VERTEX
8
0
10
0.313867
20
-0.141926
0
VERTEX
8
0
10
0.313180
20
-0.144196
0
VERTEX
8
0
10
0.312088
20
-0.146236
0
VERTEX
8
0
10
0.310637
20
-0.148004
0
VERTEX
8
0
10
0.308869
20
-0.149456
0
VERTEX
8
0
10
0.306828
20
-0.150547
0
VERTEX
8
0
10
0.304559
20
-0.151234
0
VERTEX
8
0
10
0.302106
20
-0.151473
0
VERTEX
8
0
10
0.256106
20
-0.151473
0
VERTEX
8
0
10
0.253652
20
-0.151234
0
VERTEX
8
0
10
0.251383
20
-0.150547
0
VERTEX
8
0
10
0.249343
20
-0.149456
0
VERTEX
8
0
10
0.247574
20
-0.148004
0
VERTEX
8
0
10
0.246123
20
-0.146236
0
VERTEX
8
0
10
0.245031
20
-0.144196
0
VERTEX
8
0
10
0.244344
20
-0.141926
0
VERTEX
8
0
10
0.244106
20
-0.139473
0
VERTEX
8
0
10
0.244106
20
-0.073473
0
VERTEX
8
0
10
0.244344
20
-0.071019
0
VERTEX
8
0
10
0.245031
20
-0.068750
0
VERTEX
8
0
10
0.246123
20
-0.066710
0
VERTEX
8
0
10
0.247574
20
-0.064942
0
VERTEX
8
0
10
0.249343
20
-0.063490
0
VERTEX
8
0
10
0.251383
20
-0.062398
0
VERTEX
8
0
10
0.253652
20
-0.061711
0
VERTEX
8
0
10
0.256106
20
-0.061473
0
SEQEND
8
0
0
CIRCLE
8
0
10
0.279106
20
-0.106473
40
0.020000
0
POLYLINE
8
0
66
1
70
1
40
0
41
0
0
VERTEX
8
0
10
0.356106
20
-0.061473
0
VERTEX
8
0
10
0.402106
20
-0.061473
0
VERTEX
8
0
10
0.404559
20
-0.061711
0
VERTEX
8
0
10
0.406828
20
-0.062398
0
VERTEX
8
0
10
0.408869
20
-0.063490
0
VERTEX
8
0
10
0.410637
20
-0.064942
0
VERTEX
8
0
10
0.412088
20
-0.066710
0
VERTEX
8
0
10
0.413180
20
-0.068750
0
VERTEX
8
0
10
0.413867
20
-0.071019
0
VERTEX
8
0
10
0.414106
20
-0.073473
0
VERTEX
8
0
10
0.414106
20
-0.139473
0
VERTEX
8
0
10
0.413867
20
-0.141926
0
VERTEX
8
0
10
0.413180
20
-0.144196
0
VERTEX
8
0
10
0.412088
20
-0.146236
0
VERTEX
8
0
10
0.410637
20
-0.148004
0
VERTEX
8
0
10
0.408869
20
-0.149456
0
VERTEX
8
0
10
0.406828
20
-0.150547
0
VERTEX
8
0
10
0.404559
20
-0.151234
0
VERTEX
8
0
10
0.402106
20
-0.151473
0
VERTEX
8
0
10
0.356106
20
-0.151473
0
VERTEX
8
0
10
0.353652
20
-0.151234
0
VERTEX
8
0
10
0.351383
20
-0.150547
0
VERTEX
8
0
10
0.349343
20
-0.149456
0
VERTEX
8
0
10
0.347574
20
-0.148004
0
VERTEX
8
0
10
0.346123
20
-0.146236
0
VERTEX
8
0
10
0.345031
20
-0.144196
0
VERTEX
8
0
10
0.344344
20
-0.141926
0
VERTEX
8
0
10
0.344106
20
-0.139473
0
VERTEX
8
0
10
0.344106
20
-0.073473
0
VERTEX
8
0
10
0.344344
20
-0.071019
0
VERTEX
8
0
10
0.345031
20
-0.068750
0
VERTEX
8
0
10
0.346123
20
-0.066710
0
VERTEX
8
0
10
0.347574
20
-0.064942
0
VERTEX
8
0
10
0.349343
20
-0.063490
0
VERTEX
8
0
10
0.351383
20
-0.062398
0
VERTEX
8
0
10
0.353652
20
-0.061711
0
VERTEX
8
0
10
0.356106
20
-0.061473
0
SEQEND
8
0
0
CIRCLE
8
0
10
0.379106
20
-0.106473
40
0.020000
0
POLYLINE
8
0
66
1
70
1
40
0
41
0
0
VERTEX
8
0
10
0.456106
20
-0.061473
0
VERTEX
8
0
10
0.502106
20
-0.061473
0
VERTEX
8
0
10
0.504559
20
-0.061711
0
VERTEX
8
0
10
0.506828
20
-0.062398
0
VERTEX
8
0
10
0.508869
20
-0.063490
0
VERTEX
8
0
10
0.510637
20
-0.064942
0
VERTEX
8
0
10
0.512088
20
-0.066710
0
VERTEX
8
0
10
0.513180
20
-0.068750
0
VERTEX
8
0
10
0.513867
20
-0.071019
0
VERTEX
8
0
10
0.514106
20
-0.073473
0
VERTEX
8
0
10
0.514106
20
-0.139473
0
VERTEX
8
0
10
0.513867
20
-0.141926
0
VERTEX
8
0
10
0.513180
20
-0.144196
0
VERTEX
8
0
10
0.512088
20
-0.146236
0
VERTEX
8
0
10
0.510637
20
-0.148004
0
VERTEX
8
0
10
0.508869
20
-0.149456
0
VERTEX
8
0
10
0.506828
20
-0.150547
0
VERTEX
8
0
10
0.504559
20
-0.151234
0
VERTEX
8
0
10
0.502106
20
-0.151473
0
VERTEX
8
0
10
0.456106
20
-0.151473
0
VERTEX
8
0
10
0.453652
20
-0.151234
0
VERTEX
8
0
10
0.451383
20
-0.150547
0
VERTEX
8
0
10
0.449343
20
-0.149456
0
VERTEX
8
0
10
0.447574
20
-0.148004
0
VERTEX
8
0
10
0.446123
20
-0.146236
0
VERTEX
8
0
10
0.445031
20
-0.144196
0
VERTEX
8
0
10
0.444344
20
-0.141926
0
VERTEX
8
0
10
0.444106
20
-0.139473
0
VERTEX
8
0
10
0.444106
20
-0.073473
0
VERTEX
8
0
10
0.444344
20
-0.071019
0
VERTEX
8
0
10
0.445031
20
-0.068750
0
VERTEX
8
0
10
0.446123
20
-0.066710
0
VERTEX
8
0
10
0.447574
20
-0.064942
0
VERTEX
8
0
10
0.449343
20
-0.063490
0
VERTEX
8
0
10
0.451383
20
-0.062398
0
VERTEX
8
0
10
0.453652
20
-0.061711
0
VERTEX
8
0
10
0.456106
20
-0.061473
0
SEQEND
8
0
0
CIRCLE
8
0
10
0.479106
20
-0.106473
40
0.020000
0
POLYLINE
8
0
66
1
70
1
40
0
41
0
0
VERTEX
8
0
10
0.556106
20
-0.061473
0
VERTEX
8
0
10
0.602106
20
-0.061473
0
VERTEX
8
0
10
0.604559
20
-0.061711
0
VERTEX
8
0
10
0.606828
20
-0.062398
0
VERTEX
8
0
10
0.608869
20
-0.063490
0
VERTEX
8
0
10
0.610637
20
-0.064942
0
VERTEX
8
0
10
0.612088
20
-0.066710
0
VERTEX
8
0
10
0.613180
20
-0.068750
0
VERTEX
8
0
10
0.613867
20
-0.071019
0
VERTEX
8
0
10
0.614106
20
-0.073473
0
VERTEX
8
0
10
0.614106
20
-0.139473
0
VERTEX
8
0
10
0.613867
20
-0.141926
0
VERTEX
8
0
10
0.613180
20
-0.144196
0
VERTEX
8
0
10
0.612088
20
-0.146236
0
VERTEX
8
0
10
0.610637
20
-0.148004
0
VERTEX
8
0
10
0.608869
20
-0.149456
0
VERTEX
8
0
10
0.606828
20
-0.150547
0
VERTEX
8
0
10
0.604559
20
-0.151234
0
VERTEX
8
0
10
0.602106
20
-0.151473
0
VERTEX
8
0
10
0.556106
20
-0.151473
0
VERTEX
8
0
10
0.553652
20
-0.151234
0
VERTEX
8
0
10
0.551383
20
-0.150547
0
VERTEX
8
0
10
0.549343
20
-0.149456
0
VERTEX
8
0
10
0.547574
20
-0.148004
0
VERTEX
8
0
10
0.546123
20
-0.146236
0
VERTEX
8
0
10
0.545031
20
-0.144196
0
VERTEX
8
0
10
0.544344
20
-0.141926
0
VERTEX
8
0
10
0.544106
20
-0.139473
0
VERTEX
8
0
10
0.544106
20
-0.073473
0
VERTEX
8
0
10
0.544344
20
-0.071019
0
VERTEX
8
0
10
0.545031
20
-0.068750
0
VERTEX
8
0
10
0.546123
20
-0.066710
0
VERTEX
8
0
10
0.547574
20
-0.064942
0
VERTEX
8
0
10
0.549343
20
-0.063490
0
VERTEX
8
0
10
0.551383
20
-0.062398
0
VERTEX
8
0
10
0.553652
20
-0.061711
0
VERTEX
8
0
10
0.556106
20
-0.061473
0
SEQEND
8
0
0
CIRCLE
8
0
10
0.579106
20
-0.106473
40
0.020000
0
INSERT
8
0
2
EPAD
10
0.092995
20
0.123937
41
0.070000
42
0.070000
0
CIRCLE
8
0
10
0.092995
20
0.123937
40
0.025000
0
INSERT
8
0
2
EPAD
10
0.492995
20
0.123937
41
0.070000
42
0.070000
0
CIRCLE
8
0
10
0.492995
20
0.123937
40
0.025000
0
POLYLINE
8
0
66
1
70
1
40
0
41
0
0
VERTEX
8
0
10
0.736972
20
0.183362
0
VERTEX
8
0
10
0.736972
20
0.229362
0
VERTEX
8
0
10
0.737210
20
0.231815
0
VERTEX
8
0
10
0.737897
20
0.234085
0
VERTEX
8
0
10
0.738989
20
0.236125
0
VERTEX
8
0
10
0.740441
20
0.237893
0
VERTEX
8
0
10
0.742209
20
0.239344
0
VERTEX
8
0
10
0.744249
20
0.240436
0
VERTEX
8
0
10
0.746518
20
0.241123
0
VERTEX
8
0
10
0.748972
20
0.241362
0
VERTEX
8
0
10
0.814972
20
0.241362
0
VERTEX
8
0
10
0.817425
20
0.241123
0
VERTEX
8
0
10
0.819694
20
0.240436
0
VERTEX
8
0
10
0.821735
20
0.239344
0
VERTEX
8
0
10
0.823503
20
0.237893
0
VERTEX
8
0
10
0.824955
20
0.236125
0
VERTEX
8
0
10
0.826046
20
0.234085
0
VERTEX
8
0
10
0.826733
20
0.231815
0
VERTEX
8
0
10
0.826972
20
0.229362
0
VERTEX
8
0
10
0.826972
20
0.183362
0
VERTEX
8
0
10
0.826733
20
0.180908
0
VERTEX
8
0
10
0.826046
20
0.178639
0
VERTEX
8
0
10
0.824955
20
0.176599
0
VERTEX
8
0
10
0.823503
20
0.174831
0
VERTEX
8
0
10
0.821735
20
0.173379
0
VERTEX
8
0
10
0.819694
20
0.172288
0
VERTEX
8
0
10
0.817425
20
0.171601
0
VERTEX
8
0
10
0.814972
20
0.171362
0
VERTEX
8
0
10
0.748972
20
0.171362
0
VERTEX
8
0
10
0.746518
20
0.171601
0
VERTEX
8
0
10
0.744249
20
0.172288
0
VERTEX
8
0
10
0.742209
20
0.173379
0
VERTEX
8
0
10
0.740441
20
0.174831
0
VERTEX
8
0
10
0.738989
20
0.176599
0
VERTEX
8
0
10
0.737897
20
0.178639
0
VERTEX
8
0
10
0.737210
20
0.180908
0
VERTEX
8
0
10
0.736972
20
0.183362
0
SEQEND
8
0
0
CIRCLE
8
0
10
0.781972
20
0.206362
40
0.020000
0
POLYLINE
8
0
66
1
70
1
40
0
41
0
0
VERTEX
8
0
10
0.736972
20
0.083362
0
VERTEX
8
0
10
0.736972
20
0.129362
0
VERTEX
8
0
10
0.737210
20
0.131815
0
VERTEX
8
0
10
0.737897
20
0.134085
0
VERTEX
8
0
10
0.738989
20
0.136125
0
VERTEX
8
0
10
0.740441
20
0.137893
0
VERTEX
8
0
10
0.742209
20
0.139344
0
VERTEX
8
0
10
0.744249
20
0.140436
0
VERTEX
8
0
10
0.746518
20
0.141123
0
VERTEX
8
0
10
0.748972
20
0.141362
0
VERTEX
8
0
10
0.814972
20
0.141362
0
VERTEX
8
0
10
0.817425
20
0.141123
0
VERTEX
8
0
10
0.819694
20
0.140436
0
VERTEX
8
0
10
0.821735
20
0.139344
0
VERTEX
8
0
10
0.823503
20
0.137893
0
VERTEX
8
0
10
0.824955
20
0.136125
0
VERTEX
8
0
10
0.826046
20
0.134085
0
VERTEX
8
0
10
0.826733
20
0.131815
0
VERTEX
8
0
10
0.826972
20
0.129362
0
VERTEX
8
0
10
0.826972
20
0.083362
0
VERTEX
8
0
10
0.826733
20
0.080908
0
VERTEX
8
0
10
0.826046
20
0.078639
0
VERTEX
8
0
10
0.824955
20
0.076599
0
VERTEX
8
0
10
0.823503
20
0.074831
0
VERTEX
8
0
10
0.821735
20
0.073379
0
VERTEX
8
0
10
0.819694
20
0.072288
0
VERTEX
8
0
10
0.817425
20
0.071601
0
VERTEX
8
0
10
0.814972
20
0.071362
0
VERTEX
8
0
10
0.748972
20
0.071362
0
VERTEX
8
0
10
0.746518
20
0.071601
0
VERTEX
8
0
10
0.744249
20
0.072288
0
VERTEX
8
0
10
0.742209
20
0.073379
0
VERTEX
8
0
10
0.740441
20
0.074831
0
VERTEX
8
0
10
0.738989
20
0.076599
0
VERTEX
8
0
10
0.737897
20
0.078639
0
VERTEX
8
0
10
0.737210
20
0.080908
0
VERTEX
8
0
10
0.736972
20
0.083362
0
SEQEND
8
0
0
CIRCLE
8
0
10
0.781972
20
0.106362
40
0.020000
0
POLYLINE
8
0
66
1
70
1
40
0
41
0
0
VERTEX
8
0
10
0.736972
20
-0.016638
0
VERTEX
8
0
10
0.736972
20
0.029362
0
VERTEX
8
0
10
0.737210
20
0.031815
0
VERTEX
8
0
10
0.737897
20
0.034085
0
VERTEX
8
0
10
0.738989
20
0.036125
0
VERTEX
8
0
10
0.740441
20
0.037893
0
VERTEX
8
0
10
0.742209
20
0.039344
0
VERTEX
8
0
10
0.744249
20
0.040436
0
VERTEX
8
0
10
0.746518
20
0.041123
0
VERTEX
8
0
10
0.748972
20
0.041362
0
VERTEX
8
0
10
0.814972
20
0.041362
0
VERTEX
8
0
10
0.817425
20
0.041123
0
VERTEX
8
0
10
0.819694
20
0.040436
0
VERTEX
8
0
10
0.821735
20
0.039344
0
VERTEX
8
0
10
0.823503
20
0.037893
0
VERTEX
8
0
10
0.824955
20
0.036125
0
VERTEX
8
0
10
0.826046
20
0.034085
0
VERTEX
8
0
10
0.826733
20
0.031815
0
VERTEX
8
0
10
0.826972
20
0.029362
0
VERTEX
8
0
10
0.826972
20
-0.016638
0
VERTEX
8
0
10
0.826733
20
-0.019092
0
VERTEX
8
0
10
0.826046
20
-0.021361
0
VERTEX
8
0
10
0.824955
20
-0.023401
0
VERTEX
8
0
10
0.823503
20
-0.025169
0
VERTEX
8
0
10
0.821735
20
-0.026621
0
VERTEX
8
0
10
0.819694
20
-0.027712
0
VERTEX
8
0
10
0.817425
20
-0.028399
0
VERTEX
8
0
10
0.814972
20
-0.028638
0
VERTEX
8
0
10
0.748972
20
-0.028638
0
VERTEX
8
0
10
0.746518
20
-0.028399
0
VERTEX
8
0
10
0.744249
20
-0.027712
0
VERTEX
8
0
10
0.742209
20
-0.026621
0
VERTEX
8
0
10
0.740441
20
-0.025169
0
VERTEX
8
0
10
0.738989
20
-0.023401
0
VERTEX
8
0
10
0.737897
20
-0.021361
0
VERTEX
8
0
10
0.737210
20
-0.019092
0
VERTEX
8
0
10
0.736972
20
-0.016638
0
SEQEND
8
0
0
CIRCLE
8
0
10
0.781972
20
0.006362
40
0.020000
0
INSERT
8
0
2
EPAD
10
0.253980
20
-0.735717
41
0.090000
42
0.090000
0
CIRCLE
8
0
10
0.253980
20
-0.735717
40
0.025000
0
INSERT
8
0
2
EPAD
10
0.498074
20
-0.735717
41
0.090000
42
0.090000
0
CIRCLE
8
0
10
0.498074
20
-0.735717
40
0.025000
0
INSERT
8
0
2
EPAD
10
0.671735
20
-0.632221
41
0.070000
42
0.070000
0
CIRCLE
8
0
10
0.671735
20
-0.632221
40
0.025000
0
INSERT
8
0
2
EPAD
10
0.671735
20
-0.232221
41
0.070000
42
0.070000
0
CIRCLE
8
0
10
0.671735
20
-0.232221
40
0.025000
0
INSERT
8
0
2
EPAD
10
0.174488
20
-0.474859
41
0.070000
42
0.070000
0
CIRCLE
8
0
10
0.174488
20
-0.474859
40
0.025000
0
INSERT
8
0
2
EPAD
10
0.545361
20
-0.325016
41
0.070000
42
0.070000
0
CIRCLE
8
0
10
0.545361
20
-0.325016
40
0.025000
0
INSERT
8
0
2
EPAD
10
-0.430627
20
-0.368441
41
0.080000
42
0.080000
0
CIRCLE
8
0
10
-0.430627
20
-0.368441
40
0.025000
0
INSERT
8
0
2
EPAD
10
-0.430627
20
-0.468441
41
0.080000
42
0.080000
0
CIRCLE
8
0
10
-0.430627
20
-0.468441
40
0.025000
0
INSERT
8
0
2
EPAD
10
-0.427497
20
-0.751220
41
0.070000
42
0.070000
0
CIRCLE
8
0
10
-0.427497
20
-0.751220
40
0.025000
0
INSERT
8
0
2
EPAD
10
-0.284150
20
-0.377788
41
0.070000
42
0.070000
0
CIRCLE
8
0
10
-0.284150
20
-0.377788
40
0.025000
0
POLYLINE
8
0
66
1
70
1
40
0
41
0
0
VERTEX
8
0
10
-0.345418
20
0.232141
0
VERTEX
8
0
10
-0.340456
20
0.215913
0
VERTEX
8
0
10
-0.347967
20
0.201785
0
VERTEX
8
0
10
-0.364196
20
0.196824
0
VERTEX
8
0
10
-0.431300
20
0.232504
0
VERTEX
8
0
10
-0.436262
20
0.248732
0
VERTEX
8
0
10
-0.428751
20
0.262859
0
VERTEX
8
0
10
-0.412522
20
0.267821
0
VERTEX
8
0
10
-0.345418
20
0.232141
0
SEQEND
8
0
0
CIRCLE
8
0
10
-0.388359
20
0.232322
40
0.039370
0
POLYLINE
8
0
66
1
70
1
40
0
41
0
0
VERTEX
8
0
10
-0.392365
20
0.143846
0
VERTEX
8
0
10
-0.387403
20
0.127618
0
VERTEX
8
0
10
-0.394915
20
0.113491
0
VERTEX
8
0
10
-0.411144
20
0.108529
0
VERTEX
8
0
10
-0.478248
20
0.144209
0
VERTEX
8
0
10
-0.483209
20
0.160437
0
VERTEX
8
0
10
-0.475698
20
0.174565
0
VERTEX
8
0
10
-0.459469
20
0.179526
0
VERTEX
8
0
10
-0.392365
20
0.143846
0
SEQEND
8
0
0
CIRCLE
8
0
10
-0.435306
20
0.144028
40
0.039370
0
POLYLINE
8
0
66
1
70
1
40
0
41
0
0
VERTEX
8
0
10
-0.439312
20
0.055552
0
VERTEX
8
0
10
-0.434350
20
0.039323
0
VERTEX
8
0
10
-0.441861
20
0.025196
0
VERTEX
8
0
10
-0.458091
20
0.020234
0
VERTEX
8
0
10
-0.525194
20
0.055914
0
VERTEX
8
0
10
-0.530156
20
0.072143
0
VERTEX
8
0
10
-0.522645
20
0.086270
0
VERTEX
8
0
10
-0.506416
20
0.091232
0
VERTEX
8
0
10
-0.439312
20
0.055552
0
SEQEND
8
0
0
CIRCLE
8
0
10
-0.482253
20
0.055733
40
0.039370
0
POLYLINE
8
0
66
1
70
1
40
0
41
0
0
VERTEX
8
0
10
-0.486259
20
-0.032743
0
VERTEX
8
0
10
-0.481297
20
-0.048972
0
VERTEX
8
0
10
-0.488809
20
-0.063099
0
VERTEX
8
0
10
-0.505038
20
-0.068061
0
VERTEX
8
0
10
-0.572142
20
-0.032381
0
VERTEX
8
0
10
-0.577104
20
-0.016152
0
VERTEX
8
0
10
-0.569592
20
-0.002025
0
VERTEX
8
0
10
-0.553363
20
0.002937
0
VERTEX
8
0
10
-0.486259
20
-0.032743
0
SEQEND
8
0
0
CIRCLE
8
0
10
-0.529200
20
-0.032562
40
0.039370
0
POLYLINE
8
0
66
1
70
1
40
0
41
0
0
VERTEX
8
0
10
-0.533206
20
-0.121038
0
VERTEX
8
0
10
-0.528244
20
-0.137267
0
VERTEX
8
0
10
-0.535756
20
-0.151394
0
VERTEX
8
0
10
-0.551985
20
-0.156356
0
VERTEX
8
0
10
-0.619089
20
-0.120676
0
VERTEX
8
0
10
-0.624051
20
-0.104447
0
VERTEX
8
0
10
-0.616539
20
-0.090320
0
VERTEX
8
0
10
-0.600310
20
-0.085358
0
VERTEX
8
0
10
-0.533206
20
-0.121038
0
SEQEND
8
0
0
CIRCLE
8
0
10
-0.576148
20
-0.120857
40
0.039370
0
POLYLINE
8
0
66
1
70
1
40
0
41
0
0
VERTEX
8
0
10
-0.580154
20
-0.209332
0
VERTEX
8
0
10
-0.575192
20
-0.225561
0
VERTEX
8
0
10
-0.582703
20
-0.239688
0
VERTEX
8
0
10
-0.598932
20
-0.244650
0
VERTEX
8
0
10
-0.666036
20
-0.208970
0
VERTEX
8
0
10
-0.670998
20
-0.192741
0
VERTEX
8
0
10
-0.663487
20
-0.178614
0
VERTEX
8
0
10
-0.647257
20
-0.173652
0
VERTEX
8
0
10
-0.580154
20
-0.209332
0
SEQEND
8
0
0
CIRCLE
8
0
10
-0.623095
20
-0.209151
40
0.039370
0
POLYLINE
8
0
66
1
70
1
40
0
41
0
0
VERTEX
8
0
10
-0.627101
20
-0.297627
0
VERTEX
8
0
10
-0.622139
20
-0.313856
0
VERTEX
8
0
10
-0.629650
20
-0.327983
0
VERTEX
8
0
10
-0.645880
20
-0.332945
0
VERTEX
8
0
10
-0.712983
20
-0.297265
0
VERTEX
8
0
10
-0.717945
20
-0.281036
0
VERTEX
8
0
10
-0.710434
20
-0.266909
0
VERTEX
8
0
10
-0.694205
20
-0.261947
0
VERTEX
8
0
10
-0.627101
20
-0.297627
0
SEQEND
8
0
0
CIRCLE
8
0
10
-0.670042
20
-0.297446
40
0.039370
0
POLYLINE
8
0
66
1
70
1
40
0
41
0
0
VERTEX
8
0
10
-0.674048
20
-0.385922
0
VERTEX
8
0
10
-0.669086
20
-0.402151
0
VERTEX
8
0
10
-0.676597
20
-0.416278
0
VERTEX
8
0
10
-0.692826
20
-0.421240
0
VERTEX
8
0
10
-0.759930
20
-0.385560
0
VERTEX
8
0
10
-0.764892
20
-0.369331
0
VERTEX
8
0
10
-0.757381
20
-0.355204
0
VERTEX
8
0
10
-0.741152
20
-0.350242
0
VERTEX
8
0
10
-0.674048
20
-0.385922
0
SEQEND
8
0
0
CIRCLE
8
0
10
-0.716989
20
-0.385741
40
0.039370
0
POLYLINE
8
0
66
1
70
1
40
0
41
0
0
VERTEX
8
0
10
-0.062099
20
-0.933244
0
VERTEX
8
0
10
-0.016099
20
-0.933244
0
VERTEX
8
0
10
-0.013646
20
-0.933483
0
VERTEX
8
0
10
-0.011376
20
-0.934170
0
VERTEX
8
0
10
-0.009336
20
-0.935261
0
VERTEX
8
0
10
-0.007568
20
-0.936713
0
VERTEX
8
0
10
-0.006117
20
-0.938481
0
VERTEX
8
0
10
-0.005025
20
-0.940522
0
VERTEX
8
0
10
-0.004338
20
-0.942791
0
VERTEX
8
0
10
-0.004099
20
-0.945244
0
VERTEX
8
0
10
-0.004099
20
-1.011244
0
VERTEX
8
0
10
-0.004338
20
-1.013698
0
VERTEX
8
0
10
-0.005025
20
-1.015967
0
VERTEX
8
0
10
-0.006117
20
-1.018007
0
VERTEX
8
0
10
-0.007568
20
-1.019776
0
VERTEX
8
0
10
-0.009336
20
-1.021228
0
VERTEX
8
0
10
-0.011376
20
-1.022319
0
VERTEX
8
0
10
-0.013646
20
-1.023006
0
VERTEX
8
0
10
-0.016099
20
-1.023244
0
VERTEX
8
0
10
-0.062099
20
-1.023244
0
VERTEX
8
0
10
-0.064553
20
-1.023006
0
VERTEX
8
0
10
-0.066822
20
-1.022319
0
VERTEX
8
0
10
-0.068862
20
-1.021228
0
VERTEX
8
0
10
-0.070630
20
-1.019776
0
VERTEX
8
0
10
-0.072082
20
-1.018007
0
VERTEX
8
0
10
-0.073173
20
-1.015967
0
VERTEX
8
0
10
-0.073860
20
-1.013698
0
VERTEX
8
0
10
-0.074099
20
-1.011244
0
VERTEX
8
0
10
-0.074099
20
-0.945244
0
VERTEX
8
0
10
-0.073860
20
-0.942791
0
VERTEX
8
0
10
-0.073173
20
-0.940522
0
VERTEX
8
0
10
-0.072082
20
-0.938481
0
VERTEX
8
0
10
-0.070630
20
-0.936713
0
VERTEX
8
0
10
-0.068862
20
-0.935261
0
VERTEX
8
0
10
-0.066822
20
-0.934170
0
VERTEX
8
0
10
-0.064553
20
-0.933483
0
VERTEX
8
0
10
-0.062099
20
-0.933244
0
SEQEND
8
0
0
CIRCLE
8
0
10
-0.039099
20
-0.978244
40
0.020000
0
POLYLINE
8
0
66
1
70
1
40
0
41
0
0
VERTEX
8
0
10
0.037901
20
-0.933244
0
VERTEX
8
0
10
0.083901
20
-0.933244
0
VERTEX
8
0
10
0.086354
20
-0.933483
0
VERTEX
8
0
10
0.088624
20
-0.934170
0
VERTEX
8
0
10
0.090664
20
-0.935261
0
VERTEX
8
0
10
0.092432
20
-0.936713
0
VERTEX
8
0
10
0.093883
20
-0.938481
0
VERTEX
8
0
10
0.094975
20
-0.940522
0
VERTEX
8
0
10
0.095662
20
-0.942791
0
VERTEX
8
0
10
0.095901
20
-0.945244
0
VERTEX
8
0
10
0.095901
20
-1.011244
0
VERTEX
8
0
10
0.095662
20
-1.013698
0
VERTEX
8
0
10
0.094975
20
-1.015967
0
VERTEX
8
0
10
0.093883
20
-1.018007
0
VERTEX
8
0
10
0.092432
20
-1.019776
0
VERTEX
8
0
10
0.090664
20
-1.021228
0
VERTEX
8
0
10
0.088624
20
-1.022319
0
VERTEX
8
0
10
0.086354
20
-1.023006
0
VERTEX
8
0
10
0.083901
20
-1.023244
0
VERTEX
8
0
10
0.037901
20
-1.023244
0
VERTEX
8
0
10
0.035447
20
-1.023006
0
VERTEX
8
0
10
0.033178
20
-1.022319
0
VERTEX
8
0
10
0.031138
20
-1.021228
0
VERTEX
8
0
10
0.029370
20
-1.019776
0
VERTEX
8
0
10
0.027918
20
-1.018007
0
VERTEX
8
0
10
0.026827
20
-1.015967
0
VERTEX
8
0
10
0.026140
20
-1.013698
0
VERTEX
8
0
10
0.025901
20
-1.011244
0
VERTEX
8
0
10
0.025901
20
-0.945244
0
VERTEX
8
0
10
0.026140
20
-0.942791
0
VERTEX
8
0
10
0.026827
20
-0.940522
0
VERTEX
8
0
10
0.027918
20
-0.938481
0
VERTEX
8
0
10
0.029370
20
-0.936713
0
VERTEX
8
0
10
0.031138
20
-0.935261
0
VERTEX
8
0
10
0.033178
20
-0.934170
0
VERTEX
8
0
10
0.035447
20
-0.933483
0
VERTEX
8
0
10
0.037901
20
-0.933244
0
SEQEND
8
0
0
CIRCLE
8
0
10
0.060901
20
-0.978244
40
0.020000
0
POLYLINE
8
0
66
1
70
1
40
0
41
0
0
VERTEX
8
0
10
0.137901
20
-0.933244
0
VERTEX
8
0
10
0.183901
20
-0.933244
0
VERTEX
8
0
10
0.186354
20
-0.933483
0
VERTEX
8
0
10
0.188624
20
-0.934170
0
VERTEX
8
0
10
0.190664
20
-0.935261
0
VERTEX
8
0
10
0.192432
20
-0.936713
0
VERTEX
8
0
10
0.193883
20
-0.938481
0
VERTEX
8
0
10
0.194975
20
-0.940522
0
VERTEX
8
0
10
0.195662
20
-0.942791
0
VERTEX
8
0
10
0.195901
20
-0.945244
0
VERTEX
8
0
10
0.195901
20
-1.011244
0
VERTEX
8
0
10
0.195662
20
-1.013698
0
VERTEX
8
0
10
0.194975
20
-1.015967
0
VERTEX
8
0
10
0.193883
20
-1.018007
0
VERTEX
8
0
10
0.192432
20
-1.019776
0
VERTEX
8
0
10
0.190664
20
-1.021228
0
VERTEX
8
0
10
0.188624
20
-1.022319
0
VERTEX
8
0
10
0.186354
20
-1.023006
0
VERTEX
8
0
10
0.183901
20
-1.023244
0
VERTEX
8
0
10
0.137901
20
-1.023244
0
VERTEX
8
0
10
0.135447
20
-1.023006
0
VERTEX
8
0
10
0.133178
20
-1.022319
0
VERTEX
8
0
10
0.131138
20
-1.021228
0
VERTEX
8
0
10
0.129370
20
-1.019776
0
VERTEX
8
0
10
0.127918
20
-1.018007
0
VERTEX
8
0
10
0.126827
20
-1.015967
0
VERTEX
8
0
10
0.126140
20
-1.013698
0
VERTEX
8
0
10
0.125901
20
-1.011244
0
VERTEX
8
0
10
0.125901
20
-0.945244
0
VERTEX
8
0
10
0.126140
20
-0.942791
0
VERTEX
8
0
10
0.126827
20
-0.940522
0
VERTEX
8
0
10
0.127918
20
-0.938481
0
VERTEX
8
0
10
0.129370
20
-0.936713
0
VERTEX
8
0
10
0.131138
20
-0.935261
0
VERTEX
8
0
10
0.133178
20
-0.934170
0
VERTEX
8
0
10
0.135447
20
-0.933483
0
VERTEX
8
0
10
0.137901
20
-0.933244
0
SEQEND
8
0
0
CIRCLE
8
0
10
0.160901
20
-0.978244
40
0.020000
0
INSERT
8
0
2
EPAD
10
0.858247
20
-0.964882
41
0.132000
42
0.132000
0
INSERT
8
0
2
EPAD
10
0.858247
20
-0.964882
41
0.132000
42
0.132000
0
INSERT
8
0
2
EPAD
10
0.817247
20
0.941118
41
0.132000
42
0.132000
0
INSERT
8
0
2
EPAD
10
0.817247
20
0.941118
41
0.132000
42
0.132000
0
INSERT
8
0
2
EPAD
10
-0.864753
20
0.003118
41
0.132000
42
0.132000
0
INSERT
8
0
2
EPAD
10
-0.864753
20
0.003118
41
0.132000
42
0.132000
0
POLYLINE
8
0
66
1
40
0.008000
41
0.008000
0
VERTEX
8
0
10
-0.047532
20
0.717307
0
VERTEX
8
0
10
0.052468
20
0.717307
0
VERTEX
8
0
10
0.052468
20
1.017307
0
VERTEX
8
0
10
-0.047532
20
1.017307
0
VERTEX
8
0
10
-0.047532
20
0.717307
0
VERTEX
8
0
10
-0.097532
20
0.717307
0
VERTEX
8
0
10
-0.097532
20
1.017307
0
VERTEX
8
0
10
-0.047532
20
1.017307
0
SEQEND
8
0
0
POLYLINE
8
0
66
1
40
0.008000
41
0.008000
0
VERTEX
8
0
10
-0.047532
20
0.717307
0
VERTEX
8
0
10
-0.097532
20
0.767307
0
SEQEND
8
0
0
POLYLINE
8
0
66
1
40
0.008000
41
0.008000
0
VERTEX
8
0
10
-0.047532
20
0.767307
0
VERTEX
8
0
10
-0.097532
20
0.817307
0
SEQEND
8
0
0
POLYLINE
8
0
66
1
40
0.008000
41
0.008000
0
VERTEX
8
0
10
-0.047532
20
0.817307
0
VERTEX
8
0
10
-0.097532
20
0.867307
0
SEQEND
8
0
0
POLYLINE
8
0
66
1
40
0.008000
41
0.008000
0
VERTEX
8
0
10
-0.047532
20
0.867307
0
VERTEX
8
0
10
-0.097532
20
0.917307
0
SEQEND
8
0
0
POLYLINE
8
0
66
1
40
0.008000
41
0.008000
0
VERTEX
8
0
10
-0.047532
20
0.917307
0
VERTEX
8
0
10
-0.097532
20
0.967307
0
SEQEND
8
0
0
POLYLINE
8
0
66
1
40
0.008000
41
0.008000
0
VERTEX
8
0
10
-0.047532
20
0.967307
0
VERTEX
8
0
10
-0.097532
20
1.017307
0
SEQEND
8
0
0
TEXT
8
0
10
-0.107532
20
0.767307
40
0.048000
41
1.041667
50
90.000000
1
7805
0
POLYLINE
8
0
66
1
40
0.008000
41
0.008000
0
VERTEX
8
0
10
0.165775
20
0.604992
0
VERTEX
8
0
10
0.237775
20
0.604992
0
VERTEX
8
0
10
0.237775
20
0.754992
0
VERTEX
8
0
10
0.165775
20
0.754992
0
VERTEX
8
0
10
0.165775
20
0.604992
0
SEQEND
8
0
0
POLYLINE
8
0
66
1
40
0.008000
41
0.008000
0
VERTEX
8
0
10
0.166775
20
0.629992
0
VERTEX
8
0
10
0.236775
20
0.629992
0
SEQEND
8
0
0
POLYLINE
8
0
66
1
40
0.008000
41
0.008000
0
VERTEX
8
0
10
0.201775
20
0.754992
0
VERTEX
8
0
10
0.201775
20
0.819992
0
SEQEND
8
0
0
POLYLINE
8
0
66
1
40
0.008000
41
0.008000
0
VERTEX
8
0
10
0.201775
20
0.604992
0
VERTEX
8
0
10
0.201775
20
0.539992
0
SEQEND
8
0
0
TEXT
8
0
10
0.226641
20
0.641803
40
0.048000
41
1.041667
50
90.000000
1
D1
0
POLYLINE
8
0
66
1
40
0.008000
41
0.008000
0
VERTEX
8
0
10
0.326854
20
0.292291
0
VERTEX
8
0
10
0.476854
20
0.292291
0
VERTEX
8
0
10
0.476854
20
0.364291
0
VERTEX
8
0
10
0.326854
20
0.364291
0
VERTEX
8
0
10
0.326854
20
0.292291
0
SEQEND
8
0
0
POLYLINE
8
0
66
1
40
0.008000
41
0.008000
0
VERTEX
8
0
10
0.451854
20
0.293291
0
VERTEX
8
0
10
0.451854
20
0.363291
0
SEQEND
8
0
0
POLYLINE
8
0
66
1
40
0.008000
41
0.008000
0
VERTEX
8
0
10
0.326854
20
0.328291
0
VERTEX
8
0
10
0.261854
20
0.328291
0
SEQEND
8
0
0
POLYLINE
8
0
66
1
40
0.008000
41
0.008000
0
VERTEX
8
0
10
0.476854
20
0.328291
0
VERTEX
8
0
10
0.541854
20
0.328291
0
SEQEND
8
0
0
TEXT
8
0
10
0.351854
20
0.305157
40
0.048000
41
1.041667
1
D2
0
CIRCLE
8
0
10
0.777444
20
0.486126
40
0.100000
0
POLYLINE
8
0
66
1
40
0.008000
41
0.008000
0
VERTEX
8
0
10
0.827444
20
0.561126
0
VERTEX
8
0
10
0.827444
20
0.511126
0
SEQEND
8
0
0
POLYLINE
8
0
66
1
40
0.008000
41
0.008000
0
VERTEX
8
0
10
0.852444
20
0.536126
0
VERTEX
8
0
10
0.802444
20
0.536126
0
SEQEND
8
0
0
TEXT
8
0
10
0.935444
20
0.436488
40
0.048000
41
1.041667
50
90.000000
1
C2
0
CIRCLE
8
0
10
-0.040272
20
0.288212
40
0.100000
0
POLYLINE
8
0
66
1
40
0.008000
41
0.008000
0
VERTEX
8
0
10
0.009728
20
0.363212
0
VERTEX
8
0
10
0.009728
20
0.313212
0
SEQEND
8
0
0
POLYLINE
8
0
66
1
40
0.008000
41
0.008000
0
VERTEX
8
0
10
0.034728
20
0.338212
0
VERTEX
8
0
10
-0.015272
20
0.338212
0
SEQEND
8
0
0
TEXT
8
0
10
-0.169674
20
0.234637
40
0.048000
41
1.041667
50
90.000000
1
C4
0
POLYLINE
8
0
66
1
40
0.008000
41
0.008000
0
VERTEX
8
0
10
-0.920230
20
0.491480
0
VERTEX
8
0
10
-0.620230
20
0.491480
0
SEQEND
8
0
0
POLYLINE
8
0
66
1
40
0.008000
41
0.008000
0
VERTEX
8
0
10
-0.620230
20
0.091480
0
VERTEX
8
0
10
-0.920230
20
0.091480
0
SEQEND
8
0
0
POLYLINE
8
0
66
1
40
0.008000
41
0.008000
0
VERTEX
8
0
10
-0.920230
20
0.491480
0
VERTEX
8
0
10
-0.920230
20
0.091480
0
SEQEND
8
0
0
POLYLINE
8
0
66
1
40
0.008000
41
0.008000
0
VERTEX
8
0
10
-0.620230
20
0.491480
0
VERTEX
8
0
10
-0.620230
20
0.091480
0
SEQEND
8
0
0
TEXT
8
0
10
-0.562230
20
0.241481
40
0.048000
41
1.041667
50
90.000000
1
J2
0
POLYLINE
8
0
66
1
40
0.008000
41
0.008000
0
VERTEX
8
0
10
-0.881139
20
-0.754150
0
VERTEX
8
0
10
-0.586139
20
-0.754150
0
VERTEX
8
0
10
-0.586139
20
-0.644150
0
VERTEX
8
0
10
-0.881139
20
-0.644150
0
VERTEX
8
0
10
-0.881139
20
-0.754150
0
SEQEND
8
0
0
POLYLINE
8
0
66
1
40
0.008000
41
0.008000
0
VERTEX
8
0
10
-0.881139
20
-0.644150
0
VERTEX
8
0
10
-0.586139
20
-0.644150
0
VERTEX
8
0
10
-0.586139
20
-0.594150
0
VERTEX
8
0
10
-0.881139
20
-0.594150
0
VERTEX
8
0
10
-0.881139
20
-0.644150
0
VERTEX
8
0
10
-0.846139
20
-0.594150
0
SEQEND
8
0
0
POLYLINE
8
0
66
1
40
0.008000
41
0.008000
0
VERTEX
8
0
10
-0.841139
20
-0.644150
0
VERTEX
8
0
10
-0.811139
20
-0.594150
0
SEQEND
8
0
0
POLYLINE
8
0
66
1
40
0.008000
41
0.008000
0
VERTEX
8
0
10
-0.806139
20
-0.639150
0
VERTEX
8
0
10
-0.781139
20
-0.599150
0
SEQEND
8
0
0
POLYLINE
8
0
66
1
40
0.008000
41
0.008000
0
VERTEX
8
0
10
-0.776139
20
-0.644150
0
VERTEX
8
0
10
-0.746139
20
-0.599150
0
SEQEND
8
0
0
POLYLINE
8
0
66
1
40
0.008000
41
0.008000
0
VERTEX
8
0
10
-0.731139
20
-0.644150
0
VERTEX
8
0
10
-0.701139
20
-0.594150
0
SEQEND
8
0
0
POLYLINE
8
0
66
1
40
0.008000
41
0.008000
0
VERTEX
8
0
10
-0.696139
20
-0.644150
0
VERTEX
8
0
10
-0.671139
20
-0.599150
0
SEQEND
8
0
0
POLYLINE
8
0
66
1
40
0.008000
41
0.008000
0
VERTEX
8
0
10
-0.656139
20
-0.644150
0
VERTEX
8
0
10
-0.631139
20
-0.599150
0
SEQEND
8
0
0
POLYLINE
8
0
66
1
40
0.008000
41
0.008000
0
VERTEX
8
0
10
-0.616139
20
-0.639150
0
VERTEX
8
0
10
-0.596139
20
-0.599150
0
SEQEND
8
0
0
TEXT
8
0
10
-0.833639
20
-0.584150
40
0.048000
41
1.041667
1
3.3V
0
CIRCLE
8
0
10
-0.536926
20
-0.969622
40
0.100000
0
POLYLINE
8
0
66
1
40
0.008000
41
0.008000
0
VERTEX
8
0
10
-0.486926
20
-0.894622
0
VERTEX
8
0
10
-0.486926
20
-0.944622
0
SEQEND
8
0
0
POLYLINE
8
0
66
1
40
0.008000
41
0.008000
0
VERTEX
8
0
10
-0.461926
20
-0.919622
0
VERTEX
8
0
10
-0.511926
20
-0.919622
0
SEQEND
8
0
0
TEXT
8
0
10
-0.378926
20
-1.019260
40
0.048000
41
1.041667
50
90.000000
1
C5
0
CIRCLE
8
0
10
-0.783776
20
-0.903874
40
0.100000
0
POLYLINE
8
0
66
1
40
0.008000
41
0.008000
0
VERTEX
8
0
10
-0.708776
20
-0.953874
0
VERTEX
8
0
10
-0.758776
20
-0.953874
0
SEQEND
8
0
0
POLYLINE
8
0
66
1
40
0.008000
41
0.008000
0
VERTEX
8
0
10
-0.733776
20
-0.978874
0
VERTEX
8
0
10
-0.733776
20
-0.928874
0
SEQEND
8
0
0
TEXT
8
0
10
-0.833414
20
-1.061874
40
0.048000
41
1.041667
1
C3
0
POLYLINE
8
0
66
1
40
0.008000
41
0.008000
0
VERTEX
8
0
10
0.039058
20
-0.820016
0
VERTEX
8
0
10
-0.010942
20
-0.820016
0
SEQEND
8
0
0
POLYLINE
8
0
66
1
40
0.008000
41
0.008000
0
VERTEX
8
0
10
-0.060942
20
-0.770016
0
VERTEX
8
0
10
-0.071129
20
-0.770975
0
VERTEX
8
0
10
-0.080567
20
-0.773750
0
VERTEX
8
0
10
-0.089067
20
-0.778190
0
VERTEX
8
0
10
-0.096442
20
-0.784141
0
VERTEX
8
0
10
-0.102504
20
-0.791452
0
VERTEX
8
0
10
-0.107067
20
-0.799969
0
VERTEX
8
0
10
-0.109942
20
-0.809541
0
VERTEX
8
0
10
-0.110942
20
-0.820016
0
SEQEND
8
0
0
POLYLINE
8
0
66
1
40
0.008000
41
0.008000
0
VERTEX
8
0
10
-0.060942
20
-0.770016
0
VERTEX
8
0
10
-0.050467
20
-0.770975
0
VERTEX
8
0
10
-0.040895
20
-0.773750
0
VERTEX
8
0
10
-0.032377
20
-0.778190
0
VERTEX
8
0
10
-0.025067
20
-0.784141
0
VERTEX
8
0
10
-0.019116
20
-0.791452
0
VERTEX
8
0
10
-0.014676
20
-0.799969
0
VERTEX
8
0
10
-0.011901
20
-0.809541
0
VERTEX
8
0
10
-0.010942
20
-0.820016
0
SEQEND
8
0
0
POLYLINE
8
0
66
1
40
0.008000
41
0.008000
0
VERTEX
8
0
10
-0.110942
20
-0.820016
0
VERTEX
8
0
10
-0.160942
20
-0.820016
0
SEQEND
8
0
0
POLYLINE
8
0
66
1
40
0.008000
41
0.008000
0
VERTEX
8
0
10
0.039058
20
0.079984
0
VERTEX
8
0
10
-0.160942
20
0.079984
0
SEQEND
8
0
0
POLYLINE
8
0
66
1
40
0.008000
41
0.008000
0
VERTEX
8
0
10
0.039058
20
-0.820016
0
VERTEX
8
0
10
0.039058
20
0.079984
0
SEQEND
8
0
0
POLYLINE
8
0
66
1
40
0.008000
41
0.008000
0
VERTEX
8
0
10
-0.160942
20
0.079984
0
VERTEX
8
0
10
-0.160942
20
-0.820016
0
SEQEND
8
0
0
TEXT
8
0
10
-0.110942
20
-0.878016
40
0.048000
41
1.041667
1
U2
0
POLYLINE
8
0
66
1
40
0.008000
41
0.008000
0
VERTEX
8
0
10
0.179106
20
-0.206473
0
VERTEX
8
0
10
0.679106
20
-0.206473
0
VERTEX
8
0
10
0.679106
20
0.043527
0
VERTEX
8
0
10
0.179106
20
0.043527
0
VERTEX
8
0
10
0.179106
20
-0.206473
0
SEQEND
8
0
0
POLYLINE
8
0
66
1
40
0.008000
41
0.008000
0
VERTEX
8
0
10
0.179106
20
-0.006473
0
VERTEX
8
0
10
0.679106
20
-0.006473
0
SEQEND
8
0
0
TEXT
8
0
10
0.204106
20
-0.009465
40
0.048000
41
1.041667
1
BLUETOOTH
0
POLYLINE
8
0
66
1
40
0.008000
41
0.008000
0
VERTEX
8
0
10
0.142995
20
0.123937
0
VERTEX
8
0
10
0.192995
20
0.123937
0
SEQEND
8
0
0
POLYLINE
8
0
66
1
40
0.008000
41
0.008000
0
VERTEX
8
0
10
0.192995
20
0.098937
0
VERTEX
8
0
10
0.392995
20
0.098937
0
VERTEX
8
0
10
0.392995
20
0.148937
0
VERTEX
8
0
10
0.192995
20
0.148937
0
VERTEX
8
0
10
0.192995
20
0.098937
0
SEQEND
8
0
0
POLYLINE
8
0
66
1
40
0.008000
41
0.008000
0
VERTEX
8
0
10
0.392995
20
0.123937
0
VERTEX
8
0
10
0.442995
20
0.123937
0
SEQEND
8
0
0
TEXT
8
0
10
0.242995
20
0.158937
40
0.048000
41
1.041667
1
R2
0
POLYLINE
8
0
66
1
40
0.008000
41
0.008000
0
VERTEX
8
0
10
0.731972
20
-0.043638
0
VERTEX
8
0
10
0.831972
20
-0.043638
0
VERTEX
8
0
10
0.831972
20
0.256362
0
VERTEX
8
0
10
0.731972
20
0.256362
0
VERTEX
8
0
10
0.731972
20
-0.043638
0
SEQEND
8
0
0
TEXT
8
0
10
0.889972
20
0.056362
40
0.048000
41
1.041667
50
90.000000
1
Q3
0
POLYLINE
8
0
66
1
40
0.008000
41
0.008000
0
VERTEX
8
0
10
0.253980
20
-0.857764
0
VERTEX
8
0
10
0.498074
20
-0.857764
0
VERTEX
8
0
10
0.498074
20
-0.617606
0
VERTEX
8
0
10
0.253980
20
-0.617606
0
VERTEX
8
0
10
0.253980
20
-0.857764
0
SEQEND
8
0
0
TEXT
8
0
10
0.276027
20
-0.607606
40
0.048000
41
1.041667
1
BOT1
0
POLYLINE
8
0
66
1
40
0.008000
41
0.008000
0
VERTEX
8
0
10
0.671735
20
-0.582221
0
VERTEX
8
0
10
0.671735
20
-0.532221
0
SEQEND
8
0
0
POLYLINE
8
0
66
1
40
0.008000
41
0.008000
0
VERTEX
8
0
10
0.646735
20
-0.532221
0
VERTEX
8
0
10
0.696735
20
-0.532221
0
VERTEX
8
0
10
0.696735
20
-0.332221
0
VERTEX
8
0
10
0.646735
20
-0.332221
0
VERTEX
8
0
10
0.646735
20
-0.532221
0
SEQEND
8
0
0
POLYLINE
8
0
66
1
40
0.008000
41
0.008000
0
VERTEX
8
0
10
0.671735
20
-0.332221
0
VERTEX
8
0
10
0.671735
20
-0.282221
0
SEQEND
8
0
0
TEXT
8
0
10
0.636735
20
-0.482221
40
0.048000
41
1.041667
50
90.000000
1
R5
0
POLYLINE
8
0
66
1
40
0.008000
41
0.008000
0
VERTEX
8
0
10
0.220847
20
-0.456129
0
VERTEX
8
0
10
0.267206
20
-0.437398
0
SEQEND
8
0
0
POLYLINE
8
0
66
1
40
0.008000
41
0.008000
0
VERTEX
8
0
10
0.276571
20
-0.460578
0
VERTEX
8
0
10
0.462008
20
-0.385657
0
VERTEX
8
0
10
0.443278
20
-0.339298
0
VERTEX
8
0
10
0.257841
20
-0.414219
0
VERTEX
8
0
10
0.276571
20
-0.460578
0
SEQEND
8
0
0
POLYLINE
8
0
66
1
40
0.008000
41
0.008000
0
VERTEX
8
0
10
0.452643
20
-0.362477
0
VERTEX
8
0
10
0.499002
20
-0.343747
0
SEQEND
8
0
0
TEXT
8
0
10
0.277274
20
-0.395582
40
0.048000
41
1.041667
50
22.000000
1
R19
0
CIRCLE
8
0
10
-0.430627
20
-0.418441
40
0.100000
0
POLYLINE
8
0
66
1
40
0.008000
41
0.008000
0
VERTEX
8
0
10
-0.380627
20
-0.343441
0
VERTEX
8
0
10
-0.380627
20
-0.393441
0
SEQEND
8
0
0
POLYLINE
8
0
66
1
40
0.008000
41
0.008000
0
VERTEX
8
0
10
-0.355627
20
-0.368441
0
VERTEX
8
0
10
-0.405627
20
-0.368441
0
SEQEND
8
0
0
TEXT
8
0
10
-0.471627
20
-0.466079
40
0.048000
41
1.041667
50
90.000000
1
C1
0
POLYLINE
8
0
66
1
40
0.008000
41
0.008000
0
VERTEX
8
0
10
-0.362555
20
-0.481585
0
VERTEX
8
0
10
-0.416310
20
-0.621622
0
VERTEX
8
0
10
-0.349092
20
-0.647424
0
VERTEX
8
0
10
-0.295337
20
-0.507387
0
VERTEX
8
0
10
-0.362555
20
-0.481585
0
SEQEND
8
0
0
POLYLINE
8
0
66
1
40
0.008000
41
0.008000
0
VERTEX
8
0
10
-0.305230
20
-0.530368
0
VERTEX
8
0
10
-0.370580
20
-0.505282
0
SEQEND
8
0
0
POLYLINE
8
0
66
1
40
0.008000
41
0.008000
0
VERTEX
8
0
10
-0.382701
20
-0.634523
0
VERTEX
8
0
10
-0.405995
20
-0.695206
0
SEQEND
8
0
0
POLYLINE
8
0
66
1
40
0.008000
41
0.008000
0
VERTEX
8
0
10
-0.328946
20
-0.494486
0
VERTEX
8
0
10
-0.305652
20
-0.433803
0
SEQEND
8
0
0
TEXT
8
0
10
-0.285985
20
-0.644870
40
0.048000
41
1.041667
50
69.000000
1
D3
0
POLYLINE
8
0
66
1
40
0.008000
41
0.008000
0
VERTEX
8
0
10
-0.431107
20
0.311680
0
VERTEX
8
0
10
-0.806684
20
-0.394678
0
VERTEX
8
0
10
-0.674242
20
-0.465098
0
VERTEX
8
0
10
-0.298665
20
0.241259
0
VERTEX
8
0
10
-0.431107
20
0.311680
0
SEQEND
8
0
0
TEXT
8
0
10
-0.493926
20
-0.249517
40
0.048000
41
1.041667
50
62.000000
1
RC522
0
POLYLINE
8
0
66
1
40
0.008000
41
0.008000
0
VERTEX
8
0
10
-0.089099
20
-1.028244
0
VERTEX
8
0
10
0.210901
20
-1.028244
0
VERTEX
8
0
10
0.210901
20
-0.928244
0
VERTEX
8
0
10
-0.089099
20
-0.928244
0
VERTEX
8
0
10
-0.089099
20
-1.028244
0
SEQEND
8
0
0
TEXT
8
0
10
0.010901
20
-0.918244
40
0.048000
41
1.041667
1
J1
0
POLYLINE
8
0
66
1
40
0.008000
41
0.008000
0
VERTEX
8
0
10
-0.965934
20
-1.120410
0
VERTEX
8
0
10
1.089058
20
-1.120410
0
VERTEX
8
0
10
1.089058
20
1.217858
0
VERTEX
8
0
10
-0.965934
20
1.217858
0
VERTEX
8
0
10
-0.965934
20
-1.120410
0
SEQEND
8
0
0
TEXT
8
0
10
0.941247
20
-0.866882
40
0.080000
41
1.000000
50
-90.000000
71
2
1
0bytes
0
POLYLINE
8
0
66
1
40
0.008000
41
0.008000
0
VERTEX
8
0
10
-0.970753
20
-1.166882
0
VERTEX
8
0
10
1.088247
20
-1.167882
0
SEQEND
8
0
0
POLYLINE
8
0
66
1
40
0.008000
41
0.008000
0
VERTEX
8
0
10
-0.970753
20
-1.166882
0
VERTEX
8
0
10
-0.920777
20
-1.216906
0
SEQEND
8
0
0
POLYLINE
8
0
66
1
40
0.008000
41
0.008000
0
VERTEX
8
0
10
-0.970753
20
-1.166882
0
VERTEX
8
0
10
-0.920728
20
-1.116906
0
SEQEND
8
0
0
POLYLINE
8
0
66
1
40
0.008000
41
0.008000
0
VERTEX
8
0
10
1.088247
20
-1.167882
0
VERTEX
8
0
10
1.038272
20
-1.117858
0
SEQEND
8
0
0
POLYLINE
8
0
66
1
40
0.008000
41
0.008000
0
VERTEX
8
0
10
1.088247
20
-1.167882
0
VERTEX
8
0
10
1.038223
20
-1.217858
0
SEQEND
8
0
0
CIRCLE
8
0
10
0.058747
20
-1.167382
40
0.012500
0
TEXT
8
0
10
-0.116235
20
-1.157077
40
0.048000
41
1.041667
50
-0.100000
1
5.22986
0
POLYLINE
8
0
66
1
40
0.008000
41
0.008000
0
VERTEX
8
0
10
-1.023753
20
1.211118
0
VERTEX
8
0
10
-1.025753
20
-1.121882
0
SEQEND
8
0
0
POLYLINE
8
0
66
1
40
0.008000
41
0.008000
0
VERTEX
8
0
10
-1.023753
20
1.211118
0
VERTEX
8
0
10
-1.073795
20
1.161160
0
SEQEND
8
0
0
POLYLINE
8
0
66
1
40
0.008000
41
0.008000
0
VERTEX
8
0
10
-1.023753
20
1.211118
0
VERTEX
8
0
10
-0.973795
20
1.161075
0
SEQEND
8
0
0
POLYLINE
8
0
66
1
40
0.008000
41
0.008000
0
VERTEX
8
0
10
-1.025753
20
-1.121882
0
VERTEX
8
0
10
-0.975710
20
-1.071925
0
SEQEND
8
0
0
POLYLINE
8
0
66
1
40
0.008000
41
0.008000
0
VERTEX
8
0
10
-1.025753
20
-1.121882
0
VERTEX
8
0
10
-1.075710
20
-1.071839
0
SEQEND
8
0
0
CIRCLE
8
0
10
-1.024753
20
0.044618
40
0.012500
0
TEXT
8
0
10
-1.035058
20
-0.130364
40
0.048000
41
1.041667
50
89.900000
1
5.92582
0
POLYLINE
8
0
66
1
40
0.008000
41
0.008000
0
VERTEX
8
0
10
-0.964422
20
-0.978796
0
VERTEX
8
0
10
-0.042115
20
-0.980158
0
SEQEND
8
0
0
POLYLINE
8
0
66
1
40
0.008000
41
0.008000
0
VERTEX
8
0
10
-0.964422
20
-0.978796
0
VERTEX
8
0
10
-0.914496
20
-1.028869
0
SEQEND
8
0
0
POLYLINE
8
0
66
1
40
0.008000
41
0.008000
0
VERTEX
8
0
10
-0.964422
20
-0.978796
0
VERTEX
8
0
10
-0.914348
20
-0.928869
0
SEQEND
8
0
0
POLYLINE
8
0
66
1
40
0.008000
41
0.008000
0
VERTEX
8
0
10
-0.042115
20
-0.980158
0
VERTEX
8
0
10
-0.092041
20
-0.930084
0
SEQEND
8
0
0
POLYLINE
8
0
66
1
40
0.008000
41
0.008000
0
VERTEX
8
0
10
-0.042115
20
-0.980158
0
VERTEX
8
0
10
-0.092189
20
-1.030084
0
SEQEND
8
0
0
CIRCLE
8
0
10
-0.503269
20
-0.979477
40
0.012500
0
TEXT
8
0
10
-0.678250
20
-0.969171
40
0.048000
41
1.041667
50
-0.100000
1
2.34266
0
POLYLINE
8
0
66
1
40
0.008000
41
0.008000
0
VERTEX
8
0
10
1.086247
20
-0.978882
0
VERTEX
8
0
10
0.160554
20
-0.978024
0
SEQEND
8
0
0
POLYLINE
8
0
66
1
40
0.008000
41
0.008000
0
VERTEX
8
0
10
1.086247
20
-0.978882
0
VERTEX
8
0
10
1.036294
20
-0.928836
0
SEQEND
8
0
0
POLYLINE
8
0
66
1
40
0.008000
41
0.008000
0
VERTEX
8
0
10
1.086247
20
-0.978882
0
VERTEX
8
0
10
1.036201
20
-1.028836
0
SEQEND
8
0
0
POLYLINE
8
0
66
1
40
0.008000
41
0.008000
0
VERTEX
8
0
10
0.160554
20
-0.978024
0
VERTEX
8
0
10
0.210508
20
-1.028070
0
SEQEND
8
0
0
POLYLINE
8
0
66
1
40
0.008000
41
0.008000
0
VERTEX
8
0
10
0.160554
20
-0.978024
0
VERTEX
8
0
10
0.210601
20
-0.928070
0
SEQEND
8
0
0
CIRCLE
8
0
10
0.623401
20
-0.978453
40
0.012500
0
TEXT
8
0
10
0.448419
20
-0.968148
40
0.048000
41
1.041667
50
-0.100000
1
2.35126
0
ENDSEC
0
EOF

